<?xml version="1.0" encoding="UTF-8"?>
<svg id="b" data-name="Layer 2" xmlns="http://www.w3.org/2000/svg" viewBox="0 0 1463.23 811.98">
    <defs>
        <style>
            .co {
                stroke-width: 6.65px;
            }

            .co, .cp, .cq, .cr, .cs, .ct, .cu, .cv, .cw, .cx, .cy, .cz, .da, .db, .dc, .dd, .de, .df, .dg, .dh, .di, .dj, .dk {
                fill: none;
                stroke-linecap: round;
                stroke-linejoin: round;
            }

            .co, .cp, .cs, .dl, .cy, .cz, .da, .df, .dg, .dh {
                stroke: #e8c600;
            }

            .cp, .cq, .cu {
                stroke-width: 6.79px;
            }

            .cq, .cr, .ct, .cw, .de {
                stroke: #423f3f;
            }

            .cr {
                stroke-width: 6.76px;
            }

            .cs {
                stroke-width: 6.77px;
            }

            .ct {
                stroke-width: 6.79px;
            }

            .cu, .dm, .cv, .cx, .db, .dc, .dd, .di, .dj, .dk {
                stroke: #6d6b68;
            }

            .dl {
                fill: #e8c600;
            }

            .dl, .dm {
                stroke-miterlimit: 8;
                stroke-width: .2px;
            }

            .dm {
                fill: #6d6b68;
            }

            .cv {
                stroke-width: 5.98px;
            }

            .cw {
                stroke-width: 6.35px;
            }

            .cx {
                stroke-width: 6.68px;
            }

            .cy {
                stroke-width: 6.27px;
            }

            .cz {
                stroke-width: 6.45px;
            }

            .da {
                stroke-width: 5.8px;
            }

            .db {
                stroke-width: 6.42px;
            }

            .dc {
                stroke-width: 6.17px;
            }

            .dd {
                stroke-dasharray: 0 0 .5 7.5;
                stroke-width: 5px;
            }

            .de {
                stroke-width: 6.42px;
            }

            .df {
                stroke-width: 6.38px;
            }

            .dg {
                stroke-width: 6.59px;
            }

            .dh {
                stroke-width: 6.53px;
            }

            .di {
                stroke-width: 6.55px;
            }

            .dj {
                stroke-width: 6.71px;
            }

            .dk {
                stroke-width: 6.68px;
            }
        </style>
    </defs>
    <g id="c" data-name="Layer 1">
        <g id="d" data-name="Pen">
            <path id="e" data-name="STROKE 369f2bbe-ec90-438d-981b-6e880d8d098e" class="dd" d="m2.5,415.02c2.38-.27,4.72-.49,7.03-.66,2.3-.17,4.35-.31,6.12-.42,1.78-.12,3.53-.22,5.27-.31,1.73-.09,6.28-.34,13.63-.77,7.35-.42,13.59-.72,18.72-.88,5.12-.16,9.88-.27,14.27-.32,4.39-.05,8.68-.06,12.86-.03,4.18.03,7.92.1,11.2.21,3.29.11,7.3.24,12.03.37,4.73.13,10.76.35,18.08.67,7.32.31,12.67.55,16.04.71,3.37.16,12.61.46,27.7.92,15.09.45,27.47.77,37.12.93,9.66.17,16.34.25,20.06.25,3.72,0,7.17,0,10.37,0,3.2,0,8.32-.03,15.37-.08,7.05-.05,14.03-.14,20.95-.28,6.92-.14,12.7-.26,17.34-.37,4.64-.11,11.63-.31,20.97-.61,9.33-.3,18.23-.64,26.69-1.01,8.46-.38,16.11-.73,22.95-1.05,6.84-.32,13.52-.61,20.03-.86,6.52-.26,13.26-.49,20.22-.7,6.96-.21,13.51-.41,19.64-.59s10.85-.32,14.16-.42c3.32-.1,6.34-.16,9.08-.2,2.74-.03,6.28-.08,10.64-.15,4.36-.06,9.92-.09,16.69-.07,6.77.02,12.47.03,17.11.03,4.63,0,14.52-.05,29.67-.17,15.15-.11,23.22-.17,24.21-.18.99,0,4.13-.05,9.44-.14,5.3-.09,13.18-.24,23.62-.45,10.44-.21,18.64-.34,24.59-.41,5.95-.07,10.41-.1,13.4-.11,2.99,0,8.41.01,16.25.05,7.85.04,14.49.08,19.93.13,5.44.05,11.99.2,19.63.45"/>
            <g>
                <path id="f" data-name="STROKE e5e761e7-e539-4bd5-b007-b078e2d24f26" class="cw" d="m32.01,306.98c-.06-1.08-.09-1.48-.11-1.2-.05-.13-.15-.26-.29-.41-.12-.68.15,18.61.8,57.88-.13-.09-.27-.19-.4-.28"/>
                <path id="g" data-name="STROKE 45dc70ba-7b7a-465f-912b-ce6c4d5b682d" class="de" d="m57.34,307.64c-.6.04-.58,7.12.07,21.24.65,14.12.73,30.25.23,48.39h-.05c-.18-.4-.36-.8-.55-1.2"/>
                <path id="h" data-name="STROKE 0a3f22b1-ba62-438c-9cb5-74c374835a11" class="cq" d="m42.47,340.47c-1.38-.64-1.86-.88-1.44-.73-.17-.14-.3-.34-.38-.6,1.02.75,3.7,1.55,8.06,2.39,4.36.84,9.08.79,14.17-.15"/>
                <path id="i" data-name="STROKE d293fddb-4863-4e60-aa2e-3d35e05e1412" class="cq" d="m81.42,346.43c-.37,0-.25,0,.35-.01.61,0-.97.02-4.73.07-.17.56-.27.78-.3.68-.03-.1.01-.16.11-.17.1,0,.14.33.12,1-.02.67,1.13,1.25,3.45,1.74,2.31.48,4.56.71,6.74.68,2.17-.03,3.61-.34,4.29-.93.69-.59,1.18-.9,1.48-.94.3-.04.8-.97,1.51-2.79.71-1.82,1.08-4.07,1.11-6.73.03-2.66-.6-4.83-1.9-6.5-1.29-1.67-2.97-2.69-5.04-3.07-2.07-.38-3.76-.49-5.06-.31s-2.97,1.85-4.98,5.03-3.13,6.65-3.36,10.43-.36,6.76-.42,8.95.81,4.82,2.61,7.87c1.8,3.05,4.77,4.98,8.92,5.8,4.15.82,8.84-.34,14.05-3.46"/>
                <path id="j" data-name="STROKE aaa0238d-4e6c-43a2-9902-94917a2f1f36" class="ct" d="m103.29,348.67c-1.45,1-.36,7.36,3.24,19.06.21-1.17.41-5.9.61-14.21.2-8.31,1.5-16.7,3.89-25.17-.31-.31-.2-.39.34-.24.53.14,1.19.71,1.96,1.69.77.98,1.73,3.15,2.87,6.5,1.15,3.35,2.17,6.07,3.08,8.15.91,2.08,1.9,4.07,2.97,5.98,1.08,1.91,2.43,3.31,4.06,4.21,1.63.9,3.25.92,4.86.06,1.61-.86,2.99-2.3,4.12-4.32,1.14-2.02,2.22-4.45,3.25-7.3,1.03-2.85,1.56-5.14,1.58-6.89.03-1.74.03-3.11.01-4.11s-.31-1.74-.87-2.23c-.56-.49-1.05-.87-1.47-1.15-.42-.28-.93-.44-1.53-.49-.6-.05-1.72.03-3.34.22-1.63.19-3.22,1.75-4.77,4.68-1.56,2.93-2.58,6.62-3.07,11.09-.49,4.47-.47,8.6.06,12.4.53,3.8,1.6,7.22,3.21,10.27,1.61,3.05,3.71,5.39,6.28,7.02,2.58,1.63,5.72,2.58,9.42,2.86"/>
                <path id="k" data-name="STROKE 5a56c630-d2b8-4744-854f-164e22ebeb94" class="cr" d="m183.12,309.62c.02-.33-1.17-1.65-3.57-3.97-.99-.61-.52,3.89,1.43,13.5,1.95,9.61,3.43,18.36,4.46,26.26,1.03,7.9.92,15.08-.31,21.53-1.31-.57-1.95-.9-1.9-.99.05-.09.04-.26-.05-.49-.08-.23-.26-.58-.54-1.03-.28-.45-.65-2.5-1.11-6.13-.46-3.63-.36-7.04.3-10.21.66-3.18,1.87-5.95,3.65-8.33,1.78-2.37,3.63-4.21,5.56-5.49,1.93-1.29,3.93-2.1,6.02-2.42,2.08-.32,4.05-.15,5.91.53,1.86.68,3.5,1.85,4.93,3.53,1.43,1.68,2.33,3.86,2.69,6.55.36,2.68.27,5.62-.29,8.8-.56,3.19-1.91,6.64-4.06,10.35-2.15,3.71-5.76,6.77-10.85,9.18-.72-.11-.92-2.8-.6-8.07"/>
                <path id="l" data-name="STROKE ce58a90e-1128-4aaa-ac10-73bcf68d40f7" class="cq" d="m218.36,340.72c-.17.44-.09,1.02.24,1.72.32.7.88,1.36,1.66,1.97.78.61,1.11.87,1,.76-.12-.1.31-.13,1.27-.09.97.04,1.65.02,2.05-.05.4-.08.94-.15,1.61-.22.67-.07,2.23-.76,4.69-2.06,2.46-1.3,3.41-4.37,2.84-9.21-.56-4.84-.74-6.64-.53-5.41.21,1.23.43,2.36.68,3.38-.47.03-.96.04-1.44,0-.49-.03-1.13-.11-1.93-.23-.8-.13-2.33.67-4.58,2.39-2.26,1.72-3.57,4.36-3.94,7.92-.37,3.56-.61,6.51-.72,8.86-.11,2.35.41,4.52,1.54,6.52,1.13,2,2.38,3.86,3.75,5.59,1.37,1.73,6.33,2.18,14.88,1.33"/>
                <path id="m" data-name="STROKE 0ec64a3f-b185-4ba2-81b5-03b0e873de75" class="cq" d="m297.43,335.56c.28.54.05-.65-.7-3.57-.75-2.92-1.88-5.55-3.36-7.89-1.49-2.34-2.61-3.83-3.36-4.46-.75-.64-1.87-1.19-3.35-1.66s-3.19-.66-5.14-.57c-1.94.09-3.98,1.58-6.12,4.46-2.13,2.88-3.73,6.87-4.8,11.97-1.07,5.09-1.63,9.51-1.7,13.24-.06,3.73.19,7,.77,9.81s1.43,5.24,2.56,7.29c1.13,2.05,2.69,3.3,4.67,3.76,1.98.46,3.67.57,5.07.32,1.4-.25,2.97-1.19,4.7-2.84,1.73-1.65,3.9-4.53,6.5-8.63,2.6-4.11,4.52-8.59,5.77-13.44,1.25-4.86,2.03-8.93,2.33-12.23.31-3.3,0-6.52-.95-9.66-.94-3.14-3.38-5.39-7.32-6.74-.57-.68-.89,1.97-.94,7.95-.05,5.98.67,11.47,2.16,16.45,1.49,4.98,3.01,9.19,4.56,12.6,1.55,3.42,3.75,6.29,6.6,8.6"/>
                <path id="n" data-name="STROKE 8852dea3-987f-4892-a1d4-1b2891a96a68" class="cq" d="m315.98,342.58v12.85c0-2.46,0-3.54,0-3.25.06-.8.07-3.4.03-7.78-.04-4.38.23-8.25.81-11.59.58-3.35,2.24-6.45,4.99-9.3"/>
                <path id="o" data-name="STROKE 3faa54c6-15af-408b-946d-5f1fd88466b8" class="cq" d="m342.07,324.72c.45-1.44.58-1.93.4-1.46-.48-.65-1.78-1.16-3.89-1.53-2.11-.37-4.03.31-5.77,2.05-1.73,1.74-3.21,3.56-4.44,5.47-1.22,1.91-2.02,4.11-2.38,6.6-.36,2.49-.54,4.57-.53,6.22,0,1.66.2,3.17.59,4.55.39,1.37,1.28,2.46,2.69,3.27,1.4.81,3.24.69,5.52-.36,2.28-1.05,7.26-7.33,14.94-18.85.08-.16-.36,1.48-1.3,4.91-.94,3.43-1.45,6.75-1.52,9.97-.07,3.22.11,5.42.54,6.57.43,1.16,2.47,1.73,6.11,1.71"/>
                <path id="p" data-name="STROKE 30128a3f-da5a-455e-9a3c-5bee9b1941bc" class="cq" d="m371.33,332.53c0-1.8-1-3.11-2.98-3.93-1.98-.82-3.77-1.13-5.37-.93-1.6.2-3,.76-4.2,1.69-1.2.93-2.15,2.67-2.85,5.24-.71,2.56-.8,5.05-.29,7.46.51,2.41,1.28,4.62,2.29,6.63,1.01,2.01,2.55,3.17,4.61,3.48,2.06.31,3.96.51,5.69.59,1.73.08,3.76-1.4,6.07-4.44,2.31-3.04,4.05-5.64,5.21-7.79,1.17-2.15,2.39-4.33,3.66-6.54-.03,1.04.05,5.63.26,13.78.21,8.15.48,14.61.81,19.39.33,4.78.4,8.9.22,12.36-.19,3.46-.81,6.21-1.85,8.27s-2.37,3.95-3.98,5.69c-1.61,1.74-3.13,3.08-4.55,4.03-1.43.95-3.02,1.49-4.78,1.63s-3.97-.51-6.63-1.95c-2.66-1.44-4.96-3.42-6.91-5.93-1.95-2.51-3.38-5.58-4.28-9.19-.9-3.61-1.35-6.83-1.36-9.64,0-2.81.57-5.63,1.74-8.46,1.17-2.83,8.68-6.39,22.53-10.67"/>
                <path id="q" data-name="STROKE d5dae590-057c-4255-8a09-eff76ca2b765" class="cq" d="m401.24,334.64c.82-1.1,1.49-2.24,2.01-3.43.52-1.18.84-2.13.95-2.84.12-.71.15-1.34.1-1.88,0-.08-.63.04-1.88.37s-2.37,1.03-3.36,2.1c-.99,1.07-2.21,2.75-3.65,5.03-1.44,2.28-2.19,5-2.27,8.17-.08,3.17-.05,5.86.09,8.09.14,2.23,1.12,4.23,2.95,5.99,1.82,1.76,4,2.8,6.54,3.12,2.54.32,4.14.38,4.81.18.67-.2,1.4-.48,2.21-.85.8-.37,1.82-1.19,3.06-2.46,1.24-1.27,2.23-2.63,2.97-4.08.74-1.44,1.18-2.33,1.32-2.66.14-.33.35-1.17.62-2.51.27-1.35.47-2.7.61-4.06.14-1.36.15-2.42.03-3.16-.12-.75-.54-1.4-1.26-1.96-.72-.56-1.56-.97-2.51-1.22-.96-.25-1.5-.37-1.62-.35-.13.02-.45-.03-.96-.13-.29-.45.52-.76,2.44-.94,1.92-.18,4.04-.13,6.36.13,2.32.26,5.26,8.08,8.82,23.46h.25c.24-.25,1.01-2.63,2.32-7.15,1.31-4.53,2.71-8.35,4.23-11.47,1.51-3.12,3.11-5.47,4.78-7.05,1.68-1.58,2.69-2.35,3.04-2.31s1.05.1,2.08.15c1.04.06,1.99,1.34,2.87,3.85.87,2.51,1.7,4.5,2.47,5.98.77,1.48,1.71,2.76,2.8,3.85,1.1,1.09,2.59,1.76,4.47,2.03,1.89.27,5.06-1.12,9.52-4.15,4.46-3.03,9.61-8.66,15.44-16.89-.45-.31-1.45-.29-2.99.05-1.54.35-3.04.88-4.48,1.61-1.45.73-2.62,1.39-3.52,1.99-.9.6-1.67,1.24-2.31,1.91-.64.68-1.05,1.29-1.24,1.85-.19.56-.2,1.32-.02,2.28.17.96.67,1.71,1.5,2.26.83.55,1.68,1.17,2.53,1.88.86.7,1.73,1.4,2.62,2.09.89.69,2.18,1.92,3.88,3.71,1.7,1.79,3.07,4.34,4.11,7.68s.17,8.06-2.59,14.18"/>
            </g>
            <path id="r" data-name="STROKE 9cedbc5d-5bfc-4596-9b35-153b224c9002" class="dd" d="m660.68,242.63c1.22-2.57,2.1-4.28,2.62-5.12.53-.84,1.23-1.8,2.1-2.88.87-1.08,1.35-1.68,1.42-1.81.07-.13,1.74-1.74,5-4.83,3.26-3.09,6.72-5.8,10.4-8.15,3.68-2.35,6.58-4.05,8.72-5.1,2.13-1.05,5.11-2.28,8.93-3.7,3.82-1.42,7.49-2.46,11-3.13,3.51-.67,6.44-1.05,8.77-1.14,2.34-.09,3.94-.11,4.82-.06.88.05,1.81.11,2.81.18,1,.07,3.45.64,7.37,1.72,3.92,1.08,7.41,2.46,10.47,4.13,3.06,1.68,6.06,4.22,8.99,7.61,2.93,3.4,5.38,7.31,7.33,11.74,1.95,4.43,3.41,8.45,4.39,12.05.98,3.6,1.71,7.17,2.21,10.71.5,3.53.68,7.15.55,10.85-.14,3.7-.55,7.12-1.24,10.25-.69,3.13-2.76,7.41-6.2,12.85-3.45,5.43-6.71,9.79-9.79,13.07s-5.69,5.99-7.84,8.13c-2.15,2.15-3.9,3.9-5.24,5.27-1.35,1.37-4.1,4.4-8.25,9.11-4.16,4.7-7.23,8.36-9.23,10.96-2,2.6-3.81,5.2-5.45,7.8-1.63,2.59-3.35,5.97-5.14,10.12-1.79,4.15-3.18,8.33-4.17,12.53-.99,4.2-1.53,8.86-1.62,13.98s.2,9.24.87,12.38c.67,3.13,1.68,6.02,3.02,8.66,1.34,2.64,2.82,4.82,4.44,6.54,1.62,1.72,3.32,3.19,5.12,4.39,1.8,1.2,3.26,2.14,4.39,2.8,1.13.67,1.96,1.18,2.47,1.56.51.37,1.9,1.34,4.16,2.9"/>
            <path id="s" data-name="STROKE f32333f1-c8a0-4d38-bb9b-b9b671641927" class="dd" d="m725.32,417.51c-1.4-.09-2.49-.14-3.25-.15-.76,0-2.18.1-4.23.33-2.06.23-4.5.93-7.34,2.1-2.83,1.17-5.1,2.39-6.81,3.68-1.71,1.29-2.87,2.23-3.48,2.84-.61.61-1.42,1.56-2.43,2.84-1.01,1.28-2.02,2.84-3.05,4.66-1.02,1.83-1.96,3.92-2.81,6.3-.85,2.37-1.51,4.71-1.98,7-.47,2.3-.85,5.59-1.16,9.89-.3,4.29-.35,8.65-.14,13.05.21,4.41.82,8.88,1.81,13.42.99,4.54,2.49,9.03,4.48,13.47,1.99,4.44,4.83,9.08,8.51,13.94,3.68,4.86,7.16,9.24,10.44,13.17,3.28,3.92,6.51,8.41,9.71,13.46,3.19,5.05,5.72,10.24,7.58,15.57,1.86,5.33,2.99,10.91,3.39,16.75.4,5.83.25,10.75-.45,14.75-.7,4-2.01,7.91-3.94,11.74-1.92,3.83-4.55,7.51-7.88,11.05-3.33,3.54-7.28,6.69-11.85,9.46-4.57,2.77-11.28,4.99-20.14,6.66-8.85,1.67-17.53,2.27-26.03,1.81-8.5-.46-14.95-1.18-19.34-2.16"/>
            <g>
                <path id="t" data-name="STROKE 75e97438-a610-42e2-843e-8cf682b3a64b" class="dg" d="m79.17,463.32c-.01-1.28-.08-1.85-.2-1.72-.78-1.19-1.28-1.91-1.51-2.15-.23-.24-.25-.23-.07.03h-.07c-.11,1.69.19,5.87.91,12.53.72,6.67,1.12,12.83,1.22,18.49.09,5.66.07,10.97-.07,15.93-.14,4.96-1.35,10.58-3.64,16.87-.25-.28-.59-1.38-1.04-3.31"/>
                <path id="u" data-name="STROKE 970b102b-cf7d-4987-b7ab-68e45b166726" class="df" d="m84.49,464.65h-.15c-.98-.35.29,2.19,3.81,7.61,3.52,5.42,7.5,11.66,11.93,18.72,4.43,7.06,8.5,17.48,12.21,31.27"/>
                <path id="v" data-name="STROKE b2532aee-6c88-4b4b-8eb8-c1112e5eb29e" class="da" d="m115.86,462.79c-.46-.33-.86,1.77-1.2,6.29-.34,4.52.43,10.09,2.32,16.7,1.89,6.61,3.86,21.46,5.91,44.54"/>
                <path id="w" data-name="STROKE 3cf5b8b5-fcf3-4ffe-98e3-fc886c548f4c" class="cp" d="m151.09,503.72c.16-.18.19-.32.09-.39-.1-.08-.21-.11-.32-.1-.11.01.47-.35,1.74-1.09,1.27-.74,2.25-2.3,2.95-4.67.7-2.38.98-4.19.86-5.42-.13-1.24-.23-2.33-.3-3.28-.07-.95-.75-1.98-2.05-3.08-1.3-1.1-2.99-1.32-5.07-.64-2.08.67-3.45,3.16-4.09,7.46-.65,4.3-.95,8.07-.9,11.3.05,3.23.46,6.04,1.24,8.41.78,2.37,1.94,4.81,3.49,7.31,1.55,2.5,3.46,3.98,5.73,4.43,2.27.45,4.81.19,7.62-.78"/>
                <path id="x" data-name="STROKE 2cf830cd-9341-4d57-b7b4-f5ac7b2e74b7" class="cp" d="m171.61,485.32c-.51.09.71,3.03,3.66,8.8,2.95,5.77,6.13,10.5,9.53,14.2,3.4,3.69,6.91,6.57,10.53,8.64"/>
                <path id="y" data-name="STROKE b7effeef-14ed-4334-99dd-74568e5a14ee" class="cp" d="m193.73,482.39c-.79-.19-2.37.52-4.72,2.14-2.35,1.62-4.54,5.31-6.57,11.07-2.03,5.76-3.42,11.2-4.17,16.31-.75,5.11-.98,10.5-.7,16.17,2.11,0,3.05-.07,2.8-.21-.25-.13.1-.64,1.04-1.52"/>
                <path id="z" data-name="STROKE d61f9f7c-a396-4fa4-881e-75ffe594a592" class="cz" d="m202.47,471.42c.12-.6.17-2.68.15-6.24h.05c.75,2.8,1.1,4.06,1.07,3.79-.03-.27.46,2.35,1.47,7.87,1.01,5.52,1.85,11.48,2.52,17.89.67,6.41,1.51,16.24,2.54,29.5"/>
                <path id="aa" data-name="STROKE dc70fb2d-c53c-49e5-9475-51abc23468d2" class="cp" d="m201.93,501.2c.15.19-.64.04-2.37-.46-1.07-.19-.51-1.04,1.69-2.54,2.2-1.5,3.96-2.41,5.27-2.76,1.31-.34,2.61-.83,3.9-1.47,1.29-.64,6.67-.75,16.14-.34"/>
                <path id="ab" data-name="STROKE c802ff74-1898-4009-8fee-58737ddafd31" class="co" d="m259.28,483.58c.45.38-.96-1.52-4.23-5.7.05.28.11,2.96.18,8.06.07,5.09.63,9.53,1.68,13.3,1.05,3.77,2.22,6.83,3.51,9.19,1.29,2.36,2.79,4.14,4.49,5.35,1.7,1.21,3.06,2.05,4.08,2.52,1.02.47,2.8.45,5.34-.05,2.54-.5,4.49-2.63,5.85-6.37,1.36-3.74,2.11-7.07,2.25-9.96.14-2.9.19-5.77.15-8.62-.04-2.84-1.89-4.81-5.55-5.91-1.54,1.71-1.3,6.8.71,15.27,2.01,8.48,3.58,16.11,4.69,22.89,1.11,6.79,1.66,12.32,1.64,16.6-.02,4.28-.04,7.68-.07,10.19-.03,2.51-.62,5.11-1.76,7.79-1.14,2.69-2.77,4.79-4.88,6.32-2.11,1.53-3.99,2.41-5.63,2.65-1.65.24-3.91.18-6.78-.18-2.87-.36-6.1-2.47-9.67-6.33-3.57-3.87-5.78-11.83-6.62-23.91"/>
                <path id="ac" data-name="STROKE 629add37-731a-4a62-91c3-a220f8d08f0a" class="cp" d="m302.31,492.85c-.41.67-.58.98-.51.93,0,.14.02.51.07,1.12.48.67,1.36.91,2.66.7,1.3-.21,2.64-.61,4.02-1.19,1.38-.58,2.46-1.45,3.22-2.6.77-1.15,1.26-1.98,1.49-2.5.23-.51.43-.91.6-1.19.17-.28.35-1.29.54-3.02.18-1.73.06-3.24-.38-4.54-.44-1.29-2.38-2.3-5.82-3.04-3.44-.74-6.26.2-8.46,2.83-2.2,2.62-3.71,5.71-4.52,9.27-.81,3.55-1.21,6.58-1.18,9.09s.29,4.35.78,5.54c.49,1.19,1.26,2.33,2.28,3.42,1.03,1.09,2.79,1.91,5.31,2.44,2.51.53,5.88-.15,10.1-2.04"/>
                <path id="ad" data-name="STROKE fc1e39d3-342a-41d8-b189-0517b01b54c6" class="cp" d="m328.69,490.07c0,.44,0,.26,0-.53,0-.8.01-1.51.05-2.15.04-.64.04-1.23,0-1.77-.03-.54-.11-1.03-.23-1.46-.12-.43-.27-.88-.48-1.34-.2-.47-.27-.67-.2-.62.07.05-.04-.15-.32-.59-.28-.44-.73-.88-1.34-1.32-.62-.44-1.09-.71-1.41-.8s-.45-.14-.39-.14c.06,0-.66-.07-2.17-.21-1.51-.14-3.27,1.28-5.29,4.25-2.02,2.97-3.3,6.62-3.81,10.96-.52,4.33-.75,7.95-.7,10.87.06,2.91.41,5.29,1.05,7.13.65,1.84,1.94,3.01,3.87,3.51,1.94.49,3.76.51,5.47.04,1.71-.47,3.69-2.12,5.94-4.96,2.25-2.84,3.99-5.49,5.24-7.95,1.25-2.46,2-5.08,2.26-7.86-.58-.43-1.22-.27-1.93.48-.71.75-1.17,1.66-1.38,2.71-.21,1.06-.3,1.86-.27,2.41.03.55.25,1.09.66,1.62.41.53.89,1.01,1.43,1.45.54.43,1.34,1.03,2.4,1.78"/>
                <path id="ae" data-name="STROKE 2252cb6f-c076-435e-b2b1-f3b2364e6df6" class="cp" d="m351.98,517.21c-1.01-.45-1.89-2.97-2.64-7.56-.75-4.59-.7-9.42.16-14.48s4.11-10.51,9.78-16.34"/>
                <path id="af" data-name="STROKE 7b92cacd-2d38-4f4c-8aba-ff3f95ea0932" class="cp" d="m400.07,486.89c-.15.04-1.06-.26-2.73-.92-.59-1.3.18,7.52,2.33,26.47"/>
                <circle id="ag" data-name="STROKE fdf72fc1-6441-48fb-bf3c-382f582e6f20" class="dl" cx="397.56" cy="464.39" r="3.4"/>
                <path id="ah" data-name="STROKE 17cf24b9-c71f-474a-a3cc-da44bb3a796c" class="cp" d="m414.36,492.72c0,.98.05,1.87.15,2.67.1.79.35,2.46.74,5.01.39,2.55.98,6.88,1.77,12.99.23-1.19.19-3.66-.13-7.39-.31-3.73.2-7.71,1.54-11.93,1.34-4.22,2.58-7.57,3.73-10.06,1.15-2.49,2.43-4.35,3.83-5.6,1.41-1.25,3.14-1.94,5.2-2.08,2.06-.14,6.57,11.99,13.52,36.39"/>
                <path id="ai" data-name="STROKE d89fbd31-c133-4a71-9c30-86392ddd34dc" class="cy" d="m103.69,566.86c0-1.04,0-1.5,0-1.39,0-2.36,0-3.11,0-2.25,0-.13-.05-.33-.15-.58-.53.2-.1,21.6,1.31,64.21-.25-.76-.6-2.57-1.06-5.45"/>
                <path id="aj" data-name="STROKE 013459ba-6d7d-4506-8b85-420fa7eedc13" class="cp" d="m101.68,570.71c0-1.17,0-1.62,0-1.32.52-.15,3.37-1.53,8.54-4.13,5.17-2.6,9.45-4.8,12.85-6.59,3.39-1.79,6.14-2.81,8.25-3.05s3.97.2,5.59,1.32"/>
                <path id="ak" data-name="STROKE 6e8d332f-135a-4073-a1fd-3bba139796a9" class="cp" d="m113.2,609.11c-.75-1.64,7.2-6.58,23.87-14.84"/>
                <path id="al" data-name="STROKE 4d12d7d7-384a-44e3-961b-c299f67364c0" class="cp" d="m114,638.1c.14.03-.98,0-3.37-.06-.18.21-.06-.35.36-1.7.42-1.35,3.94-2.42,10.58-3.23,6.64-.8,14.4-2.72,23.29-5.75"/>
                <path id="am" data-name="STROKE 2b1b7a62-6093-4040-967c-3b8f0a023ead" class="cp" d="m187.9,565.41c-.07-1.73-.13-2.57-.18-2.52.29-.93.13-1.82-.47-2.68-.6-.86-1.24-1.48-1.91-1.85-.67-.37-1.31-.6-1.92-.69-.61-.09-1.2-.1-1.76-.02-.57.07-1.1.16-1.59.25-.49.09-1.77.69-3.82,1.8-2.05,1.1-3.61,2.11-4.68,3.02-1.07.91-1.92,1.69-2.57,2.34-.64.65-1.18,1.2-1.62,1.63-.44.44-.93,1.12-1.49,2.05-.55.93-.99,1.95-1.3,3.05-.32,1.1-.43,2-.33,2.69.1.69,0,1.59-.29,2.69-.3,1.1,1.91,3.18,6.62,6.24,4.71,3.06,8.86,6.14,12.46,9.23,3.6,3.09,6.27,5.68,8.01,7.77,1.75,2.09,3.03,4.56,3.86,7.41s1.15,4.97.97,6.34c-.18,1.37-1.44,3.31-3.77,5.8-2.33,2.49-4.82,4.6-7.47,6.3-2.65,1.71-5.73,2.99-9.26,3.85-3.52.86-6.97,1.02-10.34.48-3.37-.54-6.19-1.48-8.45-2.84s-3.74-2.42-4.45-3.19-1.35-2.44-1.93-5.01c-.58-2.57,3.5-6.84,12.22-12.82"/>
                <path id="an" data-name="STROKE 7248fd90-93d8-49f0-a1a6-fbd19121041c" class="dh" d="m208.05,571.77c-.25.8-.07.14.54-1.98.62-2.12.87-4.95.77-8.48h-.25c-.47-.42-.38,3.77.27,12.57.65,8.79,1.75,28.96,3.3,60.51-1.34-.74-2.19-4.6-2.55-11.6s-.41-12.57-.14-16.72.76-8.01,1.49-11.59c.72-3.58,1.8-7.8,3.22-12.68,1.42-4.87,2.79-8.85,4.1-11.93,1.31-3.08,2.59-5.34,3.86-6.78,1.27-1.44,2.45-2.31,3.55-2.63,1.1-.32,2.15-.31,3.14,0,.99.32,1.75.88,2.26,1.67.51.79,1.36,2.15,2.54,4.07,1.18,1.92,2.61,6.11,4.29,12.55,1.67,6.45,2.72,13.77,3.14,21.97.41,8.2-.17,16.19-1.74,23.98-1.07-1.36-1.43-5.08-1.07-11.15.35-6.07,1.33-12,2.93-17.77,1.6-5.77,3.2-10.52,4.8-14.25,1.6-3.73,3.25-6.58,4.95-8.56,1.7-1.98,3.3-3.2,4.8-3.66,1.5-.46,2.31-.54,2.42-.23.11.3.7,1.44,1.75,3.41,1.05,1.97,1.85,6.89,2.39,14.78.54,7.88,2.91,20.54,7.09,37.97"/>
                <path id="ao" data-name="STROKE ea097179-65c6-489b-b026-a9621e847a9a" class="cp" d="m296.77,590.96c-1.44,0-2.13-.03-2.06-.06-1.64-.16-3.19-.27-4.65-.31-1.46-.04-2.52,1.29-3.18,4.01-.66,2.72-.95,5.39-.87,8.01.08,2.62.86,4.82,2.36,6.59,1.5,1.77,3.16,2.97,4.99,3.6,1.83.63,3.56.99,5.19,1.09,1.63.09,3.25-.68,4.87-2.32,1.62-1.64,2.69-4.21,3.23-7.7.54-3.5.07-6.43-1.42-8.82-1.48-2.38-4-4.89-7.56-7.52"/>
                <path id="ap" data-name="STROKE 75417bdf-274f-4777-8c41-3f8d655ed56a" class="cs" d="m333.17,580.22c.46-.55.26-1.45-.59-2.72-.85-1.27-1.76-2.24-2.71-2.92-.95-.68-2.07-.98-3.35-.9-1.28.08-2.32.25-3.12.52-.8.27-2.14,1.3-4.04,3.09s-3.16,4.56-3.79,8.31c-.63,3.75-1.02,6.63-1.15,8.65-.14,2.01.09,4.13.69,6.36.6,2.22,1.72,4.17,3.36,5.85,1.64,1.68,3.46,2.72,5.44,3.11,1.99.4,3.46.52,4.43.39.97-.14,2.38-1.09,4.25-2.84,1.86-1.75,3.33-6.65,4.39-14.68,1.06-8.03.99-17.64-.22-28.82-1.4.79-2.14,4.52-2.24,11.19-.09,6.67.33,12.59,1.28,17.74.94,5.15,1.78,8.98,2.53,11.49.74,2.51,1.32,4.47,1.74,5.89.42,1.41,1.03,2.34,1.84,2.77.81.43,1.83.07,3.06-1.09"/>
                <path id="aq" data-name="STROKE 3bebee6c-3d6d-4b08-91f2-c9ac8a3ece89" class="cp" d="m351.07,596.92c-.95.57-1.27.86-.95.87-.77,3.16.37,5.06,3.43,5.7,3.05.65,5.35.56,6.88-.26,1.53-.82,2.76-1.8,3.69-2.94.93-1.14,2.09-2.93,3.5-5.35-.08-.91-.26.22-.53,3.39-.27,3.17-.43,5.68-.49,7.53-.05,1.85.09,3.46.42,4.83.34,1.37,1.86,1.81,4.57,1.34"/>
                <path id="ar" data-name="STROKE 127fbe6c-3ffe-47d6-8ba4-38f4c909ebc5" class="cp" d="m378.76,568.59c.49-.4.11-2.3-1.15-5.7h-.13c-.14-.04-.13,3.62.03,11,.16,7.38.62,13.21,1.4,17.49.78,4.28,1.35,7.2,1.74,8.74.38,1.54.69,2.85.92,3.93.23,1.08.61,1.77,1.14,2.08.53.31,1.15.54,1.87.69.72.15,1.28.15,1.68,0,.4-.15,1-.64,1.8-1.49.8-.85,2.74-2.11,5.82-3.79,3.08-1.68,5.77-2.98,8.09-3.91,2.32-.93,3.9-1.92,4.74-2.97.84-1.05,1.52-1.88,2.03-2.49.51-.61.96-1.34,1.33-2.18.37-.84.68-1.63.95-2.37s.48-1.5.66-2.28c.18-.77.26-1.29.25-1.55-.01-.25.06-1.27.23-3.04.17-1.77,0-3.13-.52-4.08-.51-.95-1.57-1.57-3.18-1.86-1.61-.29-2.94-.22-3.99.21-1.05.43-2.4,1.67-4.05,3.73-1.65,2.05-2.85,4.65-3.6,7.8-.75,3.15-1.04,5.98-.87,8.49.17,2.51.56,4.44,1.18,5.77.62,1.34,1.29,2.43,2.01,3.28.72.85,2.25,2.03,4.58,3.53,2.33,1.51,7.52.94,15.57-1.69"/>
            </g>
            <g>
                <path id="as" data-name="STROKE 42853794-6cd2-4f8b-9724-d9597bea1887" class="cv" d="m878.03,218c-.21.06-.94.02-2.19-.13-.43,1.03-.42,7.05.04,18.07.45,11.02-.64,25.7-3.28,44.03-.13-.09-.27-.19-.4-.28"/>
                <circle id="at" data-name="STROKE 989c7849-b009-4e6e-8c99-ec8a6c158620" class="dm" cx="892.97" cy="276.38" r="3.4"/>
                <path id="au" data-name="STROKE 762bf3c6-9d21-4534-a176-b4b81edd3a1d" class="dc" d="m920.81,216.93c-.73-2.02-1-2.74-.82-2.16-.58-1.07-.81-1.51-.71-1.34-1.31-1.19-1.24,2.73.23,11.74,1.47,9.01,2.28,18.47,2.44,28.38.16,9.91-.43,18.98-1.76,27.21-.08-.4-.23-3.14-.44-8.22"/>
                <path id="av" data-name="STROKE a604a25b-102d-4274-a153-99d28dce2b81" class="cu" d="m920.81,221.84c-1.32-.19-1.84-.35-1.55-.47-.75-.75-1.26-1.32-1.54-1.71-.27-.39-.34-.54-.2-.45.14.09.17.15.09.16-.07,0-.17-.2-.27-.63-.11-.43-.09-1.18.06-2.25.15-1.07,2.03-2.67,5.66-4.82,3.62-2.15,7.5-3.24,11.63-3.28,4.13-.04,7.33-.1,9.6-.19,2.27-.09,4.37.64,6.3,2.19,1.93,1.55,3.1,2.82,3.5,3.83.4,1,.85,2.49,1.35,4.48.51,1.98-.17,5.29-2.04,9.92-1.87,4.63-6.95,11.86-15.25,21.69,1.89-.54,3.53-.81,4.91-.81,1.38,0,3.35.77,5.9,2.33s6.05,12.21,10.5,31.97"/>
                <path id="aw" data-name="STROKE 0c8727ba-6cf0-4601-882f-644cc43191e4" class="cu" d="m974.3,259.71v.25c1.04,0,1.51,0,1.4,0,1.26-.22,1.85-.35,1.77-.39,2.21-.85,3.08-1.14,2.6-.85-.48.29.14-.1,1.86-1.16,1.72-1.06,2.98-2.03,3.8-2.89.82-.87,1.33-2.07,1.54-3.6.21-1.54.18-3-.08-4.38-.26-1.39-1.09-2.42-2.48-3.1-1.4-.68-2.86-1.15-4.4-1.42-1.54-.27-3.32.12-5.35,1.16-2.03,1.04-3.74,3.14-5.15,6.3-1.41,3.17-2.32,6.37-2.73,9.6-.41,3.23-.41,5.83.02,7.8.43,1.96,1.08,3.56,1.96,4.77s2.52,2.14,4.94,2.77c2.42.63,6.22-.18,11.41-2.43"/>
                <path id="ax" data-name="STROKE 1a41bd59-082f-446b-bf73-41006a148f8d" class="db" d="m1022.36,218.4c1.28-.69,1.71-.96,1.28-.8.51-.77.76-1.35.75-1.74-.01-.39-.03-.58-.05-.59-.02,0-.04,0-.04.03,0,.03.03-.22.12-.73.09-.51-1.22-1.31-3.91-2.39-2.69-1.08-5.15-1.71-7.38-1.89-2.23-.18-4.16-.04-5.79.42-1.63.45-2.59.93-2.89,1.42-.29.49-.72,1.17-1.29,2.03-.56.87-1.03,1.5-1.4,1.9-.37.4-.57,2.78-.59,7.16-.02,4.37,1.64,11.33,4.98,20.86,3.34,9.54,6.15,20.39,8.41,32.57-1.05.25-2.1.02-3.17-.67"/>
                <path id="ay" data-name="STROKE 43d75c74-7f12-46d0-96dd-87b57496e710" class="cu" d="m996.16,253.76c-.1.61,0-.03.32-1.91.31-1.88,5.19-2.04,14.62-.48"/>
                <path id="az" data-name="STROKE 1e1b558b-bfc8-418b-aa56-f1f1024d3767" class="cu" d="m1036.94,250.04h-.05c.07.37-.08.02-.44-1.05-.36-1.07-1.14-1.97-2.35-2.7-1.21-.73-2.24-1.05-3.11-.96s-1.47.12-1.81.11c-.34-.02-1.32,1.33-2.92,4.03-1.6,2.71-2.58,5.37-2.94,8-.36,2.63-.54,4.63-.54,6.01,0,1.38-.02,2.41-.07,3.1-.05.69.59,1.56,1.92,2.6,1.33,1.04,3.53.66,6.59-1.14,3.06-1.81,5.23-3.32,6.49-4.52,1.26-1.21,2.13-2.05,2.6-2.52.47-.47,1.5-1.61,3.1-3.41-.32,1.96-.52,2.85-.6,2.66-.51.09-.44,3.31.2,9.66"/>
                <path id="ba" data-name="STROKE 78bc54f8-9e7b-4802-89d4-2ba1801f19c5" class="cu" d="m1068.2,252.15c-.11.76-.13.22-.06-1.62.08-1.84-.22-3.59-.91-5.23-.68-1.65-1.77-2.74-3.26-3.29-1.49-.55-3.06-.92-4.72-1.11-1.65-.19-3.22.51-4.69,2.11-1.47,1.6-2.6,4.74-3.37,9.43-.77,4.69-1.15,8.49-1.15,11.41,0,2.92.09,5.44.25,7.57.16,2.13.86,4.08,2.1,5.87,1.24,1.79,3.26,3.44,6.06,4.96,2.8,1.52,7.94-1.23,15.42-8.24"/>
                <path id="bb" data-name="STROKE ec506e7f-a5dd-4b58-b974-624f0b3bcf98" class="cu" d="m1085.8,228.05c0-.75.22-4.67.66-11.78.32.23,0,4.46-.95,12.68-.95,8.23-1.29,15.31-1.01,21.26.27,5.94.48,10.4.61,13.37.13,2.97.74,5.86,1.83,8.69,1.09,2.82,2.62,5.14,4.59,6.95,1.97,1.81,3.85,2.97,5.63,3.48,1.78.51,3.33.79,4.65.84,1.31.05,2.69.07,4.12.08,1.43,0,2.5-.77,3.21-2.32"/>
                <path id="bc" data-name="STROKE dd63e4d3-4d5d-4387-b7b1-5f0437c87009" class="cu" d="m1081.32,259.84c-1.89-.39-2.81-.65-2.73-.8-1.03-.3-2.06-1.14-3.1-2.51-.09-2.31,12.75-4.04,38.51-5.17.27-1.35,0-.71-.8,1.94-.81,2.65-1.24,4.84-1.31,6.56-.06,1.72.26,3.35.96,4.89.7,1.54,1.52,3.27,2.46,5.19.94,1.92,2.11,3.44,3.53,4.58,1.41,1.14,2.68,1.85,3.8,2.16,1.13.3,2.31.19,3.56-.32,1.25-.51,2.08-2.62,2.5-6.31.42-3.69.44-7.65.06-11.88-.38-4.22-2.15-8.13-5.33-11.72-.15.76.81,2.84,2.88,6.23"/>
                <path id="bd" data-name="STROKE e0376a21-edc8-4bab-821d-109bff13e239" class="cu" d="m1141.7,272.28c.52.63,2.24,2.26,5.17,4.89.09-1.41,0-3.68-.3-6.82-.29-3.14-.31-5.69-.04-7.65s1.02-4.01,2.28-6.14c1.25-2.13,3.4-3.4,6.45-3.81,3.05-.41,6.43.01,10.16,1.27"/>
                <path id="be" data-name="STROKE 86f98662-f4f5-45f2-b071-82bcdb1e6ef9" class="cu" d="m1194.68,266.2c-.38-1.09-.6-1.6-.67-1.53-.67-1.19-.88-1.61-.64-1.26-.05-.13-.1-.27-.15-.39-.53-.14-.03,3.19,1.49,9.99,1.53,6.8,2.62,13.35,3.28,19.66.66,6.31,1.12,11.32,1.4,15.04.27,3.72-.79,6.3-3.18,7.74-3.93.58-4.88-11.6-2.84-36.55"/>
                <path id="bf" data-name="STROKE 746c8eef-e798-41d2-8195-4afbc9c440bf" class="cu" d="m1207.8,257.98c.79-.66,2.08-1.97,3.86-3.91,1.78-1.95,4.13-3.17,7.05-3.67,2.92-.5,5.56-.18,7.92.96,2.36,1.15,3.72,2.86,4.08,5.14.37,2.28.43,5.28.2,8.99-.23,3.71-5.47,10.83-15.71,21.36"/>
                <path id="bg" data-name="STROKE 8c978569-c6a9-4a44-95ad-37d64da055e7" class="cu" d="m1257.86,261.16c0-2.02,0-2.79,0-2.32-.04-.12.02-.88.17-2.28.15-1.4-.34-2.65-1.49-3.75-1.15-1.1-2.5-1.72-4.05-1.86-1.55-.14-3.48.5-5.77,1.94-2.29,1.44-4.41,4.26-6.34,8.48-1.93,4.22-3.02,7.76-3.25,10.62s-.39,4.98-.48,6.34c-.09,1.36.53,2.63,1.84,3.81,1.31,1.18,3.39,1.55,6.22,1.1,2.83-.45,7.82-4.64,14.97-12.57-.2-.71-.02,2.96.55,10.99"/>
                <path id="bh" data-name="STROKE f373d1da-1b51-4ca6-beef-94da6d5c6bee" class="dk" d="m1268.83,271.62c.22.87.26,2.38.12,4.54-.15,2.15-.2,4.13-.16,5.94.04,1.81.53,3.18,1.47,4.13.94.95,2.48,1.69,4.61,2.23,2.13.54,4.69-1.01,7.68-4.65s5-9.12,6.03-16.44c-.25-1.05-.22,2.7.08,11.28.3,8.57.46,15.66.48,21.26.02,5.6-.25,10.02-.83,13.25-.57,3.23-1.66,7.05-3.27,11.46-1.61,4.41-3.6,8.32-5.96,11.73-2.36,3.41-4.64,5.9-6.85,7.47-2.21,1.57-4.52,2.59-6.94,3.05-2.42.46-6.89-2.56-13.4-9.06"/>
                <path id="bi" data-name="STROKE cff89323-f424-4047-b7da-9d06ff32e910" class="cu" d="m1302.75,252.28s-.05-.21-.15-.51h-.15c0,2.29,0,3.19,0,2.71-.23.24-.06,2.76.53,7.56.59,4.8,2.87,9.9,6.85,15.28,1.35-.85,2.33-1.83,2.93-2.93.6-1.11,1.27-1.92,2.02-2.43.75-.51,2.19-.11,4.33,1.2,2.14,1.31,3.67,2.33,4.6,3.07.93.73,1.72.88,2.38.44.65-.44.87-3.06.65-7.86-.22-4.8.16-9.64,1.15-14.54"/>
                <path id="bj" data-name="STROKE e1a221d2-67ca-4503-946b-ca49a15fc9f5" class="cu" d="m1348.15,264.47v.13c-.16.15-1.27.08-3.34-.2-2.07-.28-3.56-.53-4.47-.75-.91-.22-2.3.2-4.15,1.24-1.85,1.04-3.15,2.95-3.9,5.71-.75,2.76-1.16,4.79-1.25,6.09-.08,1.29.01,2.51.28,3.66.27,1.15,1.15,1.78,2.65,1.9,1.5.12,3.05.14,4.65.08,1.6-.06,3.97,2.95,7.11,9.02,1.25-.15,1.79-.23,1.62-.25"/>
                <path id="bk" data-name="STROKE e572acf4-aa58-4811-9da0-da7e6ede9160" class="cu" d="m1359.16,253.09c-.09-.05-.62-.49-1.6-1.32.1,2.87.09,4.16-.03,3.88-.12-.29.18,3.18.88,10.39.7,7.21,2.32,14.85,4.87,22.92"/>
                <path id="bl" data-name="STROKE 4439ea2d-8871-49ab-bc30-d567aedc7d24" class="cu" d="m1374.65,257.57c-.88.48-1.98,1.53-3.32,3.15-1.33,1.62-2.2,6.87-2.6,15.74-.4,8.87.08,18.28,1.44,28.25"/>
                <path id="bm" data-name="STROKE cf070865-01a9-411b-b331-8a1adcb20580" class="cx" d="m863.86,353.96c.13.16-.38.03-1.53-.4-1.14-.43-2.16-1-3.03-1.71-.88-.71-1.42-1.75-1.62-3.12-.21-1.37-.29-2.19-.27-2.48.03-.29.12-.82.28-1.58.15-.76.61-1.66,1.38-2.7.77-1.04,2.54-3.03,5.32-5.97,2.78-2.94,5.54-5.1,8.29-6.49,2.75-1.39,4.69-2.13,5.84-2.24,1.15-.11,2.45,0,3.91.31,1.45.31,2.65,3.08,3.6,8.3.94,5.22,1.4,10.46,1.38,15.71-.02,5.26-.85,10.72-2.49,16.4-1.63,5.68-3.26,10.04-4.88,13.09-1.62,3.05-2.86,5.28-3.73,6.7-.87,1.42-1.98,3.16-3.34,5.22s-3.41,4.01-6.16,5.82c-2.75,1.82-5.07,2.85-6.95,3.09-1.89.24-3.42.28-4.59.1-1.17-.18-2.09-.75-2.75-1.72-.66-.97-1.17-2.65-1.52-5.05-.35-2.39.48-5.24,2.5-8.54,2.02-3.3,4.54-6.08,7.57-8.35,3.02-2.27,5.33-3.92,6.91-4.97,1.58-1.05,3.3-1.69,5.15-1.93,1.85-.24,3.37-.51,4.57-.82,1.19-.31,3.75,1.54,7.66,5.55,3.92,4.01,7.47,7.5,10.66,10.48,3.19,2.98,7.61,5.4,13.26,7.28"/>
                <circle id="bn" data-name="STROKE 8038247e-2d6d-4d4a-b2a4-e4bc6844a1d9" class="dm" cx="933.13" cy="390.63" r="3.4"/>
                <path id="bo" data-name="STROKE ff8920da-b371-463c-bd0f-282adc325964" class="cu" d="m958.81,326.57c-.2-.04-.56-.3-1.08-.77-.52-.47-.67-.65-.47-.54.2.11.11.1-.26-.02-.38-.12-.42-.6-.13-1.43.3-.83.87-1.36,1.73-1.59.85-.22,1.24-.42,1.16-.59-.08-.17,1.68-.9,5.28-2.19,3.6-1.29,6.53-1.95,8.78-1.99,2.25-.04,4.65.19,7.21.67,2.56.48,2.79,3.2.7,8.16-2.09,4.96-4.05,9.26-5.86,12.91-1.81,3.65-2.67,7.29-2.56,10.93,2.03.29,4.93,1.48,8.69,3.58"/>
                <circle id="bp" data-name="STROKE fba1824b-be2f-494d-8f90-dd5efa63fd5f" class="dm" cx="976.96" cy="377.02" r="3.4"/>
                <path id="bq" data-name="STROKE 0e73cbfb-9c75-4cc4-ba98-f156405166fa" class="cu" d="m1000.24,323.65c.53.61-1.23,0-5.28-1.85-.18-.07-.29-.14-.32-.2-.03-.06,0-.03.11.1.1.13.38-.16.83-.87.45-.71,2.68-1.28,6.7-1.71,4.02-.43,7.14-.6,9.34-.51,2.2.1,4.01.12,5.42.08,1.41-.05,2.3.65,2.67,2.07.38,1.43.42,2.75.13,3.97-.29,1.22-.72,2.26-1.27,3.11-.55.85-1.04,1.53-1.45,2.02-.41.49-2.17,2.38-5.28,5.67-3.11,3.29-4.9,7.87-5.37,13.74-1.12.13,2.15.68,9.8,1.65"/>
                <path id="br" data-name="STROKE eae28957-7604-43a6-acb2-935a947f5bc2" class="cu" d="m1012.71,373.3c.11-.29.15-.33.12-.1-.03.22-.27.76-.71,1.6-.44.84-.68,1.25-.73,1.23s-.03-.09.05-.2c.08-.11-.55.73-1.9,2.51"/>
                <path id="bs" data-name="STROKE d7da2a10-a0ff-4732-8d6c-404b064f1113" class="cu" d="m1039.85,324.05c-.05.31-.53.16-1.44-.43-.9-.59-1.56-1.48-1.98-2.69-.42-1.2-.33-2.01.27-2.43.6-.42,1.35-.84,2.26-1.28.91-.44,1.52-.68,1.85-.75.32-.06,1.15-.27,2.48-.62,1.33-.35,2.32-.56,2.96-.64.64-.07,1.2-.13,1.69-.17.49-.04,1.12-.09,1.9-.14.78-.05,1.35-.08,1.7-.08.35,0,1.21-.05,2.58-.14,1.37-.1,2.54-.02,3.51.22.97.25,1.58.71,1.84,1.39.26.68.37,1.91.33,3.68-.03,1.77-1.82,5.07-5.37,9.91-3.54,4.83-6.29,9.21-8.24,13.13-1.95,3.92-3.07,7.72-3.37,11.39.09.44,4.18-.06,12.24-1.51"/>
                <path id="bt" data-name="STROKE 82daf975-057f-45b1-a82c-7dc7d42dd1b1" class="cu" d="m1048.45,377.02c.13-.06-.93.95-3.17,3.03.18.04.36.09.55.13"/>
                <path id="bu" data-name="STROKE 9a50d9ca-2e26-4ba1-bd09-0405ad1c7c4d" class="cu" d="m870.09,445.99c-.95.14-1.21.13-.78-.02.42-.15.16.01-.79.49-.95.47-1.67.78-2.16.93-.49.15-1.14.27-1.97.36-.83.1-1.18.13-1.05.11.13-.02-.05-.02-.54-.02.25.26.27-.22.06-1.43-.21-1.22,1.69-3.58,5.72-7.09,4.03-3.51,7.73-6.29,11.11-8.35,3.37-2.06,6.05-3.45,8.01-4.19,1.97-.73,3.22-1.12,3.76-1.16.54-.04,1.64.06,3.3.3,1.66.24,2.28,1.86,1.85,4.86-.43,3-2.05,7.01-4.86,12.03-2.81,5.02-5.18,9.14-7.12,12.36-1.93,3.22-3.75,6.88-5.44,10.99.36,0,1.49.01,3.38.05,1.89.03,3.72.74,5.48,2.1,1.76,1.37,3.01,3.35,3.75,5.94.73,2.6.72,5.22-.03,7.87-.75,2.65-2.57,5.12-5.43,7.42-2.87,2.3-5.97,4.01-9.3,5.13-3.34,1.13-7.16,1.58-11.46,1.37-4.31-.21-9.39-3.71-15.24-10.49"/>
                <circle id="bv" data-name="STROKE 3ca5c258-f7ba-40ab-b5aa-92c896959ab8" class="dm" cx="921.07" cy="487.02" r="3.4"/>
                <path id="bw" data-name="STROKE a7db15be-ff3c-4515-941b-a6e3d957a7da" class="dj" d="m991.54,423.62c.38-.18.53-1.5.46-3.94-.07-2.45-.3-4.36-.68-5.74-.38-1.38-.99-2.4-1.82-3.05-.83-.65-1.43-.95-1.8-.91-.37.05-1.42-.14-3.13-.57-1.72-.42-4.5.21-8.36,1.9-3.85,1.69-7.62,4.71-11.29,9.05-3.68,4.34-6.27,7.8-7.79,10.4-1.51,2.59-2.84,5.23-3.99,7.92-1.14,2.69-1.88,5.61-2.21,8.78-.33,3.17-.47,6.23-.41,9.2.06,2.97.69,5.74,1.89,8.32,1.2,2.58,3.1,4.89,5.7,6.93,2.6,2.05,5.19,3.46,7.77,4.24,2.57.78,5.37,1.37,8.4,1.76,3.03.39,6.03.09,9-.88,2.97-.98,5.63-2.68,7.96-5.11"/>
                <path id="bx" data-name="STROKE 8ec1ab0b-8fac-4e20-9b16-aef40338e6ed" class="cu" d="m989.39,452.08c-2.18,0-3.01.03-2.5.06-.36.04-.89.2-1.58.47,3.58,1.1,4.93,1.55,4.03,1.35-.89-.2,6.23-.11,21.38.3.14-.67.48,1.06,1.03,5.21.55,4.15-2.67,16.25-9.65,36.31"/>
                <path id="by" data-name="STROKE 9c01458f-b9d2-4485-b9b5-4f3127a222e5" class="cu" d="m1027.94,466.76s-.23-.06-.55-.19v-.19c.51.29,2.21.05,5.1-.71,2.89-.76,5.35-2.09,7.38-4.01,2.03-1.92,3.3-3.29,3.81-4.12.51-.83,1.04-1.75,1.6-2.75.56-1,1.01-2.59,1.35-4.75.34-2.17.25-3.87-.28-5.13-.53-1.25-1.19-1.94-1.99-2.08-.8-.13-2.01-.34-3.63-.63s-3.17-.25-4.65.12c-1.48.37-3.64,1.49-6.47,3.36-2.84,1.87-4.77,4.87-5.79,8.98-1.03,4.11-1.54,7.45-1.54,10.02,0,2.57.07,4.62.2,6.15.13,1.53.84,3.2,2.12,5.03,1.28,1.82,2.83,3.35,4.64,4.59,1.81,1.24,3.42,1.87,4.84,1.9,1.42.03,2.53.08,3.33.15.81.07,2.63-.31,5.48-1.14"/>
                <path id="bz" data-name="STROKE f8bac1fd-29b9-433c-8f31-64898efe0d9c" class="cu" d="m1064.49,424.79c.26.6.44,2.42.54,5.44.1,3.02-.22,6.98-.96,11.87-.74,4.89-1.41,8.75-2.02,11.57s-1.1,6.3-1.48,10.4c-.38,4.11-.62,7.79-.72,11.03-.1,3.24.55,6.28,1.94,9.1,1.39,2.82,3.05,4.75,4.99,5.76,1.94,1.02,3.46,1.4,4.56,1.13,1.1-.26,1.71-.38,1.85-.35.13.03.7-.09,1.7-.38,1-.29,2.83-3.39,5.48-9.31"/>
                <path id="ca" data-name="STROKE 5a7eba6c-00d5-4dc6-a88f-83889334de52" class="cu" d="m1055.74,459.76c.45,1.23-.93-.23-4.15-4.38.14-.97,2.98-1.87,8.52-2.7,5.54-.83,11.81-.46,18.81,1.13"/>
                <path id="cb" data-name="STROKE c96d4a39-ab20-4b92-953e-5640d839080a" class="cu" d="m1125.81,449.68c0,.88,0-2.29,0-9.52.89-.25,1.07,13.56.53,41.44-.68.36-1.2-1.71-1.56-6.21-.36-4.5-.42-8.62-.19-12.35.24-3.73,1.14-7.22,2.71-10.49,1.57-3.27,3.36-6,5.37-8.19,2.01-2.19,5.2-3.68,9.57-4.48"/>
                <path id="cc" data-name="STROKE a59c3cd5-cf90-412f-ae70-2a73cac71c2d" class="cu" d="m1158.13,459.1c1.17.92,1.65,1.27,1.44,1.06.61.35,1.22.66,1.83.94.61.28.76.37.43.26-.33-.11.15,0,1.44.3,1.28.31,2.22.44,2.8.4.58-.04,1.31-.21,2.19-.53.88-.32,1.77-1.17,2.7-2.55.92-1.38,1.51-3.21,1.77-5.47.26-2.26.43-3.99.51-5.2.08-1.2-.63-2.23-2.13-3.09-1.49-.86-2.71-1.25-3.65-1.17-.94.08-2.3.45-4.08,1.13-1.79.67-4.06,2.7-6.81,6.08-2.76,3.38-4.67,6.52-5.74,9.42-1.07,2.9-1.76,5.62-2.07,8.15s-.18,4.59.42,6.18c.59,1.59,1.65,2.86,3.19,3.83,1.54.97,6.06,1.76,13.56,2.37"/>
                <path id="cd" data-name="STROKE 92d57a35-d290-409d-b982-f66ee333d77b" class="di" d="m1185.39,453.65c.22,1.46.05-.26-.51-5.14-.18,1.25.44,4.48,1.85,9.68,1.42,5.2,2.78,9.25,4.09,12.14,1.3,2.89,2.69,5.4,4.17,7.55,1.47,2.15,3.08,2.84,4.81,2.06,1.74-.78,4.53-5.24,8.38-13.38,3.85-8.15,9.67-16.9,17.48-26.27"/>
                <path id="ce" data-name="STROKE 9c982111-48eb-4d60-af45-6e6d9785a860" class="cu" d="m1227,454.06c.15,2.38,1.71,3.65,4.68,3.81s5.21.18,6.7.04c1.49-.14,2.76-.47,3.79-1.02,1.03-.54,1.82-1.06,2.37-1.55.54-.49,1.01-1.01,1.4-1.56.39-.54.81-1.56,1.28-3.06.47-1.5.07-2.67-1.19-3.52-1.27-.85-2.45-1.32-3.55-1.42-1.1-.1-2.32-.15-3.66-.14-1.34,0-3.21,1.01-5.61,3.03-2.4,2.02-4.29,4.41-5.66,7.18-1.37,2.77-2.27,5.69-2.69,8.79-.42,3.09-.45,5.67-.08,7.72.37,2.05.95,3.74,1.75,5.05.79,1.31,1.51,2.24,2.14,2.79.63.55,1.82.91,3.58,1.09,1.76.17,3.63-.35,5.63-1.56"/>
                <path id="cf" data-name="STROKE b84545a5-2b3d-4069-86b0-af613efd7899" class="cu" d="m1246.2,465.18c.01-1.28.12,1.99.33,9.8,1.09-1.23,3.03-4.33,5.83-9.28,2.8-4.95,5.32-8.93,7.56-11.94,2.24-3.01,4.07-5.31,5.49-6.9,1.43-1.59,2.45-2.72,3.07-3.41.62-.69,1.93-.81,3.93-.38.52.41.83,4.02.94,10.82.11,6.8.15,12.35.13,16.63-.02,4.29.72,7.67,2.23,10.16"/>
                <path id="cg" data-name="STROKE 9493da69-f7db-4bc7-aa9b-9fc76e4d8298" class="cu" d="m1290.55,457.24c-.59.09-1.89.04-3.9-.13.17-.6.08.43-.28,3.1-.36,2.67.2,4.66,1.69,5.96s2.87,2.17,4.15,2.6c1.27.43,2.93.52,4.97.28,2.04-.24,3.71-.79,5.01-1.65,1.3-.86,2.68-1.82,4.14-2.89,1.46-1.07,2.73-2.03,3.82-2.89,1.08-.85,2.37-1.69,3.86-2.51,1.49-.82,2.7-1.33,3.63-1.55.92-.21,1.92-.3,3-.26,1.08.04,1.97.33,2.69.87.72.53,1.18,2.86,1.41,6.98.22,4.12.37,7.31.46,9.58.08,2.27.86,3.94,2.32,5"/>
                <path id="ch" data-name="STROKE 92aa5c1e-cf9b-4386-a01c-472187c82b22" class="dj" d="m1341.81,468.75s-.4-.02-1.06-.06c.74-1.35,1.07-1.81.98-1.39.99-.42,1.46-.62,1.38-.6-.12.29,1.38-.44,4.5-2.16,3.12-1.73,5.35-5.53,6.69-11.4-.14-.19-.8-.45-1.98-.78-1.18-.34-3.02.03-5.52,1.11-2.5,1.07-4.32,2.15-5.47,3.22-1.15,1.07-2.33,2.24-3.57,3.5-1.23,1.26-2.15,3.54-2.76,6.83-.61,3.29.83,5.84,4.31,7.67,3.48,1.82,8.22,3.18,14.23,4.07,6.01.89,14.33-.14,24.95-3.1"/>
            </g>
            <path id="ci" data-name="STROKE 181644b1-8b82-4632-8795-ba807400ebcc" class="dd" d="m656.6,243.3l-2.93.25c-1.94.36-3.54.67-4.82.92-1.27.25-3.22.37-5.83.34-2.61-.03-4.77-.22-6.48-.58-1.71-.36-3.13-.8-4.29-1.34-1.15-.53-2.18-1.17-3.09-1.91-.9-.74-1.74-1.58-2.5-2.53-.77-.95-2.1-3.31-4.01-7.09-1.91-3.78-3.31-7.1-4.2-9.97-.9-2.86-1.46-6.75-1.7-11.67-.24-4.92.21-10.35,1.34-16.3,1.13-5.95,2.52-10.94,4.15-14.98,1.63-4.04,2.97-7.08,4.02-9.13,1.05-2.05,3.57-5.93,7.56-11.64,3.99-5.71,7.22-10,9.67-12.86s5.46-6.02,9.02-9.47c3.55-3.45,11.3-10.27,23.24-20.46,11.94-10.19,19.17-16.16,21.67-17.92,2.5-1.76,9.52-6.14,21.06-13.15,11.54-7.01,20.4-12.14,26.6-15.4,6.2-3.26,12.62-6.42,19.26-9.48,6.64-3.07,12.54-5.7,17.69-7.91,5.15-2.21,9.11-3.88,11.88-5.03,2.77-1.15,6.8-2.75,12.08-4.8,5.28-2.05,11.35-4.27,18.21-6.66s15.36-5.08,25.51-8.09c10.15-3,18.01-5.16,23.58-6.46,5.57-1.3,9.77-2.21,12.58-2.72,2.81-.51,7.31-1.17,13.49-1.98,6.18-.81,14.58-2,25.19-3.57,10.61-1.57,18.98-2.75,25.09-3.56,6.11-.8,10.66-1.31,13.64-1.53,2.98-.22,7.56-.51,13.73-.87,6.17-.36,13.48-.92,21.94-1.68,8.46-.76,15.35-1.24,20.67-1.45,5.32-.21,10.71-.1,16.16.34,5.45.44,10.71.86,15.78,1.26,5.07.4,11.12.66,18.17.79,7.05.13,12.69.24,16.93.35,4.24.11,9.69.65,16.36,1.62,6.67.97,10.85,1.55,12.56,1.72,1.71.17,5.79.51,12.23,1.01,6.45.5,12.04.98,16.78,1.45,4.74.47,8.81.97,12.21,1.5,3.4.54,8.76,1.42,16.07,2.66,7.31,1.24,13.04,2.33,17.18,3.27,4.14.95,7.96,2,11.46,3.15,3.5,1.16,8.22,2.79,14.15,4.89,5.93,2.1,10.56,3.72,13.88,4.84,3.32,1.13,7.23,2.55,11.74,4.25,4.5,1.71,8.99,3.61,13.47,5.72,4.48,2.11,8.6,4.04,12.37,5.79,3.76,1.75,7.17,3.23,10.22,4.45,3.05,1.22,6.44,2.55,10.18,3.98s8.09,3.34,13.07,5.73c4.98,2.38,9.06,4.41,12.26,6.08,3.19,1.67,6.74,3.4,10.65,5.2,3.91,1.8,6.86,3.17,8.85,4.11,2,.94,4.63,2.42,7.89,4.44,3.26,2.02,5.72,3.6,7.37,4.74,1.65,1.14,3.85,2.57,6.58,4.3,2.73,1.72,5.09,3.31,7.08,4.76,1.99,1.45,3.43,2.59,4.34,3.43.9.84,2.2,2.03,3.88,3.56,1.69,1.54,3.05,2.75,4.08,3.65,1.03.89,2.71,2.34,5.03,4.35,2.32,2.01,3.79,3.29,4.42,3.85.63.55,2.06,1.98,4.3,4.29,2.24,2.31,4.37,4.62,6.39,6.94,2.02,2.32,3.72,4.26,5.1,5.83,1.38,1.56,2.87,3.54,4.47,5.94,1.6,2.4,3.47,5.33,5.61,8.8s3.96,6.6,5.45,9.39c1.49,2.79,3.08,6.18,4.77,10.18s2.96,7.1,3.79,9.32c.84,2.21,1.86,5.74,3.07,10.57,1.21,4.83,2,8.43,2.39,10.81.39,2.38.66,5.49.82,9.32.16,3.84.16,6.93,0,9.28-.15,2.35-.39,4.96-.7,7.82-.31,2.86-.76,5.79-1.35,8.8-.59,3.01-1.08,5.66-1.47,7.96-.39,2.3-.78,4.34-1.15,6.13-.37,1.79-.75,3.38-1.15,4.79-.4,1.4-.92,3.03-1.56,4.87-.65,1.84-1.11,3.09-1.38,3.76-.27.66-.97,2.09-2.07,4.27-1.11,2.18-1.96,3.78-2.57,4.79-.61,1.01-1.58,2.36-2.94,4.07-1.35,1.7-3.28,4.26-5.78,7.67"/>
            <path id="cj" data-name="STROKE 11845b7f-368c-4fe3-97cb-f5de5bc01157" class="dd" d="m1400.88,246.6l-.23.68c-.25,2.32-.36,3.64-.34,3.96.02.32-1.34,15.98-4.06,46.98"/>
            <path id="ck" data-name="STROKE 741e61a2-f438-4fa5-83ad-a81919aa9439" class="dd" d="m1397.42,295.85c1.69-1.89,15.78-12.97,42.27-33.24"/>
            <path id="cl" data-name="STROKE 941f2189-f25a-44f2-994f-3f47776c11f6" class="dd" d="m651.82,632.65l-3.5-2.34-2.62-.6c-3.19-.65-5.85-.93-7.99-.83-2.14.1-4.47.62-6.99,1.56-2.52.94-4.59,1.88-6.21,2.83-1.63.95-3.67,2.7-6.13,5.26-2.46,2.56-4.22,4.59-5.29,6.09-1.06,1.5-2.28,3.63-3.65,6.38-1.37,2.75-2.32,4.95-2.84,6.59-.52,1.64-1.29,4.93-2.28,9.87-1,4.93-1.74,9.68-2.24,14.24-.5,4.55-.69,8.49-.59,11.81.11,3.32.39,6.43.86,9.31s1.63,6.68,3.5,11.37c1.87,4.69,4.34,10.04,7.43,16.04,3.09,6.01,5.59,10.64,7.49,13.89,1.91,3.26,4.87,7.01,8.9,11.26,4.03,4.25,7.59,7.57,10.69,9.95,3.1,2.39,7.43,5.45,13.01,9.19,5.57,3.75,10.85,6.89,15.84,9.43,4.99,2.54,9.32,4.47,13.02,5.81,3.69,1.33,10.47,2.92,20.33,4.75,9.86,1.83,18.7,3.37,26.5,4.61s13.89,2.3,18.26,3.19c4.37.88,10.33,1.85,17.89,2.91,7.55,1.05,14.62,1.76,21.18,2.13s16.34.39,29.31.09c12.97-.31,25.58-.32,37.82-.03,12.24.28,21.72.62,28.44,1.02,6.72.4,12.31.66,16.78.78,4.47.13,10.73.21,18.78.26,8.05.05,15.34,0,21.87-.12,6.53-.13,12.3-.26,17.31-.39,5.01-.13,13.51-.23,25.5-.3,11.99-.07,20.91-.1,26.77-.11,5.86,0,10.46-.01,13.79-.03,3.33-.01,8.43-.1,15.29-.27,6.86-.17,13.58-.48,20.15-.94,6.58-.46,15.11-1.16,25.59-2.12,10.48-.96,21.58-1.94,33.28-2.96,11.7-1.01,23.27-2.35,34.72-4.02,11.45-1.66,21.05-3.33,28.82-5,7.77-1.67,14.34-3.09,19.73-4.27,5.39-1.18,11.15-2.39,17.28-3.64,6.13-1.24,14.07-2.99,23.8-5.24,9.73-2.25,18.37-4.57,25.91-6.95,7.54-2.38,13.16-4.26,16.86-5.63,3.7-1.38,8.28-3.19,13.76-5.43,5.47-2.24,11.56-5,18.25-8.29,6.69-3.29,13.33-6.88,19.91-10.78,6.58-3.9,12.94-7.9,19.09-11.99,6.15-4.09,11.26-7.6,15.31-10.55,4.05-2.94,8.1-5.98,12.14-9.12,4.04-3.13,8.76-7.01,14.15-11.64s10.56-9.55,15.51-14.76,8.79-9.51,11.52-12.91c2.73-3.4,6.12-8.21,10.15-14.44,4.03-6.22,7.65-12.75,10.86-19.56,3.21-6.82,5.47-12.04,6.77-15.65,1.31-3.62,2.46-7.44,3.46-11.47,1-4.03,1.86-8.26,2.56-12.69.7-4.43,1.23-8.17,1.59-11.21.36-3.04.68-6.04.96-9.01.29-2.97.46-7.29.53-12.96.06-5.68-.01-10.05-.24-13.12-.22-3.07-.83-6.91-1.83-11.52-1-4.61-2.12-8.66-3.35-12.14-1.23-3.48-2.72-6.74-4.48-9.76-1.76-3.02-3.78-5.86-6.08-8.52s-5.1-5.71-8.41-9.16c-3.31-3.45-5.84-5.94-7.57-7.48-1.73-1.54-2.99-2.62-3.78-3.24-.79-.62-1.56-1.18-2.31-1.67-.75-.49-3.34-1.75-7.76-3.77"/>
            <path id="cm" data-name="STROKE 1a290ef7-e639-4af7-b149-728136de4fa5" class="dd" d="m1401.28,485.32l.4,1.41c.29,1.06,2.1,11.99,5.41,32.78l.43,3.15"/>
            <path id="cn" data-name="STROKE a38721e8-835c-41d4-a733-48e97a4ba245" class="dd" d="m1399.53,472.21c.72-.8,1.44-1.7,2.17-2.71.73-1,3.34-3.09,7.83-6.25s10.6-7.25,18.35-12.24"/>
        </g>
    </g>
</svg>
