<?xml version="1.0" encoding="UTF-8"?>
<svg id="uuid-e7018d0d-cfb5-43a8-895c-deb98634c95b" data-name="Layer 2" xmlns="http://www.w3.org/2000/svg" viewBox="0 0 864.19 811.96">
  <defs>
    <style>
      .uuid-4d72eeea-a997-4231-89a1-cf2add5be086 {
        fill: #6d6b68;
        stroke-width: 0px;
      }
    </style>
  </defs>
  <g id="uuid-44659f11-8fa2-44d3-a28f-efa0811f6ec2" data-name="Layer 1">
    <g id="uuid-3fb957d9-404e-47e6-8e5b-ce8c85162fbc" data-name="Pen">
      <g id="uuid-79e514ec-dcfa-4ec8-acfd-fe203ddb6758" data-name="STROKE 9cedbc5d-5bfc-4596-9b35-153b224c9002">
        <path class="uuid-4d72eeea-a997-4231-89a1-cf2add5be086" d="m129.23,421.04c-.5,0-1-.15-1.43-.45-1.14-.78-1.47-2.35-.69-3.49.77-1.14,2.3-1.46,3.45-.68l.11.08c1.13.79,1.4,2.35.61,3.48-.49.69-1.26,1.06-2.05,1.06Zm-6.32-4.21c-.43,0-.86-.11-1.26-.34l-.12-.08c-1.18-.72-1.55-2.26-.83-3.44.72-1.18,2.26-1.55,3.44-.83l.05.03c1.19.7,1.59,2.23.89,3.42-.47.79-1.3,1.24-2.16,1.24Zm-6.28-4.26c-.57,0-1.14-.19-1.61-.59-1.06-.88-1.24-2.48-.36-3.54.88-1.06,2.43-1.23,3.49-.35l.1.08c1.05.89,1.19,2.47.29,3.52-.49.58-1.2.88-1.91.88Zm-7.23-6.67l-.06-.08c-.77-1.15-.46-2.7.69-3.47,1.15-.77,2.7-.46,3.47.69l-2.08,1.39,2.09-1.37-2.04,1.45-2.08,1.39Zm-1.45-5.6c-1.01,0-1.96-.61-2.34-1.61-.5-1.29.12-2.77,1.4-3.28,1.29-.5,2.72.1,3.22,1.38l.04.11c.49,1.29-.16,2.73-1.45,3.23-.29.11-.59.16-.89.16Zm-4.47-9.45s-.02-.1-.02-.1c-.2-1.37.74-2.64,2.11-2.84,1.37-.2,2.64.74,2.84,2.11l-2.47.36,2.48-.33-2.46.43-2.47.37Zm1.9-5.44c-1.36,0-2.48-1.1-2.5-2.46-.02-1.38,1.08-2.57,2.46-2.59,1.36-.06,2.52,1.03,2.54,2.41v.1c.02,1.38-1.08,2.52-2.46,2.54-.01,0-.02,0-.04,0Zm.21-7.59c-.06,0-.12,0-.19,0-1.38-.1-2.41-1.3-2.31-2.68.1-1.38,1.3-2.46,2.68-2.36,1.38.1,2.42,1.25,2.31,2.63v.1c-.1,1.31-1.2,2.32-2.5,2.32Zm.99-7.53c-.17,0-.34-.02-.51-.05-1.35-.28-2.22-1.61-1.94-2.96.26-1.36,1.58-2.27,2.94-2.01,1.36.26,2.25,1.54,1.98,2.9l-.03.13c-.25,1.18-1.29,1.99-2.44,1.99Zm1.91-7.35c-.24,0-.49-.04-.74-.11-1.32-.41-2.06-1.81-1.65-3.12,0-.01.04-.12.04-.13.42-1.31,1.83-2.04,3.15-1.61,1.31.42,2.03,1.83,1.61,3.15l-2.38-.77,2.36.83c-.33,1.07-1.32,1.77-2.39,1.77Zm2.65-7.16c-.33,0-.66-.07-.98-.21-1.25-.55-1.85-1.97-1.31-3.23,0-.02.05-.12.06-.14.56-1.24,2.03-1.81,3.28-1.27,1.25.55,1.84,1.98,1.31,3.25-.01.02-.03.07-.04.09-.42.93-1.35,1.5-2.32,1.5Zm3.26-6.82c-.4,0-.8-.09-1.17-.29-1.22-.65-1.68-2.16-1.03-3.38.65-1.22,2.19-1.72,3.41-1.07,1.22.65,1.7,2.12,1.05,3.34l-.05.09c-.45.84-1.31,1.32-2.21,1.32Zm3.98-6.47c-.48,0-.96-.14-1.38-.42-1.15-.77-1.46-2.32-.69-3.47l.09-.12c.79-1.13,2.35-1.41,3.48-.62,1.13.79,1.41,2.35.62,3.48l-2.05-1.43,2.02,1.47c-.48.72-1.27,1.11-2.08,1.11Zm4.52-6.13c-.53,0-1.07-.17-1.52-.52-1.08-.84-1.3-2.38-.47-3.47.02-.02.09-.12.11-.14.87-1.07,2.44-1.24,3.52-.37,1.07.87,1.24,2.44.37,3.52l-1.94-1.58,1.92,1.6c-.5.63-1.24.96-1.98.96Zm4.87-5.81c-.58,0-1.16-.2-1.63-.61-1.05-.9-1.16-2.48-.26-3.53l.07-.08c.9-1.04,2.48-1.16,3.53-.25,1.04.9,1.16,2.48.25,3.53l-.06.07c-.49.57-1.19.87-1.89.87Zm5.02-5.71c-.6,0-1.2-.21-1.67-.64-1.03-.92-1.11-2.51-.18-3.53.92-1.02,2.53-1.14,3.55-.23,1.03.92,1.15,2.45.24,3.48,0,0-.08.09-.08.1-.49.55-1.17.83-1.86.83Zm5.09-5.64c-.62,0-1.25-.23-1.73-.7-1-.96-1.03-2.54-.07-3.53.93-1.02,2.53-1.1,3.55-.16,1.02.94,1.1,2.5.16,3.52l-.1.11c-.49.51-1.15.77-1.8.77Zm5.32-5.42c-.65,0-1.3-.25-1.79-.75-.97-.99-.95-2.57.04-3.54.98-.98,2.59-1,3.56-.03.98.98,1,2.53.03,3.51l-.09.09c-.49.48-1.12.71-1.75.71Zm5.34-5.44c-.61,0-1.22-.22-1.7-.67-1-.94-1.07-2.49-.14-3.5l.12-.13c.97-.99,2.55-1,3.54-.04s1,2.55.04,3.54l-1.79-1.75,1.76,1.77c-.49.52-1.16.78-1.83.78Zm5.19-5.53c-.6,0-1.2-.21-1.67-.64-1.02-.92-1.11-2.51-.18-3.53.89-1.05,2.48-1.19,3.53-.3,1.05.89,1.19,2.46.3,3.52l-.12.14c-.49.55-1.17.83-1.86.83Zm4.68-5.99c-.49,0-.99-.14-1.42-.44-1.14-.78-1.42-2.34-.64-3.48,0-.01.07-.1.08-.11.8-1.12,2.36-1.38,3.49-.58,1.12.8,1.38,2.36.58,3.49l-2.03-1.45,2,1.5c-.49.7-1.27,1.08-2.06,1.08Zm4.21-6.33c-.45,0-.91-.12-1.32-.38-1.17-.73-1.53-2.27-.81-3.44.73-1.17,2.3-1.58,3.47-.85s1.56,2.23.83,3.4l-.05.08c-.47.76-1.29,1.18-2.13,1.18Zm3.7-6.64c-.35,0-.71-.07-1.04-.23-1.25-.58-1.8-2.06-1.23-3.31,0-.02.06-.13.07-.15.61-1.24,2.1-1.75,3.35-1.14,1.24.61,1.75,2.11,1.14,3.35l-2.24-1.1,2.23,1.13c-.42.91-1.33,1.45-2.27,1.45Zm2.36-7.19c-.14,0-.29-.01-.44-.04-1.36-.24-2.27-1.54-2.03-2.9l.02-.1c.24-1.36,1.55-2.26,2.9-2.02,1.36.24,2.26,1.54,2.02,2.9l-.02.09c-.21,1.21-1.27,2.07-2.46,2.07Zm.84-7.6s-.07,0-.11,0c-1.37-.06-2.43-1.16-2.39-2.52,0-.02,0-.15,0-.17.08-1.38,1.28-2.43,2.64-2.35,1.38.08,2.43,1.26,2.35,2.64h0c-.08,1.33-1.18,2.41-2.5,2.41Zm-.07-7.56c-1.28,0-2.37-.97-2.48-2.26,0-.02-.01-.15-.01-.17-.08-1.38.97-2.56,2.35-2.64,1.39-.09,2.56.97,2.64,2.35l-2.5.15,2.5-.11c.1,1.37-.92,2.58-2.29,2.69-.07,0-.14,0-.21,0Zm-.99-7.53c-1.16,0-2.2-.81-2.44-1.99l-.03-.16c-.24-1.36.66-2.66,2.02-2.9,1.35-.24,2.66.66,2.9,2.02l-2.46.44,2.47-.4c.26,1.35-.61,2.67-1.96,2.94-.17.03-.33.05-.5.05Zm-1.68-7.4c-1.1,0-2.11-.73-2.41-1.84l-.03-.1c-.36-1.33.42-2.71,1.75-3.07,1.33-.36,2.71.42,3.07,1.75l.03.1c.36,1.33-.42,2.71-1.75,3.07-.22.06-.44.09-.66.09Zm-105.14-1.49c-.35,0-.71-.07-1.04-.23-1.25-.58-1.8-2.05-1.22-3.3l.06-.13c.61-1.24,2.11-1.75,3.35-1.14,1.24.61,1.75,2.11,1.14,3.35-.43.91-1.34,1.46-2.29,1.46Zm102.73-5.73c-.98,0-1.9-.57-2.29-1.53l-.07-.17c-.48-1.29.17-2.73,1.46-3.22,1.29-.48,2.73.17,3.22,1.46l-2.34.88,2.35-.85c.5,1.28-.12,2.73-1.39,3.25-.31.12-.63.18-.94.18Zm-99.06-.92c-.5,0-1.01-.15-1.45-.47-1.12-.81-1.38-2.35-.57-3.46l.08-.1c.82-1.11,2.39-1.34,3.5-.51,1.11.83,1.34,2.39.51,3.5-.49.68-1.28,1.05-2.06,1.05Zm5.06-5.68c-.66,0-1.32-.25-1.8-.76-.95-1-.95-2.54.05-3.49,0,0,.08-.08.09-.09,1.01-.95,2.59-.9,3.53.11.95,1.01.9,2.59-.11,3.53-.49.46-1.13.69-1.76.69Zm91-.36c-.9,0-1.76-.48-2.2-1.33l-.07-.15c-.61-1.24-.1-2.74,1.14-3.35,1.24-.61,2.74-.1,3.35,1.14l-2.24,1.1,2.26-1.07c.63,1.23.15,2.74-1.07,3.37-.37.19-.77.28-1.16.28Zm-85.41-4.76c-.71,0-1.41-.29-1.9-.87-.89-1.05-.79-2.61.26-3.5l.09-.08c1.06-.88,2.64-.74,3.52.33.88,1.06.74,2.64-.33,3.52-.48.4-1.06.6-1.65.6Zm81.51-1.74c-.78,0-1.55-.36-2.04-1.05-.81-1.12-.59-2.71.53-3.52,1.12-.81,2.66-.6,3.47.52l.07.1c.8,1.12.54,2.69-.58,3.49-.44.31-.95.47-1.45.47Zm-75.46-2.79c-.81,0-1.6-.39-2.08-1.11-.77-1.15-.46-2.7.69-3.47l1.39,2.08-1.32-2.12c1.14-.78,2.7-.48,3.47.67.77,1.14.48,2.7-.67,3.47,0,0-.09.06-.1.07-.43.28-.91.42-1.38.42Zm70.5-2.98c-.61,0-1.21-.22-1.69-.67-.02-.02-.11-.11-.13-.12-.98-.98-.98-2.56,0-3.54.98-.98,2.56-.98,3.54,0l-1.77,1.77,1.79-1.75c.98.96,1.02,2.54.07,3.53-.49.52-1.15.78-1.81.78Zm-64.04-1.03c-.86,0-1.71-.45-2.17-1.25-.69-1.2-.28-2.72.92-3.41l.08-.04c1.19-.7,2.72-.29,3.42.9.7,1.19.29,2.72-.9,3.42l-.1.06c-.39.23-.82.33-1.25.33Zm6.8-3.38c-.98,0-1.91-.58-2.31-1.55-.53-1.28.08-2.74,1.36-3.26l.06-.03c1.27-.54,2.74.04,3.28,1.31.54,1.27-.04,2.74-1.31,3.28l-.12.05c-.31.13-.63.19-.95.19Zm51.27-.23c-.43,0-.87-.11-1.26-.34-1.2-.68-1.65-2.22-.97-3.42.68-1.2,2.18-1.64,3.38-.96l.12.07c1.19.7,1.59,2.23.89,3.42-.47.79-1.3,1.24-2.16,1.24Zm-44.18-2.5c-1.03,0-1.99-.64-2.36-1.67-.46-1.3.22-2.73,1.52-3.19,0,0,.05-.02.05-.02,1.3-.45,2.75.22,3.2,1.52.46,1.3-.19,2.71-1.48,3.18,0,0-.1.04-.11.04-.28.1-.56.14-.83.14Zm37.26-.63c-.27,0-.55-.04-.82-.14l-.12-.04c-1.3-.47-1.97-1.9-1.51-3.2.47-1.3,1.9-1.97,3.2-1.51l.07.03c1.3.45,1.99,1.88,1.54,3.18-.36,1.03-1.33,1.68-2.36,1.68Zm-29.97-1.5c-1.14,0-2.18-.79-2.44-1.95-.3-1.35.55-2.68,1.89-2.99h.06c1.34-.34,2.69.49,3.02,1.83s-.5,2.69-1.84,3.02l-.14.03c-.18.04-.37.06-.55.06Zm22.68-.64c-.19,0-.39-.02-.58-.07l-.14-.04c-1.34-.34-2.14-1.71-1.8-3.04.34-1.34,1.71-2.14,3.04-1.8h.05c1.34.33,2.17,1.68,1.85,3.03-.27,1.15-1.3,1.92-2.43,1.92Zm-15.19-.67c-1.25,0-2.33-.94-2.48-2.21-.16-1.37.82-2.61,2.19-2.77h.06c1.37-.19,2.63.77,2.81,2.14.18,1.37-.78,2.63-2.15,2.81l-.14.02c-.1.01-.2.02-.29.02Zm7.69-.37s-.03,0-.04,0c-1.38-.02-2.53-1.16-2.51-2.54.02-1.38,1.15-2.51,2.49-2.46,0,0,.1,0,.1,0,1.38.02,2.48,1.16,2.46,2.54-.02,1.37-1.14,2.46-2.5,2.46Z"/>
      </g>
      <g id="uuid-5fa0330e-32d7-4a1a-bc94-0d2396f784dd" data-name="STROKE f32333f1-c8a0-4d38-bb9b-b9b671641927">
        <path class="uuid-4d72eeea-a997-4231-89a1-cf2add5be086" d="m73.45,627.89c-1.35,0-2.46-1.07-2.5-2.43-.04-1.38,1.05-2.53,2.43-2.57,1.39-.07,2.58,1.04,2.62,2.42.04,1.38-1,2.53-2.38,2.57h-.1s-.05,0-.07,0Zm-7.49-.08s-.1,0-.15,0l.15-2.5-.18,2.49c-1.37-.06-2.45-1.22-2.4-2.59.05-1.35,1.14-2.41,2.48-2.41.02,0,.05,0,.07,0h.17c1.38.09,2.43,1.27,2.35,2.65s-1.18,2.35-2.49,2.35Zm15.11-.39c-1.26,0-2.36-.95-2.5-2.23-.15-1.37.81-2.59,2.18-2.75l.17-.02c1.37-.13,2.59.89,2.71,2.27.12,1.38-.9,2.59-2.27,2.71l-.22-2.49.19,2.49c-.09,0-.17.01-.26.01Zm-22.69-.12c-.07,0-.15,0-.22,0h-.1c-1.38-.13-2.39-1.34-2.27-2.72.12-1.38,1.34-2.39,2.71-2.27,1.38.12,2.44,1.34,2.32,2.71-.11,1.3-1.16,2.28-2.44,2.28Zm-7.55-.82c-.12,0-.24,0-.37-.03l.36-2.47-.4,2.47c-1.36-.18-2.34-1.43-2.17-2.79.17-1.36,1.4-2.33,2.76-2.17l.17.02c1.37.2,2.31,1.47,2.11,2.84-.18,1.24-1.25,2.14-2.47,2.14Zm37.75-.04c-1.22,0-2.29-.89-2.47-2.14-.2-1.37.74-2.64,2.11-2.84,1.36-.24,2.67.66,2.91,2.02.24,1.36-.65,2.66-2.01,2.9l-.18.03c-.12.02-.25.03-.37.03Zm7.46-1.47c-1.16,0-2.2-.81-2.44-1.99-.28-1.35.58-2.68,1.94-2.96,1.33-.28,2.7.55,3,1.89.3,1.33-.47,2.65-1.8,2.97-.03,0-.15.03-.17.04-.17.04-.34.05-.51.05Zm7.32-2.05c-1.04,0-2.01-.65-2.36-1.69-.45-1.31.25-2.73,1.55-3.18l.11-.04c1.3-.44,2.73.26,3.17,1.57.44,1.31-.26,2.73-1.57,3.17l-.08.03c-.27.09-.54.14-.81.14Zm7-3c-.88,0-1.73-.45-2.19-1.27-.67-1.19-.27-2.7.91-3.38.02-.01.13-.08.16-.09,1.22-.65,2.73-.19,3.38,1.03.65,1.22.19,2.73-1.03,3.38l-1.18-2.21,1.15,2.22c-.38.21-.8.31-1.21.31Zm6.32-4.16c-.77,0-1.53-.36-2.02-1.03-.81-1.12-.56-2.68.55-3.49,1.09-.85,2.67-.66,3.52.43.85,1.09.66,2.66-.43,3.5l-.14.11c-.44.32-.96.48-1.47.48Zm5.72-5.01c-.62,0-1.24-.23-1.72-.69-.99-.95-1.04-2.51-.11-3.5.02-.02.11-.11.12-.13.98-.98,2.56-.98,3.54,0,.98.98.98,2.56,0,3.54l-1.77-1.77,1.75,1.79c-.49.51-1.15.76-1.81.76Zm4.93-5.75c-.5,0-1.01-.15-1.45-.47-1.12-.8-1.38-2.36-.58-3.49,0-.01.08-.1.08-.12.82-1.11,2.39-1.34,3.5-.52,1.11.82,1.34,2.39.52,3.5l-2.01-1.49,1.98,1.53c-.49.68-1.26,1.05-2.04,1.05Zm3.96-6.47c-.38,0-.76-.08-1.12-.26-1.23-.62-1.74-2.12-1.12-3.35.6-1.24,2.11-1.79,3.35-1.19,1.24.6,1.78,2.07,1.18,3.31l-.06.12c-.44.88-1.32,1.38-2.24,1.38Zm2.77-7.09c-.22,0-.45-.03-.68-.1-1.32-.38-2.1-1.74-1.73-3.06.37-1.32,1.76-2.15,3.09-1.78,1.33.37,2.12,1.69,1.76,3.02,0,.01-.02.08-.03.1-.32,1.1-1.33,1.82-2.42,1.82Zm1.44-7.43c-.1,0-.2,0-.29-.02-1.37-.16-2.35-1.4-2.19-2.77.12-1.38,1.32-2.41,2.71-2.28,1.38.12,2.39,1.32,2.27,2.7l-.02.17c-.15,1.27-1.23,2.21-2.48,2.21Zm.23-7.59c-1.35,0-2.46-1.07-2.5-2.43-.04-1.38,1.04-2.58,2.42-2.62,1.42-.07,2.53,1,2.57,2.38v.1c.04,1.38-1.04,2.53-2.42,2.57-.02,0-.05,0-.07,0Zm-.52-7.58c-1.25,0-2.33-.93-2.48-2.2,0,0-.01-.1-.01-.11-.16-1.37.82-2.61,2.19-2.77,1.36-.16,2.61.82,2.77,2.19l-2.48.29,2.49-.2c.17,1.37-.81,2.62-2.18,2.78-.1.01-.2.02-.3.02Zm-1.35-7.47c-1.13,0-2.15-.77-2.43-1.91-.33-1.34.49-2.74,1.83-3.07,1.34-.33,2.68.45,3.01,1.79l.02.1c.33,1.34-.5,2.69-1.84,3.02-.2.05-.4.07-.59.07Zm-2.24-7.26c-1.01,0-1.96-.62-2.34-1.62l-.04-.09c-.48-1.29.17-2.73,1.46-3.22,1.29-.48,2.73.17,3.22,1.46l.04.09c.49,1.29-.17,2.73-1.46,3.22-.29.11-.59.16-.88.16Zm-3.04-6.98c-.9,0-1.77-.49-2.21-1.34l-.07-.15c-.6-1.24-.08-2.74,1.16-3.34,1.24-.6,2.74-.08,3.34,1.16l-2.25,1.09,2.27-1.05c.62,1.23.13,2.74-1.09,3.36-.37.19-.76.28-1.14.28Zm-3.69-6.62c-.83,0-1.63-.41-2.11-1.16l-.07-.11c-.73-1.17-.37-2.71.81-3.44,1.17-.73,2.71-.37,3.44.81l.04.06c.74,1.16.4,2.71-.76,3.45-.42.27-.88.39-1.34.39Zm-4.2-6.33c-.78,0-1.54-.36-2.03-1.04,0-.01-.07-.1-.08-.12-.79-1.13-.51-2.69.62-3.48,1.13-.79,2.69-.51,3.48.62l-2.05,1.43,2.08-1.38c.81,1.12.56,2.68-.56,3.49-.44.32-.95.47-1.46.47Zm-4.56-6.08c-.75,0-1.48-.33-1.98-.96-.84-1.08-.69-2.67.38-3.52,1.06-.85,2.59-.73,3.46.32.02.02.09.12.11.13.85,1.09.65,2.66-.44,3.51-.46.35-1,.53-1.53.53Zm-4.82-5.88c-.73,0-1.45-.32-1.95-.93l-.07-.09c-.86-1.08-.68-2.65.4-3.51,1.08-.86,2.65-.68,3.51.4l.05.06c.87,1.07.7,2.65-.37,3.52-.46.37-1.02.55-1.57.55Zm-4.7-5.97c-.76,0-1.5-.34-1.99-.99-.83-1.09-.65-2.7.44-3.53,1.09-.84,2.62-.68,3.47.41,0,0,.07.09.08.1.83,1.1.62,2.67-.48,3.5-.45.34-.98.51-1.51.51Zm-4.54-6.1c-.8,0-1.59-.38-2.07-1.1-.77-1.14-.51-2.73.62-3.5,1.13-.78,2.65-.54,3.44.59,0,0,.07.1.07.11.77,1.14.48,2.7-.67,3.47-.43.29-.92.43-1.4.43Zm-4.02-6.44c-.88,0-1.74-.47-2.19-1.29l-.05-.09c-.67-1.21-.22-2.73.99-3.4,1.21-.66,2.73-.22,3.4.99l.05.09c.67,1.21.22,2.73-.99,3.4-.38.21-.79.31-1.2.31Zm-3.26-6.87c-.97,0-1.9-.57-2.3-1.53,0-.02-.05-.13-.06-.15-.5-1.29.13-2.74,1.42-3.24,1.28-.5,2.74.13,3.24,1.42l-2.33.91,2.34-.87c.52,1.27-.08,2.74-1.35,3.26-.31.13-.64.19-.96.19Zm-2.45-7.18c-1.09,0-2.09-.71-2.4-1.81l-.04-.13c-.36-1.33.42-2.71,1.75-3.07,1.33-.36,2.71.42,3.07,1.75l.02.06c.38,1.33-.38,2.71-1.71,3.09-.23.07-.46.1-.69.1Zm-1.65-7.42c-1.2,0-2.26-.87-2.46-2.09-.24-1.36.66-2.69,2.02-2.93,1.36-.24,2.65.63,2.89,1.99l.02.12c.23,1.36-.69,2.65-2.05,2.88-.14.02-.28.03-.41.03Zm-.94-7.54c-1.3,0-2.39-1-2.49-2.32-.1-1.38.93-2.62,2.31-2.73,1.38-.1,2.57.88,2.67,2.26v.1c.11,1.38-.93,2.58-2.3,2.68-.06,0-.12,0-.19,0Zm-.26-7.59c-1.38,0-2.5-1.12-2.5-2.5s1.12-2.55,2.5-2.55,2.5,1.07,2.5,2.45v.1c0,1.38-1.12,2.5-2.5,2.5Zm2.76-9.97l-4.99-.28s0-.12,0-.13c.1-1.38,1.3-2.41,2.68-2.31,1.38.1,2.41,1.3,2.31,2.68l-2.49-.18,2.49.22Zm-1.74-5.18c-.12,0-.25,0-.38-.03-1.37-.21-2.3-1.48-2.1-2.85.21-1.36,1.49-2.36,2.85-2.15,1.36.2,2.31,1.42,2.11,2.79,0,0-.02.11-.02.11-.19,1.24-1.25,2.13-2.47,2.13Zm1.72-7.39c-.25,0-.5-.04-.75-.12-1.32-.41-2.05-1.81-1.64-3.13l.03-.11c.42-1.32,1.82-2.05,3.14-1.62,1.32.42,2.04,1.82,1.62,3.14l-.03.08c-.33,1.07-1.32,1.75-2.39,1.75Zm2.82-7.05c-.38,0-.76-.08-1.12-.26-1.23-.62-1.74-2.12-1.12-3.35,0,0,.06-.11.06-.12.63-1.23,2.14-1.71,3.37-1.07,1.23.63,1.71,2.14,1.07,3.37l-2.22-1.15,2.19,1.21c-.44.88-1.32,1.38-2.24,1.38Zm6.07-7.35l-1.97-1.54-1.93-1.59c.88-1.06,2.49-1.25,3.55-.37,1.06.88,1.25,2.42.37,3.48l-1.93-1.59,1.91,1.61Zm3.56-4.24c-.75,0-1.5-.34-1.99-.98-.83-1.09-.64-2.64.44-3.48.02-.02.12-.09.14-.11,1.12-.81,2.68-.57,3.49.55.81,1.12.56,2.68-.55,3.49l-1.47-2.02,1.45,2.04c-.45.34-.98.5-1.51.5Zm6.65-3.59c-.99,0-1.92-.59-2.32-1.56-.52-1.28.1-2.74,1.38-3.26,1.28-.53,2.78.07,3.3,1.34.53,1.28-.04,2.72-1.32,3.25l-.11.04c-.31.12-.63.18-.94.18Zm7.27-2.13c-1.25,0-2.33-.94-2.48-2.21-.16-1.37.82-2.61,2.19-2.77h.1c1.38-.17,2.61.81,2.77,2.18s-.82,2.61-2.19,2.77h-.1c-.1.02-.2.03-.29.03Zm7.69-.21s-.1,0-.15,0c-.02,0-.15-.01-.17-.01-1.38-.12-2.39-1.33-2.27-2.71.12-1.38,1.34-2.39,2.71-2.27,1.36.12,2.42,1.31,2.32,2.68-.1,1.31-1.15,2.32-2.44,2.32Z"/>
      </g>
      <g id="uuid-61824605-156a-4e22-97a9-ded6216ca282" data-name="STROKE 181644b1-8b82-4632-8795-ba807400ebcc">
        <path class="uuid-4d72eeea-a997-4231-89a1-cf2add5be086" d="m809.47,280.01c-.54,0-1.08-.17-1.53-.53-1.09-.85-1.29-2.42-.44-3.51.84-1.08,2.42-1.32,3.51-.5,1.09.82,1.35,2.32.55,3.43-.02.02-.09.12-.11.14-.49.63-1.23.97-1.98.97Zm4.6-6.05c-.54,0-1.08-.17-1.53-.53-1.09-.85-1.29-2.42-.44-3.51,0,0,.07-.09.08-.1.86-1.08,2.43-1.26,3.51-.41,1.08.86,1.26,2.43.41,3.51l-1.96-1.55,1.91,1.61c-.49.63-1.23.97-1.98.97Zm4.14-6.36c-.4,0-.8-.09-1.17-.29-1.22-.65-1.68-2.16-1.03-3.38.64-1.22,2.17-1.73,3.39-1.09,1.22.64,1.71,2.12,1.07,3.34l-.05.1c-.45.84-1.31,1.32-2.21,1.32Zm5.7-8.45l-4.68-1.77s.04-.11.05-.12c.51-1.28,1.96-1.9,3.25-1.39,1.28.51,1.91,1.97,1.39,3.25l-2.32-.93,2.31.96Zm.14-5.55c-.24,0-.48-.03-.73-.11-1.32-.4-2.07-1.8-1.67-3.12l.03-.11c.41-1.32,1.81-2.06,3.12-1.65,1.32.41,2.06,1.81,1.65,3.12l-.03.09c-.33,1.08-1.32,1.78-2.39,1.78Zm-781.57-6.36s-.07,0-.11,0l.11-2.5-.17,2.5c-1.38-.04-2.47-1.19-2.43-2.57.04-1.38,1.17-2.45,2.57-2.43.01,0,.12,0,.14,0,1.38.06,2.45,1.23,2.39,2.61-.06,1.34-1.17,2.39-2.5,2.39Zm7.47-.33c-1.16,0-2.2-.81-2.44-1.99-.28-1.35.58-2.68,1.94-2.96l.13-.03c1.35-.26,2.67.62,2.93,1.98.26,1.36-.62,2.67-1.98,2.93h-.06c-.17.05-.34.07-.51.07Zm775.87-.71c-.15,0-.3-.01-.46-.04-1.35-.25-2.25-1.53-2-2.88l.03-.17c.28-1.35,1.61-2.22,2.96-1.94,1.35.28,2.22,1.61,1.94,2.96l-2.45-.51,2.44.55c-.23,1.19-1.28,2.04-2.46,2.04Zm-790.83-.16c-.25,0-.51-.04-.77-.12l-.1-.03c-1.31-.42-2.03-1.83-1.61-3.15.42-1.31,1.83-2.03,3.15-1.61l.1.03c1.31.42,2.03,1.83,1.61,3.15-.34,1.06-1.32,1.73-2.38,1.73Zm22.46-.26c-1.29,0-2.38-.99-2.49-2.29-.11-1.38.91-2.58,2.28-2.7,1.37-.11,2.63.9,2.75,2.28.11,1.38-.86,2.58-2.23,2.69h-.1c-.07.01-.14.02-.21.02Zm-28.85-3.74c-.65,0-1.29-.25-1.78-.76l-.1-.11c-.94-1.02-.87-2.6.14-3.53,1.01-.94,2.6-.87,3.53.14.96,1,.94,2.6-.06,3.55-.49.47-1.12.7-1.74.7Zm798.58-3.3c-.14,0-.29-.01-.44-.04-1.36-.24-2.27-1.54-2.03-2.9l.02-.1c.24-1.36,1.55-2.26,2.9-2.02,1.36.24,2.26,1.54,2.02,2.9l-.02.09c-.21,1.21-1.27,2.07-2.46,2.07Zm-802.61-3.08c-.91,0-1.78-.49-2.22-1.35,0,0-.02-.03-.02-.04-.63-1.22-.17-2.76,1.06-3.39,1.22-.63,2.71-.19,3.35,1.03,0,0,.05.1.05.1.63,1.23.15,2.73-1.07,3.37-.37.19-.76.28-1.15.28Zm804.01-4.41c-.13,0-.26,0-.39-.03-1.36-.21-2.29-1.46-2.09-2.82,0-.02.02-.15.03-.17.24-1.36,1.55-2.26,2.9-2.02,1.36.24,2.26,1.54,2.02,2.9l-2.46-.44,2.46.47c-.2,1.23-1.27,2.11-2.47,2.11Zm-807.29-2.44c-.97,0-1.89-.57-2.3-1.52l-.04-.09c-.54-1.27.04-2.74,1.31-3.28,1.27-.54,2.74.04,3.28,1.31l.04.09c.54,1.27-.04,2.74-1.31,3.28-.32.14-.66.2-.98.2Zm808.32-5.08c-.08,0-.16,0-.24-.01-1.37-.13-2.37-1.33-2.25-2.7,0-.02.02-.15.02-.17.16-1.37,1.39-2.35,2.77-2.19,1.37.16,2.35,1.4,2.19,2.77l-2.48-.29,2.48.33c-.13,1.29-1.22,2.26-2.49,2.26Zm-810.8-2.15c-1.13,0-2.14-.75-2.4-1.9,0-.01-.03-.13-.03-.14-.28-1.35.58-2.68,1.94-2.96,1.35-.28,2.68.58,2.96,1.94.28,1.34-.56,2.71-1.9,3-.19.04-.37.06-.56.06Zm811.43-5.43s-.06,0-.09,0c-1.37-.05-2.45-1.18-2.41-2.56,0-.02,0-.15,0-.17.08-1.38,1.26-2.44,2.64-2.35,1.38.08,2.43,1.26,2.35,2.64l-2.5-.15,2.49.18c-.06,1.34-1.17,2.4-2.5,2.4Zm-812.41-2.1c-1.3,0-2.38-.96-2.48-2.27,0-.01,0-.12,0-.14-.08-1.38.97-2.56,2.35-2.64,1.4-.08,2.56.97,2.64,2.35.08,1.37-.96,2.6-2.33,2.69-.06,0-.12,0-.17,0Zm812.39-5.49c-1.31,0-2.41-1.01-2.49-2.34v-.17c-.05-1.38,1.04-2.53,2.42-2.57.02,0,.05,0,.08,0,1.35,0,2.46,1.07,2.5,2.43l-2.5.07,2.5-.04c.06,1.37-1,2.55-2.37,2.62-.04,0-.09,0-.13,0Zm-812.47-2.1s-.07,0-.11,0c-1.38-.06-2.45-1.18-2.39-2.56,0,0,0-.06,0-.07.07-1.38,1.24-2.45,2.62-2.39,1.38.07,2.44,1.21,2.38,2.58-.06,1.34-1.17,2.44-2.5,2.44Zm811.97-5.47c-1.28,0-2.37-.98-2.49-2.28-.16-1.37.82-2.63,2.19-2.79,1.36-.16,2.61.81,2.77,2.18l.02.17c.12,1.38-.9,2.59-2.27,2.71-.07,0-.15,0-.22,0Zm-811.17-2.04c-.12,0-.25,0-.37-.03-1.37-.2-2.31-1.48-2.1-2.84,0,0,0-.06,0-.06.21-1.36,1.49-2.31,2.85-2.11,1.36.21,2.3,1.45,2.1,2.81,0,0-.02.1-.02.1-.19,1.24-1.25,2.13-2.47,2.13Zm809.83-5.46c-1.12,0-2.13-.75-2.41-1.88,0-.03-.04-.15-.04-.18-.28-1.35.58-2.68,1.94-2.96,1.35-.28,2.68.58,2.96,1.94l-2.45.51,2.45-.48c.29,1.34-.54,2.68-1.87,2.99-.19.05-.39.07-.58.07Zm-808.38-2.03c-.18,0-.36-.02-.54-.06-1.35-.3-2.2-1.61-1.9-2.96l.03-.14c.33-1.34,1.68-2.17,3.02-1.84,1.34.33,2.17,1.68,1.84,3.02-.26,1.17-1.3,1.98-2.46,1.98Zm806.6-5.35c-1.1,0-2.1-.72-2.4-1.83,0-.02-.04-.14-.04-.17-.33-1.34.5-2.69,1.84-3.02,1.34-.32,2.69.5,3.02,1.84l-2.43.59,2.44-.56c.34,1.33-.45,2.7-1.78,3.05-.22.06-.44.08-.65.08Zm-804.57-1.94c-.27,0-.54-.04-.8-.13-1.31-.44-2.01-1.86-1.57-3.17l.02-.06c.42-1.31,1.83-2.03,3.15-1.61,1.31.42,2.03,1.83,1.61,3.15l-.04.13c-.35,1.04-1.33,1.7-2.37,1.7Zm802.52-5.36c-1.07,0-2.06-.69-2.39-1.77-.44-1.31.25-2.74,1.56-3.18,1.31-.44,2.72.24,3.17,1.55l.05.16c.41,1.32-.33,2.72-1.65,3.12-.25.08-.49.11-.74.11Zm-799.75-1.77c-.32,0-.65-.06-.96-.2-1.26-.55-1.87-1.97-1.33-3.23,0,0,.04-.1.05-.1.55-1.27,2.02-1.84,3.29-1.29,1.27.55,1.85,2.02,1.29,3.29-.41.95-1.36,1.54-2.34,1.54Zm797.02-5.32c-.99,0-1.92-.59-2.32-1.56-.53-1.28.06-2.78,1.34-3.3,1.28-.52,2.72.04,3.25,1.32l.04.11c.52,1.28-.1,2.74-1.38,3.26-.31.12-.63.18-.94.18Zm-793.72-1.53c-.42,0-.85-.11-1.24-.34-1.19-.7-1.61-2.19-.91-3.37,0,0,.06-.09.06-.1.7-1.19,2.24-1.58,3.43-.87,1.19.7,1.58,2.24.88,3.43-.47.8-1.33,1.26-2.21,1.26Zm790.75-5.47c-.96,0-1.87-.55-2.29-1.49-.57-1.26-.03-2.78,1.23-3.35,1.26-.57,2.72-.05,3.29,1.21l.05.1c.56,1.26,0,2.74-1.27,3.3-.33.15-.67.22-1.01.22Zm-786.62-.91c-.48,0-.96-.14-1.38-.42-1.14-.78-1.46-2.29-.69-3.43,0,0,.06-.09.06-.09.78-1.14,2.34-1.43,3.48-.65,1.14.78,1.43,2.34.65,3.47-.49.72-1.3,1.12-2.12,1.12Zm783.32-5.94c-.9,0-1.77-.49-2.22-1.34-.65-1.22-.21-2.77,1.01-3.42,1.22-.65,2.71-.22,3.36.99l.05.1c.64,1.22.17,2.73-1.05,3.38-.37.19-.77.29-1.16.29Zm-778.98-.24c-.5,0-1.01-.15-1.45-.47-1.12-.8-1.38-2.36-.58-3.49l.05-.07c.8-1.13,2.36-1.39,3.49-.59,1.13.8,1.39,2.36.59,3.48l-.06.09c-.49.68-1.26,1.05-2.04,1.05Zm4.5-6.12c-.54,0-1.08-.17-1.53-.53-1.09-.85-1.29-2.42-.44-3.51l1.97,1.53-1.94-1.57c.83-1.11,2.39-1.33,3.5-.51,1.11.83,1.34,2.39.51,3.5l-.09.12c-.49.63-1.23.97-1.98.97Zm770.71-.26c-.83,0-1.63-.41-2.1-1.17-.01-.02-.08-.13-.09-.16-.69-1.2-.28-2.72.92-3.41,1.19-.69,2.72-.28,3.41.92l-2.17,1.25,2.18-1.22c.7,1.18.33,2.72-.84,3.43-.41.25-.86.37-1.31.37Zm-765.87-5.65c-.59,0-1.17-.2-1.64-.62-1.03-.92-1.15-2.45-.24-3.48,0,0,.07-.08.08-.09.92-1.03,2.51-1.11,3.53-.19,1.03.92,1.11,2.5.19,3.53-.5.56-1.21.85-1.91.85Zm761.88-.82c-.8,0-1.58-.38-2.06-1.1l-.1-.15c-.73-1.17-.37-2.71.81-3.44,1.17-.73,2.71-.37,3.44.81l-2.12,1.32,2.14-1.29c.74,1.16.42,2.71-.73,3.45-.43.28-.9.41-1.38.41Zm-756.67-4.64c-.64,0-1.28-.24-1.77-.73-.98-.98-.98-2.56,0-3.54l1.77,1.77-1.72-1.82c.97-.99,2.55-1,3.54-.04.99.97,1,2.55.04,3.54,0,0-.08.08-.09.09-.49.49-1.13.73-1.77.73Zm752.53-1.72c-.78,0-1.54-.36-2.03-1.04-.01-.02-.08-.11-.09-.13-.78-1.14-.48-2.7.67-3.47,1.14-.77,2.7-.48,3.47.67l-2.07,1.4,2.09-1.37c.79,1.13.53,2.69-.59,3.48-.44.31-.95.46-1.45.46Zm-747.03-3.56c-.67,0-1.34-.27-1.83-.8-.93-1.02-.89-2.58.13-3.52l.11-.1c1.03-.91,2.61-.82,3.53.22.91,1.03.82,2.61-.22,3.53-.48.45-1.1.67-1.72.67Zm742.35-2.41c-.71,0-1.42-.3-1.91-.89-.92-1.03-.85-2.61.17-3.54,1.02-.93,2.6-.85,3.52.17l.12.13c.89,1.05.76,2.63-.29,3.52-.47.4-1.04.59-1.61.59Zm-736.67-2.68c-.7,0-1.39-.28-1.87-.84-.91-1.04-.84-2.58.19-3.49,0,0,.09-.08.09-.08,1.04-.9,2.62-.79,3.53.25.9,1.04.79,2.62-.25,3.53-.48.42-1.08.62-1.68.62Zm731.67-3.04c-.71,0-1.42-.3-1.91-.89-.92-1.03-.85-2.61.17-3.54,1.02-.92,2.6-.85,3.52.17l.12.13c.89,1.05.76,2.63-.29,3.52-.47.4-1.04.59-1.61.59Zm-725.94-1.95c-.7,0-1.39-.28-1.88-.85-.9-1.04-.83-2.59.22-3.49l.08-.07c1.05-.9,2.62-.79,3.53.26.9,1.04.79,2.62-.26,3.53-.48.42-1.08.62-1.68.62Zm720.78-3.64c-.67,0-1.35-.27-1.84-.81-.97-.99-.96-2.58.03-3.54.99-.97,2.56-.96,3.53.03l.12.13c.93,1.02.87,2.6-.15,3.53-.48.44-1.09.66-1.69.66Zm-715.04-1.27c-.71,0-1.42-.3-1.91-.89-.89-1.05-.76-2.63.29-3.52l1.61,1.91-1.58-1.94c1.04-.91,2.62-.81,3.53.22.91,1.04.81,2.61-.22,3.53-.01.01-.1.09-.12.1-.47.4-1.04.59-1.61.59Zm709.62-4.07c-.56,0-1.12-.19-1.58-.57l-.14-.12c-1.03-.92-1.13-2.49-.22-3.53.91-1.03,2.5-1.13,3.53-.22l-1.66,1.87,1.67-1.86c1.05.89,1.2,2.46.32,3.52-.5.59-1.21.9-1.92.9Zm-703.84-.86c-.71,0-1.42-.3-1.91-.89-.89-1.05-.76-2.63.29-3.52l.06-.05c1.04-.9,2.62-.79,3.53.25.9,1.04.79,2.62-.25,3.53l-.1.08c-.47.4-1.04.59-1.61.59Zm698.11-4.12c-.6,0-1.19-.21-1.67-.64-1.02-.91-1.15-2.51-.25-3.53.9-1.03,2.42-1.18,3.46-.3.02.02.11.1.13.12,1.03.92,1.11,2.5.19,3.53-.49.55-1.18.83-1.86.83Zm-692.29-.83c-.71,0-1.41-.29-1.9-.87-.89-1.05-.79-2.61.26-3.5l.09-.08c1.06-.88,2.64-.74,3.52.33.88,1.06.74,2.64-.33,3.52-.48.4-1.07.6-1.65.6Zm686.55-4.18c-.57,0-1.15-.2-1.62-.6-.02-.02-.11-.1-.13-.12-1.02-.94-1.08-2.52-.15-3.53.94-1.02,2.52-1.08,3.53-.15l-1.69,1.84,1.72-1.82c1.02.92,1.13,2.5.22,3.53-.5.56-1.19.85-1.88.85Zm-680.74-.66c-.72,0-1.43-.31-1.92-.9-.88-1.06-.74-2.64.33-3.52,0,0,.03-.03.04-.03,1.06-.87,2.65-.75,3.53.31.88,1.06.77,2.6-.28,3.49,0,0-.09.07-.1.08-.47.39-1.03.58-1.6.58Zm5.95-4.82c-.75,0-1.5-.33-1.99-.97-.84-1.1-.66-2.63.43-3.47l1.52,1.99-1.49-2.01,1.57,1.95,1.51,1.99c-.46.35-1.01.52-1.55.52Zm667.53-.29c-1.02-.92-1.15-2.53-.23-3.56.92-1.03,2.45-1.15,3.48-.24l-1.66,1.87,1.68-1.85-1.6,1.92-1.67,1.86Zm-661.25-3.9c-.84,0-1.65-.42-2.13-1.18-.73-1.17-.37-2.71.81-3.44l.06-.04c1.17-.74,2.71-.4,3.45.76.74,1.16.4,2.71-.76,3.45l-.11.07c-.41.25-.87.38-1.32.38Zm656.87-.05c-.48,0-.97-.14-1.4-.43,0,0-.1-.07-.11-.07-1.13-.79-1.41-2.35-.62-3.48.79-1.13,2.35-1.41,3.48-.62l-1.43,2.05,1.49-2.01c1.14.78,1.44,2.33.67,3.47-.48.71-1.27,1.1-2.07,1.1Zm-650.37-4.01c-.85,0-1.68-.41-2.14-1.18-.72-1.17-.4-2.68.77-3.4,0,0,.1-.06.11-.07,1.18-.71,2.72-.33,3.43.85s.33,2.72-.85,3.43c-.41.25-.87.37-1.32.37Zm644-.14c-.46,0-.93-.13-1.35-.4-1.16-.75-1.54-2.32-.8-3.48.75-1.16,2.25-1.53,3.41-.79,0,0,.09.06.09.06,1.16.75,1.5,2.29.75,3.46-.48.74-1.28,1.15-2.1,1.15Zm-637.52-3.83c-.85,0-1.69-.42-2.16-1.2-.71-1.18-.37-2.69.81-3.4l1.29,2.14-1.27-2.15,1.35,2.1,1.28,2.15c-.41.24-.86.36-1.31.36Zm631.16-.37c-.45,0-.91-.12-1.32-.39-.01,0-.08-.05-.09-.06-1.15-.76-1.48-2.32-.72-3.47.76-1.15,2.29-1.48,3.44-.73,0,0,.04.03.04.03,1.14.76,1.49,2.31.74,3.46-.48.74-1.28,1.15-2.09,1.15Zm-624.71-3.53c-.85,0-1.69-.44-2.15-1.23-.7-1.19-.31-2.72.88-3.43l.06-.04c1.18-.72,2.72-.35,3.44.83.72,1.18.35,2.72-.83,3.44l-.11.07c-.4.24-.84.35-1.27.35Zm618.33-.55c-.44,0-.89-.12-1.29-.36,0,0-.1-.06-.11-.07-1.17-.73-1.53-2.27-.81-3.44.73-1.17,2.27-1.54,3.44-.81l-1.32,2.12,1.38-2.09c1.18.71,1.56,2.25.85,3.43-.47.78-1.3,1.21-2.14,1.21Zm-611.75-3.39c-.86,0-1.7-.43-2.17-1.21-.7-1.19-.35-2.69.83-3.4,0,0,.09-.06.1-.06,1.19-.7,2.72-.3,3.42.89.7,1.19.3,2.72-.89,3.42-.4.24-.85.35-1.3.35Zm605.17-.4c-.39,0-.78-.09-1.14-.28l-.09-.05c-1.23-.63-1.71-2.14-1.07-3.37.63-1.23,2.14-1.71,3.37-1.07l.09.05c1.23.63,1.71,2.14,1.08,3.37-.44.86-1.32,1.35-2.22,1.35Zm-6.87-3.24c-.34,0-.69-.07-1.03-.22l-.12-.06c-1.25-.58-1.79-2.07-1.21-3.32.58-1.25,2.07-1.79,3.32-1.21l.06.03c1.26.57,1.82,2.05,1.25,3.31-.42.92-1.33,1.47-2.28,1.47Zm-591.79-.15c-.87,0-1.72-.46-2.18-1.27-.68-1.2-.26-2.73.94-3.41l.05-.03c1.19-.7,2.72-.3,3.42.89.7,1.19.3,2.72-.89,3.42l-.12.07c-.39.22-.81.33-1.23.33Zm584.89-3.06c-.38,0-.76-.08-1.12-.26-1.22-.61-1.77-2.11-1.18-3.35.6-1.23,2.02-1.78,3.26-1.2.02,0,.13.06.15.07,1.23.62,1.74,2.12,1.12,3.35-.44.88-1.32,1.38-2.24,1.38Zm-578.27-.67c-.88,0-1.74-.47-2.19-1.3-.67-1.21-.22-2.73.99-3.4l.09-.05c1.21-.67,2.73-.22,3.4.99.67,1.21.22,2.73-.99,3.4l-.09.05c-.38.21-.8.31-1.2.31Zm571.46-2.72c-.37,0-.75-.08-1.11-.26l-.15-.08c-1.22-.65-1.68-2.16-1.03-3.38.65-1.22,2.16-1.68,3.38-1.03l-1.18,2.21,1.21-2.19c1.22.63,1.72,2.13,1.1,3.36-.44.87-1.32,1.38-2.23,1.38Zm-564.69-.88c-.92,0-1.81-.49-2.25-1.35-.62-1.22-.18-2.7,1.04-3.33,0,0,.11-.06.12-.06,1.24-.62,2.74-.12,3.35,1.12.62,1.23.12,2.74-1.12,3.35-.37.18-.76.27-1.14.27Zm557.91-2.56c-.39,0-.78-.09-1.15-.28-1.24-.6-1.78-2.1-1.18-3.35.6-1.24,2.08-1.77,3.32-1.17l.15.07c1.23.63,1.71,2.14,1.07,3.37-.44.86-1.32,1.35-2.22,1.35Zm-551.18-.81c-.93,0-1.82-.52-2.25-1.41-.6-1.24-.08-2.74,1.16-3.34l.06-.03c1.24-.62,2.74-.12,3.35,1.12.62,1.23.12,2.74-1.12,3.35l-.12.06c-.35.17-.72.25-1.09.25Zm544.34-2.5c-.37,0-.74-.08-1.09-.25-1.24-.6-1.8-2.1-1.21-3.35.59-1.24,2.02-1.8,3.27-1.21,0,0,.11.05.12.06,1.24.6,1.76,2.1,1.16,3.34-.43.89-1.32,1.41-2.25,1.41Zm-537.49-.79c-.94,0-1.84-.53-2.27-1.44-.58-1.25-.04-2.74,1.21-3.32l.09-.04c1.25-.58,2.74-.04,3.32,1.21.58,1.25.04,2.74-1.21,3.32l-.09.04c-.34.16-.7.24-1.06.24Zm530.57-2.35c-.32,0-.65-.06-.97-.2,0,0-.11-.05-.12-.05-1.27-.55-1.85-2.02-1.29-3.29.55-1.27,2.02-1.84,3.29-1.29l-1,2.29,1.06-2.26c1.27.54,1.87,2,1.33,3.27-.4.96-1.33,1.53-2.3,1.53Zm-523.67-.83c-.95,0-1.86-.55-2.28-1.47-.57-1.26,0-2.74,1.25-3.31l1.03,2.28-.97-2.31c1.25-.58,2.74-.04,3.32,1.21s.04,2.74-1.21,3.32c-.01,0-.11.05-.12.06-.33.15-.68.22-1.03.22Zm516.61-2c-.3,0-.6-.05-.9-.17,0,0-.1-.04-.1-.04-1.29-.5-1.92-1.95-1.42-3.24.5-1.29,1.95-1.92,3.24-1.42l-.91,2.33,1-2.3c1.29.5,1.93,1.95,1.43,3.23-.38.99-1.33,1.6-2.33,1.6Zm-509.65-1.13c-.96,0-1.87-.54-2.29-1.46-.57-1.26-.03-2.73,1.23-3.3l.15-.07c1.27-.54,2.74.06,3.28,1.33.54,1.27-.06,2.74-1.33,3.27-.34.15-.69.22-1.04.22Zm502.58-1.64c-.32,0-.65-.06-.97-.19-1.26-.53-1.91-1.99-1.4-3.26.51-1.27,1.91-1.91,3.18-1.41.02,0,.13.05.15.06,1.27.53,1.87,2,1.34,3.27-.4.96-1.33,1.53-2.31,1.53Zm-495.57-1.42c-.98,0-1.92-.56-2.32-1.5-.54-1.26,0-2.71,1.25-3.26,0,0,.11-.05.12-.05,1.27-.54,2.74.06,3.28,1.33.54,1.27-.06,2.74-1.33,3.27-.32.14-.66.2-.99.2Zm488.56-1.52c-.32,0-.65-.06-.97-.2l-.15-.07c-1.26-.57-1.82-2.05-1.25-3.31.57-1.26,2.05-1.82,3.31-1.25l-1.03,2.28,1.07-2.26c1.26.55,1.86,2.01,1.32,3.28-.41.95-1.33,1.52-2.3,1.52Zm-481.56-1.46c-.99,0-1.94-.57-2.34-1.53-.53-1.27.03-2.71,1.29-3.24l.97,2.3-.95-2.31.1-.04c1.28-.52,2.74.1,3.26,1.38s-.1,2.74-1.38,3.26c-.31.13-.64.19-.96.19Zm474.66-1.71c-.35,0-.71-.08-1.06-.24l-.09-.04c-1.25-.58-1.79-2.07-1.21-3.32s2.07-1.79,3.32-1.21l.09.04c1.25.58,1.79,2.07,1.21,3.32-.42.91-1.33,1.44-2.27,1.44Zm-467.71-1.16c-1,0-1.94-.6-2.33-1.59-.5-1.29.13-2.74,1.42-3.24l.91,2.33-.86-2.35,1.88,4.63s-.11.04-.12.05c-.3.12-.61.17-.91.17Zm460.82-2.06c-.35,0-.71-.08-1.06-.24l-.09-.04c-1.25-.58-1.79-2.07-1.21-3.32.58-1.25,2.07-1.79,3.32-1.21l.09.04c1.25.58,1.79,2.07,1.21,3.32-.42.91-1.33,1.44-2.27,1.44Zm-453.68-.77c-1.01,0-1.97-.59-2.36-1.58-.5-1.29.09-2.71,1.37-3.22,0,0,.1-.04.1-.04,1.29-.5,2.73.14,3.23,1.43.5,1.29-.14,2.74-1.43,3.23-.3.12-.61.17-.92.17Zm446.78-2.42c-.32,0-.65-.06-.97-.2l-.15-.07c-1.26-.57-1.82-2.05-1.25-3.31.57-1.26,2.05-1.82,3.31-1.25l-1.03,2.28,1.07-2.26c1.26.55,1.86,2.01,1.32,3.28-.41.95-1.33,1.52-2.3,1.52Zm-439.76-.27c-1.01,0-1.96-.62-2.34-1.62-.48-1.29.17-2.73,1.46-3.22l.09-.04c1.29-.48,2.73.17,3.22,1.46s-.17,2.73-1.46,3.22l-.09.04c-.29.11-.59.16-.88.16Zm7.22-2.64c-1.03,0-2.02-.62-2.38-1.64-.47-1.3.16-2.71,1.46-3.18l.09-.03c1.3-.47,2.73.21,3.2,1.51.47,1.3-.21,2.73-1.51,3.2-.28.1-.57.15-.86.15Zm425.54-.02c-.31,0-.63-.06-.93-.18-1.28-.51-1.94-1.98-1.44-3.26.51-1.28,1.9-1.93,3.19-1.42,0,0,.11.04.12.05,1.28.52,1.9,1.97,1.38,3.25-.39.97-1.33,1.57-2.32,1.57Zm-418.45-2.47c-1.04,0-2.01-.65-2.36-1.69-.45-1.31.25-2.73,1.55-3.18l.08-.03c1.3-.45,2.73.23,3.18,1.54.46,1.3-.23,2.73-1.54,3.18l-.1.04c-.27.09-.54.14-.81.14Zm411.33-.22c-.28,0-.56-.05-.84-.15-1.3-.47-2.02-1.92-1.55-3.22.47-1.3,1.85-1.99,3.15-1.52,0,0,.06.02.06.02,1.29.47,1.98,1.91,1.51,3.21-.37,1.02-1.32,1.65-2.33,1.65Zm-404.04-2.22c-1.06,0-2.07-.66-2.41-1.72-.42-1.31.24-2.7,1.55-3.13,0,0,.11-.04.12-.04,1.32-.42,2.72.31,3.14,1.62.42,1.32-.31,2.72-1.62,3.14-.25.08-.52.12-.77.12Zm396.89-.32c-.26,0-.53-.04-.79-.13l-.12-.04c-1.31-.45-2-1.87-1.55-3.18s1.87-2,3.18-1.55l.07.02c1.31.44,2.02,1.85,1.58,3.16-.35,1.05-1.33,1.71-2.37,1.71Zm-389.73-1.94c-1.07,0-2.06-.7-2.39-1.78-.4-1.32.35-2.72,1.67-3.12l.72,2.39-.68-2.41c1.31-.42,2.72.3,3.15,1.61s-.28,2.72-1.59,3.15l-.15.05c-.24.07-.49.11-.73.11Zm382.54-.54c-.26,0-.53-.04-.79-.13l-.15-.05c-1.3-.47-1.97-1.9-1.51-3.2s1.9-1.97,3.2-1.51l-.85,2.35.89-2.34c1.31.44,2.01,1.86,1.57,3.17-.35,1.04-1.32,1.71-2.37,1.71Zm-375.19-1.7c-1.08,0-2.1-.69-2.43-1.77-.4-1.32.3-2.7,1.62-3.1,0,0,.1-.03.11-.03,1.32-.4,2.72.36,3.11,1.69.39,1.32-.36,2.72-1.68,3.11-.24.07-.48.11-.73.11Zm368.02-.83c-.27,0-.54-.04-.81-.14-.01,0-.12-.04-.13-.04-1.3-.47-1.97-1.9-1.51-3.2s1.9-1.97,3.2-1.51l-.85,2.35.91-2.33c1.31.45,2,1.87,1.55,3.18-.36,1.04-1.33,1.69-2.36,1.69Zm-360.82-1.3c-1.09,0-2.09-.71-2.4-1.81-.38-1.33.38-2.71,1.71-3.09l.69,2.4-.62-2.42c1.32-.4,2.72.36,3.11,1.69.39,1.32-.36,2.72-1.68,3.11,0,0-.11.03-.12.03-.23.07-.46.1-.69.1Zm353.64-1.21c-.27,0-.55-.04-.82-.14-1.31-.45-2.04-1.89-1.59-3.19.45-1.31,1.83-2.01,3.13-1.57l.1.04c1.3.45,1.99,1.88,1.54,3.18-.36,1.03-1.33,1.68-2.36,1.68Zm-346.33-.87c-1.1,0-2.11-.73-2.41-1.84-.36-1.33.42-2.71,1.75-3.07l.06-.02c1.33-.38,2.71.38,3.09,1.71s-.38,2.71-1.71,3.09l-.13.04c-.22.06-.44.09-.66.09Zm339.13-1.56c-.26,0-.52-.04-.78-.12-1.32-.42-2.08-1.84-1.66-3.15s1.79-2.06,3.1-1.64l.12.04c1.31.43,2.03,1.84,1.6,3.15-.34,1.05-1.32,1.72-2.38,1.72Zm-331.71-.43c-1.12,0-2.17-.74-2.46-1.87-.34-1.34.41-2.69,1.75-3.03l.1-.02c1.34-.34,2.7.46,3.04,1.8.34,1.34-.46,2.7-1.8,3.04-.21.05-.42.08-.64.08Zm324.4-1.65c-.19,0-.38-.02-.57-.07l-.15-.04c-1.34-.34-2.14-1.71-1.8-3.04.34-1.34,1.71-2.14,3.04-1.8h.05c1.34.33,2.18,1.67,1.86,3.02-.27,1.15-1.3,1.93-2.43,1.93Zm-317.09-.09c-1.14,0-2.17-.79-2.44-1.95-.31-1.35.54-2.69,1.88-2.99l.08-.02c1.34-.32,2.69.52,3.01,1.86.32,1.34-.52,2.69-1.86,3.01l-.12.03c-.19.04-.37.06-.56.06Zm309.68-1.58c-.15,0-.31-.01-.47-.04-.01,0-.1-.02-.11-.02-1.35-.28-2.23-1.6-1.95-2.96.28-1.35,1.58-2.22,2.94-1.95,0,0,.02,0,.03,0,1.34.28,2.25,1.6,1.98,2.94-.24,1.19-1.25,2.02-2.42,2.02Zm-302.25-.03c-1.16,0-2.2-.81-2.45-2-.28-1.35.59-2.67,1.94-2.95,0,0,.06-.01.06-.01,1.35-.27,2.69.6,2.97,1.95s-.57,2.66-1.92,2.94l-.1.02c-.17.03-.34.05-.51.05Zm7.49-1.28c-1.22,0-2.29-.89-2.47-2.14-.2-1.37.74-2.64,2.11-2.84l.36,2.47-.28-2.49c1.36-.21,2.64.73,2.85,2.1.21,1.37-.73,2.64-2.1,2.85,0,0-.11.02-.11.02-.12.02-.25.03-.37.03Zm287.3-.11c-.15,0-.3-.01-.45-.04-1.36-.24-2.31-1.54-2.07-2.9.24-1.36,1.49-2.28,2.85-2.04l.11.02c1.36.25,2.26,1.55,2.01,2.91-.22,1.21-1.27,2.05-2.46,2.05Zm-279.77-.93c-1.24,0-2.31-.92-2.48-2.17-.18-1.37.78-2.63,2.15-2.81l.33,2.48-.24-2.49c1.37-.18,2.63.77,2.81,2.14.19,1.37-.77,2.63-2.14,2.81,0,0-.11.01-.11.01-.11.01-.22.02-.33.02Zm272.28-.36c-.15,0-.3-.01-.45-.04-1.35-.24-2.3-1.54-2.07-2.89.23-1.35,1.46-2.28,2.81-2.05l.15.02c1.36.25,2.26,1.55,2.01,2.91-.22,1.21-1.27,2.05-2.46,2.05Zm-264.75-.65c-1.24,0-2.31-.92-2.48-2.17-.18-1.37.78-2.63,2.15-2.81l.33,2.48-.28-2.49c1.37-.21,2.64.73,2.85,2.1.21,1.37-.73,2.64-2.1,2.85-.01,0-.13.02-.14.02-.11.01-.22.02-.33.02Zm257.25-.6c-.14,0-.27-.01-.41-.03-1.36-.23-2.33-1.52-2.11-2.88.22-1.36,1.45-2.29,2.82-2.07,0,0,.11.02.11.02,1.36.23,2.28,1.51,2.05,2.88-.2,1.22-1.26,2.09-2.46,2.09Zm-249.63-.48c-1.23,0-2.34-.9-2.52-2.14-.19-1.36.7-2.62,2.06-2.82,0,0,.12-.02.12-.02,1.37-.18,2.63.77,2.82,2.14.19,1.37-.77,2.63-2.14,2.81-.12.02-.23.02-.34.02Zm242.13-.74c-.14,0-.27-.01-.41-.03-1.35-.23-2.32-1.51-2.11-2.86.21-1.35,1.43-2.29,2.78-2.09.02,0,.13.02.15.02,1.36.23,2.28,1.51,2.05,2.88-.2,1.22-1.26,2.09-2.46,2.09Zm-234.71-.34c-1.22,0-2.29-.89-2.47-2.14-.2-1.37.74-2.64,2.11-2.84l.36,2.47-.28-2.49c1.37-.21,2.64.73,2.85,2.1.21,1.37-.73,2.64-2.1,2.85,0,0-.11.02-.11.02-.12.02-.25.03-.37.03Zm227.17-.63c-.09,0-.17,0-.26-.01l-.14-.02c-1.37-.16-2.35-1.4-2.19-2.77.16-1.37,1.4-2.36,2.78-2.19h.06c1.37.15,2.37,1.38,2.23,2.75-.13,1.29-1.22,2.24-2.48,2.24Zm-219.65-.48c-1.22,0-2.29-.89-2.47-2.14-.2-1.37.74-2.64,2.11-2.84l.36,2.47-.28-2.49c1.36-.21,2.64.73,2.85,2.1.21,1.37-.73,2.64-2.1,2.85,0,0-.11.02-.11.02-.12.02-.25.03-.37.03Zm212.09-.28c-.09,0-.17,0-.26-.01-1.38-.12-2.42-1.34-2.3-2.71.12-1.38,1.31-2.4,2.68-2.27h.14c1.37.15,2.37,1.38,2.23,2.76-.13,1.29-1.22,2.24-2.48,2.24Zm-7.57-.66c-.06,0-.12,0-.19,0-.01,0-.12-.01-.14-.01-1.38-.12-2.39-1.33-2.27-2.71.12-1.38,1.34-2.4,2.71-2.27l-.22,2.49.28-2.48c1.38.1,2.41,1.3,2.31,2.68-.1,1.31-1.19,2.32-2.49,2.32Zm-196.9-.17c-1.23,0-2.34-.9-2.52-2.14-.19-1.36.7-2.62,2.06-2.82,0,0,.12-.02.12-.02,1.36-.19,2.63.77,2.82,2.14s-.77,2.63-2.14,2.81c-.12.02-.23.02-.34.02Zm189.32-.43c-.07,0-.15,0-.22,0-1.37-.12-2.43-1.33-2.32-2.7.11-1.37,1.26-2.4,2.63-2.3.01,0,.12,0,.14.01,1.38.12,2.39,1.33,2.27,2.71-.11,1.3-1.21,2.28-2.49,2.28Zm-7.58-.61c-.06,0-.12,0-.19,0-.01,0-.12-.01-.14-.01-1.38-.12-2.39-1.33-2.27-2.71.12-1.38,1.33-2.4,2.71-2.27l-.22,2.49.28-2.48c1.38.1,2.41,1.3,2.31,2.68-.1,1.31-1.19,2.32-2.49,2.32Zm-174.32,0c-1.24,0-2.31-.92-2.48-2.17-.18-1.37.78-2.63,2.15-2.81h.06c1.36-.21,2.64.74,2.84,2.1.2,1.37-.74,2.64-2.11,2.84l-.13.02c-.11.01-.22.02-.33.02Zm166.77-.86c-.12,0-.24,0-.37-.03-1.37-.18-2.36-1.44-2.18-2.81.18-1.37,1.4-2.33,2.77-2.15l.14.02c1.37.2,2.31,1.47,2.11,2.84-.18,1.24-1.25,2.14-2.47,2.14Zm-159.17-.15c-1.24,0-2.34-.91-2.5-2.17-.18-1.37.75-2.62,2.12-2.8l.14-.02c1.36-.16,2.61.82,2.77,2.19.16,1.37-.82,2.61-2.19,2.77-.11.01-.22.02-.33.02Zm7.48-.89c-1.27,0-2.35-.96-2.48-2.24-.14-1.37.86-2.6,2.23-2.74h.06c1.36-.17,2.61.81,2.77,2.18.16,1.37-.82,2.61-2.19,2.77h-.14c-.09.02-.17.03-.26.03Zm144.17-.03c-.11,0-.22,0-.34-.02-.02,0-.11-.02-.12-.02-1.35-.21-2.3-1.46-2.11-2.82.19-1.35,1.41-2.31,2.77-2.14.05,0,.12.02.17.03,1.37.18,2.3,1.44,2.12,2.81-.17,1.25-1.26,2.16-2.5,2.16Zm-136.49-.61c-1.31,0-2.45-1.01-2.54-2.33-.09-1.37.89-2.55,2.26-2.65.01,0,.12,0,.14,0,1.39-.08,2.56.97,2.64,2.35.08,1.38-.97,2.56-2.35,2.64-.05,0-.1,0-.15,0Zm128.96-.37c-.1,0-.2,0-.29-.02-1.37-.14-2.4-1.37-2.26-2.75.14-1.37,1.33-2.38,2.71-2.23h.14c1.37.18,2.35,1.42,2.19,2.79-.15,1.27-1.23,2.21-2.48,2.21Zm-121.37-.11c-1.32,0-2.46-1.02-2.54-2.35-.08-1.38.92-2.56,2.3-2.64h.1c1.39-.09,2.56.97,2.64,2.34.08,1.38-.97,2.56-2.35,2.64-.05,0-.1,0-.15,0Zm7.58-.47c-1.31,0-2.45-1.01-2.54-2.33-.09-1.37.89-2.55,2.26-2.65.01,0,.12,0,.14,0,1.4-.09,2.56.97,2.64,2.35.08,1.38-.97,2.56-2.35,2.64-.05,0-.1,0-.15,0Zm106.21-.04s-.07,0-.11,0c-1.38-.06-2.5-1.23-2.44-2.61.06-1.38,1.16-2.46,2.56-2.39h.1c1.38.07,2.45,1.23,2.39,2.61-.06,1.34-1.17,2.39-2.5,2.39Zm-7.6-.19s-.05,0-.07,0c-1.38-.02-2.52-1.16-2.5-2.54.02-1.38,1.12-2.45,2.5-2.46h.13c1.38.04,2.47,1.19,2.43,2.57-.04,1.36-1.15,2.43-2.5,2.43Zm-7.6-.15s-.05,0-.08,0c-1.37-.04-2.51-1.18-2.48-2.56.03-1.37,1.08-2.49,2.49-2.45.01,0,.12,0,.14,0,1.38.04,2.47,1.19,2.43,2.57-.04,1.35-1.15,2.43-2.5,2.43Zm-7.6-.16s-.05,0-.07,0c-1.38-.04-2.52-1.19-2.48-2.57.04-1.38,1.18-2.44,2.52-2.43h.1c1.38.04,2.47,1.2,2.43,2.58-.04,1.36-1.15,2.43-2.5,2.43Zm-75.94-.02c-1.3,0-2.39-1-2.49-2.32-.1-1.38.93-2.58,2.31-2.68l.18,2.49-.12-2.5c1.39-.13,2.59.9,2.71,2.27s-.9,2.59-2.27,2.71c-.01,0-.12,0-.14.01-.06,0-.12,0-.19,0Zm68.34-.28s-.07,0-.11,0c-.01,0-.12,0-.14,0-1.38-.08-2.43-1.26-2.35-2.64.08-1.38,1.25-2.43,2.64-2.35l-.15,2.5.21-2.49c1.38.06,2.45,1.23,2.39,2.61-.06,1.34-1.17,2.39-2.5,2.39Zm-60.67-.36c-1.29,0-2.42-.98-2.54-2.28-.12-1.38.85-2.58,2.22-2.71h.1c1.39-.14,2.59.89,2.71,2.26s-.9,2.59-2.27,2.71c-.08,0-.15,0-.22,0Zm53.09-.15c-.07,0-.15,0-.22,0-1.37-.12-2.43-1.33-2.32-2.7.11-1.37,1.26-2.4,2.63-2.3.01,0,.12,0,.14.01,1.38.12,2.39,1.33,2.27,2.71-.11,1.3-1.21,2.28-2.49,2.28Zm-45.52-.5c-1.29,0-2.43-.99-2.54-2.29-.11-1.37.85-2.57,2.22-2.69.01,0,.12-.01.14-.01,1.38-.11,2.58.93,2.68,2.31s-.93,2.58-2.31,2.68c-.06,0-.12,0-.19,0Zm37.94-.1c-.07,0-.15,0-.22,0-1.37-.12-2.43-1.33-2.32-2.7.11-1.37,1.25-2.41,2.63-2.3.01,0,.12,0,.14.01,1.38.12,2.39,1.33,2.27,2.71-.11,1.3-1.21,2.28-2.49,2.28Zm-30.36-.47c-1.31,0-2.45-1.01-2.54-2.33-.09-1.37.89-2.55,2.26-2.65.01,0,.12,0,.14,0,1.38-.09,2.56.97,2.64,2.35.08,1.38-.97,2.56-2.35,2.64-.05,0-.1,0-.15,0Zm22.78-.14c-.06,0-.12,0-.19,0-1.38-.1-2.46-1.3-2.36-2.68.1-1.38,1.25-2.42,2.63-2.31h.1c1.38.11,2.41,1.31,2.31,2.68-.1,1.31-1.19,2.32-2.49,2.32Zm-15.19-.27c-1.35,0-2.51-1.07-2.55-2.42-.04-1.38.99-2.52,2.37-2.57l.08,2.5-.08-2.5s.1,0,.11,0c1.41-.01,2.53,1.05,2.56,2.43.04,1.38-1.05,2.53-2.43,2.56-.02,0-.04,0-.07,0Zm7.6-.08s-.05,0-.08,0c-1.37-.04-2.51-1.18-2.48-2.56.03-1.37,1.13-2.49,2.49-2.45.01,0,.12,0,.14,0,1.38.04,2.47,1.19,2.43,2.57-.04,1.35-1.15,2.43-2.5,2.43Z"/>
      </g>
      <g id="uuid-1c4f4125-9784-494f-a775-dfefec6b86b7" data-name="STROKE 11845b7f-368c-4fe3-97cb-f5de5bc01157">
        <path class="uuid-4d72eeea-a997-4231-89a1-cf2add5be086" d="m797.75,294.58c-.07,0-.15,0-.22,0-1.38-.12-2.39-1.33-2.27-2.71.12-1.38,1.32-2.44,2.71-2.32,1.38.12,2.4,1.28,2.27,2.66v.1c-.12,1.3-1.21,2.28-2.5,2.28Zm.66-7.57c-.07,0-.15,0-.22,0-1.38-.12-2.39-1.33-2.27-2.71.12-1.38,1.31-2.45,2.71-2.32,1.38.12,2.4,1.28,2.27,2.66v.1c-.12,1.3-1.21,2.28-2.5,2.28Zm.66-7.57c-.07,0-.15,0-.22,0-1.38-.12-2.39-1.33-2.27-2.71.12-1.38,1.31-2.45,2.71-2.32,1.38.12,2.4,1.28,2.27,2.66v.1c-.12,1.3-1.21,2.28-2.5,2.28Zm.66-7.57c-.07,0-.15,0-.22,0-1.38-.12-2.39-1.33-2.27-2.71.12-1.38,1.31-2.45,2.71-2.32,1.38.12,2.4,1.28,2.27,2.66v.1c-.12,1.3-1.21,2.28-2.5,2.28Zm.66-7.57c-.07,0-.15,0-.22,0-1.38-.12-2.39-1.33-2.27-2.71.12-1.38,1.31-2.44,2.71-2.32,1.38.12,2.4,1.28,2.27,2.66v.1c-.12,1.3-1.21,2.28-2.5,2.28Zm.64-7.59c-.05,0-.11,0-.17,0-1.37-.09-2.41-1.25-2.33-2.62,0-.03.01-.15.01-.18.12-1.38,1.37-2.39,2.71-2.27,1.38.12,2.39,1.34,2.27,2.71l-2.49-.22,2.49.25c-.1,1.31-1.2,2.33-2.49,2.33Zm.77-7.52c-.26,0-.52-.04-.78-.13-1.31-.43-2.02-1.85-1.59-3.16.43-1.31,1.86-2.07,3.17-1.64,1.31.43,2.04,1.8,1.61,3.11l-.03.09c-.35,1.05-1.32,1.72-2.37,1.72Z"/>
      </g>
      <g id="uuid-9fd5b1e5-4532-47cb-8004-47fe972cbaa4" data-name="STROKE 741e61a2-f438-4fa5-83ad-a81919aa9439">
        <path class="uuid-4d72eeea-a997-4231-89a1-cf2add5be086" d="m798.38,298.34c-.59,0-1.19-.21-1.67-.64-1.03-.92-1.11-2.51-.19-3.54.04-.05.09-.1.15-.16.97-.99,2.55-1,3.54-.03.99.97,1,2.55.03,3.54-.49.55-1.17.83-1.86.83Zm5.82-4.98c-.72,0-1.44-.3-1.93-.9-.87-1.06-.76-2.6.3-3.48,0,0,.07-.06.08-.07,1.07-.86,2.66-.7,3.52.37.87,1.07.71,2.64-.36,3.51-.47.38-1.05.57-1.62.57Zm5.92-4.68c-.75,0-1.48-.33-1.98-.97-.85-1.09-.65-2.66.44-3.51l1.54,1.97-1.49-2.01c1.08-.87,2.65-.7,3.52.37.87,1.07.7,2.65-.37,3.52-.01,0-.1.08-.11.09-.46.35-1,.53-1.53.53Zm5.99-4.68c-.75,0-1.48-.33-1.98-.97-.85-1.09-.65-2.66.44-3.51l.08-.06c1.09-.85,2.66-.65,3.51.44.85,1.09.65,2.66-.44,3.51l-.08.06c-.46.35-1,.53-1.53.53Zm6.04-4.71c-.75,0-1.49-.33-1.98-.96-.84-1.09-.68-2.62.41-3.47,0,0,.09-.07.1-.08,1.1-.84,2.67-.62,3.5.48s.62,2.67-.48,3.5c-.46.35-1.01.52-1.55.52Zm6.02-4.64c-.75,0-1.49-.33-1.98-.96-.84-1.09-.68-2.62.41-3.47,0,0,.09-.07.1-.08,1.1-.84,2.67-.62,3.5.48.83,1.1.62,2.67-.48,3.5-.46.35-1.01.52-1.55.52Zm6.03-4.63c-.75,0-1.49-.33-1.98-.96-.84-1.09-.68-2.62.41-3.47,0,0,.09-.07.1-.08,1.1-.83,2.67-.62,3.5.48.83,1.1.62,2.67-.48,3.5-.46.35-1.01.52-1.55.52Zm6-4.57c-.75,0-1.5-.34-1.99-.99-.83-1.1-.62-2.67.48-3.5l1.51,1.99-1.46-2.03c1.09-.85,2.66-.65,3.51.44.85,1.09.65,2.66-.44,3.51,0,0-.09.07-.1.08-.45.34-.98.51-1.51.51Z"/>
      </g>
      <g id="uuid-7350f5a0-e4c8-4ff7-a46a-79c8d52768c9" data-name="STROKE 941f2189-f25a-44f2-994f-3f47776c11f6">
        <path class="uuid-4d72eeea-a997-4231-89a1-cf2add5be086" d="m324.41,811.96h-.1c-1.38,0-2.5-1.12-2.5-2.5s1.12-2.5,2.5-2.5h.1c1.38,0,2.5,1.12,2.5,2.5s-1.12,2.5-2.5,2.5Zm7.5-.03c-1.38,0-2.5-1.12-2.5-2.5s1.12-2.5,2.5-2.5v2.5l.03-2.5h.04c1.36,0,2.48,1.08,2.51,2.45.03,1.37-1.04,2.51-2.41,2.55h-.17Zm-15.1,0s-.05,0-.07,0c-1.37-.04-2.5-1.17-2.48-2.54.02-1.37,1.08-2.46,2.45-2.46.02,0,.15,0,.17,0,1.38.04,2.47,1.19,2.43,2.57-.04,1.36-1.15,2.43-2.5,2.43Zm-7.6-.07s-.05,0-.07,0c-1.37-.04-2.5-1.17-2.48-2.54.02-1.37,1.08-2.46,2.45-2.46.02,0,.15,0,.17,0,1.38.04,2.47,1.19,2.43,2.57-.04,1.36-1.15,2.43-2.5,2.43Zm30.32-.02c-1.35,0-2.47-1.07-2.51-2.43-.04-1.38,1.03-2.53,2.41-2.57h.17c1.38,0,2.5,1.12,2.5,2.5,0,1.41-1.16,2.51-2.58,2.5Zm-37.92-.11s-.15,0-.17,0c-1.38-.04-2.47-1.19-2.43-2.57.04-1.38,1.19-2.49,2.57-2.43l-.07,2.5.11-2.5c1.37.02,2.49,1.15,2.48,2.52-.01,1.37-1.11,2.48-2.48,2.48Zm45.6-.05c-1.37,0-2.53-1.1-2.55-2.46-.02-1.37,1.01-2.5,2.38-2.54.02,0,.15,0,.17,0,1.38,0,2.5,1.12,2.5,2.5s-1.12,2.5-2.5,2.5Zm7.6-.18c-1.35,0-2.51-1.07-2.55-2.42-.04-1.38,1-2.53,2.38-2.57h.1c1.36-.05,2.53,1.04,2.57,2.42s-1.05,2.53-2.43,2.57c-.02,0-.05,0-.08,0Zm-60.79-.03s-.1,0-.15,0c-1.36-.08-2.46-1.24-2.4-2.61.06-1.36,1.15-2.46,2.52-2.39.02,0,.15,0,.17,0,1.38.08,2.43,1.26,2.35,2.64-.08,1.33-1.18,2.35-2.49,2.35Zm68.39-.14c-1.37,0-2.53-1.1-2.55-2.46-.02-1.37,1.01-2.5,2.38-2.54.02,0,.15,0,.17,0,1.38,0,2.5,1.12,2.5,2.5s-1.12,2.5-2.5,2.5Zm7.5-.1c-1.38,0-2.5-1.12-2.5-2.5s1.12-2.5,2.5-2.5v2.5l.03-2.5h.03c1.36,0,2.49,1.08,2.51,2.45.03,1.37-1.04,2.51-2.41,2.55-.02,0-.15,0-.17,0Zm7.6-.07c-1.38,0-2.5-1.12-2.5-2.5s1.12-2.5,2.5-2.5v2.5l.03-2.5h.03c1.36,0,2.49,1.08,2.51,2.45.03,1.37-1.04,2.51-2.41,2.55-.02,0-.15,0-.17,0Zm7.6-.05c-1.38,0-2.5-1.12-2.5-2.5s1.12-2.5,2.5-2.5v2.5l.03-2.5h.03c1.36,0,2.49,1.08,2.51,2.45.03,1.37-1.04,2.51-2.41,2.55-.02,0-.15,0-.17,0Zm-98.68-.02s-.1,0-.15,0c-1.38-.08-2.48-1.27-2.4-2.65.08-1.38,1.24-2.45,2.59-2.35h.1c1.38.09,2.43,1.27,2.35,2.65-.08,1.33-1.18,2.35-2.49,2.35Zm106.38-.01c-1.38,0-2.55-1.12-2.55-2.5s1.07-2.5,2.45-2.5h.1c1.38,0,2.5,1.12,2.5,2.5s-1.12,2.5-2.5,2.5Zm7.6-.03h-.1c-1.38,0-2.5-1.12-2.5-2.5s1.12-2.5,2.5-2.5h.1c1.38,0,2.5,1.12,2.5,2.5s-1.12,2.5-2.5,2.5Zm7.6-.02h-.1c-1.38,0-2.5-1.12-2.5-2.5s1.12-2.5,2.5-2.5h.1c1.38,0,2.5,1.12,2.5,2.5s-1.12,2.5-2.5,2.5Zm7.6,0h-.1c-1.38,0-2.5-1.12-2.5-2.5s1.12-2.5,2.5-2.5h.1c1.38,0,2.5,1.12,2.5,2.5s-1.12,2.5-2.5,2.5Zm7.6-.02h-.1c-1.38,0-2.5-1.12-2.5-2.5s1.12-2.5,2.5-2.5h.1c1.38,0,2.5,1.12,2.5,2.5s-1.12,2.5-2.5,2.5Zm7.6-.09c-1.37,0-2.53-1.1-2.55-2.46-.02-1.37,1.01-2.5,2.38-2.54.02,0,.15,0,.17,0,1.38,0,2.5,1.12,2.5,2.5s-1.12,2.5-2.5,2.5Zm7.6-.17c-1.37,0-2.53-1.1-2.55-2.46-.02-1.37,1.01-2.5,2.38-2.54.02,0,.15,0,.17,0,1.38,0,2.5,1.12,2.5,2.5s-1.12,2.5-2.5,2.5Zm-159.56-.06s-.05,0-.07,0-.15,0-.17,0c-1.38-.08-2.43-1.26-2.35-2.64.08-1.38,1.25-2.44,2.64-2.35l-.15,2.5.18-2.49c1.37.06,2.45,1.22,2.4,2.59-.05,1.35-1.14,2.41-2.48,2.41Zm167.06-.18c-1.35,0-2.46-1.07-2.5-2.43-.04-1.38,1.05-2.53,2.43-2.57l.07,2.5-.04-2.5c1.41-.09,2.55,1,2.62,2.37.07,1.37-.96,2.54-2.33,2.62-.02,0-.15,0-.17,0s-.05,0-.07,0Zm-174.65-.14s-.1,0-.15,0c-1.36-.08-2.46-1.24-2.4-2.61.06-1.36,1.16-2.43,2.52-2.39.02,0,.15,0,.17,0,1.38.08,2.43,1.26,2.35,2.64s-1.18,2.35-2.49,2.35Zm182.34-.23c-1.32,0-2.46-1.02-2.54-2.35-.08-1.38.92-2.56,2.3-2.64h.1c1.39-.1,2.56.96,2.64,2.34.08,1.38-.97,2.56-2.35,2.64-.05,0-.1,0-.15,0Zm-250.73-.01c-1.38,0-2.55-1.12-2.55-2.5s1.07-2.5,2.45-2.5h.1c1.38,0,2.5,1.12,2.5,2.5s-1.12,2.5-2.5,2.5Zm60.79,0s-.05,0-.07,0c-1.38-.04-2.52-1.19-2.48-2.57.04-1.38,1.16-2.49,2.52-2.43h.1c1.38.04,2.47,1.2,2.43,2.58-.04,1.36-1.15,2.43-2.5,2.43Zm-68.39-.03s-.15,0-.17,0c-1.38-.04-2.47-1.19-2.43-2.57.04-1.38,1.21-2.49,2.57-2.43l-.07,2.5.11-2.5c1.37.02,2.49,1.15,2.48,2.52-.01,1.37-1.11,2.48-2.48,2.48Zm15.2-.05c-1.37,0-2.53-1.1-2.55-2.46-.02-1.37,1.01-2.5,2.38-2.54.02,0,.15,0,.17,0,1.38,0,2.5,1.12,2.5,2.5s-1.12,2.5-2.5,2.5Zm45.6-.12s-.15,0-.17,0c-1.38-.04-2.47-1.19-2.43-2.57.04-1.38,1.2-2.48,2.57-2.43l-.07,2.5.11-2.5c1.37.02,2.49,1.15,2.48,2.52-.01,1.37-1.11,2.48-2.48,2.48Zm-38-.03c-1.37,0-2.53-1.1-2.55-2.46-.02-1.37,1.01-2.5,2.38-2.54.02,0,.15,0,.17,0,1.38,0,2.5,1.12,2.5,2.5s-1.12,2.5-2.5,2.5Zm-30.39-.04s-.1,0-.15,0c-1.38-.08-2.48-1.27-2.4-2.65.08-1.38,1.23-2.45,2.59-2.35h.1c1.38.09,2.43,1.27,2.35,2.65s-1.18,2.35-2.49,2.35Zm60.79-.08s-.15,0-.17,0c-1.38-.04-2.47-1.19-2.43-2.57.04-1.38,1.21-2.5,2.57-2.43l-.07,2.5.11-2.5c1.37.02,2.49,1.15,2.48,2.52-.01,1.37-1.11,2.48-2.48,2.48Zm-22.9-.01c-1.38,0-2.5-1.12-2.5-2.5s1.12-2.5,2.5-2.5v2.5l.03-2.5h.03c1.36,0,2.49,1.08,2.51,2.45.03,1.37-1.04,2.51-2.41,2.55-.02,0-.15,0-.17,0Zm15.3-.06s-.05,0-.07,0c-1.37-.04-2.5-1.17-2.48-2.54.02-1.37,1.08-2.46,2.45-2.46.02,0,.15,0,.17,0,1.38.04,2.47,1.19,2.43,2.57-.04,1.36-1.15,2.43-2.5,2.43Zm-7.6,0c-1.38,0-2.55-1.12-2.55-2.5s1.07-2.5,2.45-2.5h.1c1.38,0,2.5,1.12,2.5,2.5s-1.12,2.5-2.5,2.5Zm227.82-.04c-1.31,0-2.42-1.02-2.49-2.35-.08-1.38.97-2.56,2.35-2.64l.15,2.5-.11-2.5c1.36-.09,2.58.92,2.69,2.29.11,1.37-.89,2.57-2.26,2.69-.02,0-.15.01-.17.01-.05,0-.1,0-.15,0Zm-280.99-.35c-.07,0-.15,0-.22,0-1.38-.12-2.44-1.34-2.32-2.71.12-1.38,1.29-2.4,2.66-2.27h.1c1.38.13,2.39,1.34,2.27,2.72-.11,1.3-1.21,2.28-2.49,2.28Zm288.67-.24c-1.3,0-2.44-1-2.54-2.31-.1-1.36.86-2.55,2.22-2.67.02,0,.15-.01.17-.01,1.39-.07,2.56.97,2.64,2.35.08,1.38-.97,2.56-2.35,2.64-.05,0-.1,0-.15,0Zm-296.23-.54c-.1,0-.2,0-.29-.02h-.1c-1.37-.17-2.35-1.42-2.19-2.79.16-1.37,1.4-2.34,2.77-2.19h.1c1.37.17,2.35,1.42,2.19,2.79-.15,1.27-1.23,2.21-2.48,2.21Zm303.8-.1c-1.29,0-2.42-.98-2.54-2.28-.12-1.38.85-2.58,2.22-2.71h.1c1.39-.14,2.59.89,2.71,2.26s-.9,2.59-2.27,2.71c-.08,0-.15,0-.22,0Zm7.57-.67c-1.29,0-2.42-.98-2.54-2.28-.12-1.38.85-2.58,2.22-2.71h.1c1.35-.13,2.59.89,2.71,2.26.12,1.38-.9,2.59-2.27,2.71-.08,0-.15,0-.22,0Zm-318.91-.21c-.1,0-.2,0-.3-.02-.02,0-.14-.02-.16-.02-1.37-.2-2.31-1.47-2.11-2.84.2-1.37,1.47-2.31,2.84-2.11l-.36,2.47.4-2.47c1.36.18,2.34,1.43,2.16,2.79-.16,1.26-1.23,2.19-2.47,2.19Zm326.47-.48c-1.29,0-2.42-.98-2.54-2.28-.12-1.38.85-2.58,2.22-2.71h.1c1.37-.14,2.59.89,2.71,2.26s-.9,2.59-2.27,2.71c-.08,0-.15,0-.22,0Zm-333.99-.64c-.15,0-.3-.01-.45-.04-1.34-.24-2.29-1.53-2.07-2.87.22-1.35,1.43-2.27,2.78-2.08.03,0,.16.02.18.03,1.36.25,2.26,1.55,2.01,2.91-.22,1.21-1.27,2.05-2.46,2.05Zm341.56-.03c-1.29,0-2.42-.98-2.54-2.28-.12-1.38.85-2.58,2.22-2.71h.1c1.37-.14,2.59.89,2.71,2.26s-.9,2.59-2.27,2.71c-.08,0-.15,0-.22,0Zm7.57-.67c-1.29,0-2.42-.98-2.54-2.28-.12-1.38.85-2.58,2.22-2.71h.1c1.38-.14,2.59.89,2.71,2.26.12,1.38-.9,2.59-2.27,2.71-.08,0-.15,0-.22,0Zm-356.62-.58c-.17,0-.35-.02-.52-.06-1.34-.28-2.25-1.6-1.98-2.94s1.5-2.23,2.85-1.99l-.45,2.46.46-2.46s.13.03.16.03c1.35.29,2.21,1.61,1.93,2.96-.25,1.18-1.29,1.98-2.44,1.98Zm364.19-.08c-1.29,0-2.42-.98-2.54-2.28-.12-1.38.85-2.58,2.22-2.71h.1c1.38-.14,2.59.89,2.71,2.26s-.9,2.59-2.27,2.71c-.08,0-.15,0-.22,0Zm7.57-.67c-1.29,0-2.42-.98-2.54-2.28-.12-1.38.85-2.58,2.22-2.71h.1c1.35-.14,2.59.89,2.71,2.26.12,1.38-.9,2.59-2.27,2.71-.08,0-.15,0-.22,0Zm-379.22-.68c-.15,0-.3-.01-.45-.04-1.36-.24-2.31-1.54-2.07-2.9.24-1.36,1.49-2.27,2.85-2.04l.11.02c1.36.25,2.26,1.55,2.01,2.91-.22,1.21-1.27,2.05-2.46,2.05Zm386.71-.06c-1.25,0-2.34-.93-2.49-2.21-.16-1.37.81-2.61,2.18-2.77l.17-.02c1.38-.13,2.59.9,2.71,2.27s-.9,2.59-2.27,2.71c-.1.01-.2.02-.3.02Zm7.53-.84c-1.25,0-2.33-.94-2.48-2.21-.16-1.37.82-2.61,2.19-2.78h.1c1.36-.17,2.61.81,2.78,2.18.16,1.37-.82,2.61-2.19,2.78h-.1c-.1.02-.2.03-.29.03Zm-401.73-.38c-.12,0-.25,0-.38-.03l-.16-.03c-1.36-.24-2.27-1.54-2.03-2.9.24-1.36,1.54-2.27,2.9-2.03l-.43,2.46.48-2.46c1.36.22,2.3,1.5,2.08,2.86-.19,1.23-1.25,2.12-2.46,2.12Zm409.27-.56c-1.25,0-2.33-.94-2.48-2.21-.16-1.37.82-2.61,2.19-2.77l.29,2.48-.26-2.49c1.36-.18,2.63.77,2.82,2.13.19,1.36-.74,2.62-2.1,2.82l-.17.02c-.1.01-.2.02-.29.02Zm-416.78-.66c-.14,0-.29-.01-.44-.04-1.35-.24-2.3-1.52-2.08-2.87.22-1.35,1.43-2.28,2.79-2.08.02,0,.14.02.16.03,1.36.24,2.27,1.54,2.03,2.9-.21,1.21-1.27,2.07-2.46,2.07Zm424.3-.38c-1.22,0-2.29-.89-2.47-2.14-.2-1.37.74-2.64,2.11-2.84l.36,2.47-.28-2.49c1.36-.21,2.64.73,2.85,2.1.21,1.37-.73,2.64-2.1,2.85,0,0-.11.02-.11.02-.12.02-.25.03-.37.03Zm-431.8-.88c-.12,0-.24,0-.37-.03l-.18-.03c-1.36-.24-2.26-1.54-2.02-2.9.24-1.36,1.54-2.26,2.9-2.02l-.44,2.46.47-2.46c1.35.22,2.29,1.5,2.08,2.86-.19,1.23-1.24,2.12-2.45,2.12Zm439.32-.25c-1.22,0-2.29-.89-2.47-2.14-.2-1.37.74-2.64,2.11-2.84l.36,2.47-.33-2.48c1.36-.22,2.65.7,2.88,2.04.23,1.35-.65,2.63-2,2.88-.03,0-.15.03-.18.03-.12.02-.25.03-.37.03Zm-446.8-1.06c-.14,0-.29-.01-.44-.04l-.1-.02c-1.36-.24-2.26-1.54-2.02-2.9.24-1.36,1.54-2.26,2.9-2.02l.09.02c1.36.24,2.27,1.54,2.03,2.9-.21,1.21-1.27,2.07-2.46,2.07Zm454.34-.16c-1.19,0-2.26-.85-2.48-2.06-.24-1.36.65-2.65,2.01-2.89l.16-.03c1.36-.21,2.64.73,2.85,2.1.21,1.37-.73,2.64-2.1,2.85-.15.03-.29.04-.44.04Zm-461.82-1.2c-.17,0-.34-.02-.51-.05-1.34-.28-2.25-1.59-1.99-2.93s1.5-2.24,2.85-1.99c.02,0,.15.03.17.03,1.35.28,2.22,1.61,1.94,2.96-.25,1.18-1.29,1.99-2.44,1.99Zm469.26-.13c-1.19,0-2.25-.85-2.46-2.07-.24-1.36.67-2.66,2.03-2.9l.43,2.46-.41-2.47c1.35-.25,2.67.62,2.94,1.96.27,1.34-.57,2.65-1.91,2.93l-.18.04c-.15.03-.29.04-.44.04Zm-476.73-1.3c-.15,0-.3-.01-.45-.04-.02,0-.14-.03-.16-.03-1.35-.28-2.22-1.61-1.94-2.96.28-1.35,1.61-2.22,2.96-1.94l-.51,2.45.55-2.44c1.35.26,2.25,1.57,1.99,2.92-.23,1.2-1.27,2.04-2.44,2.04Zm484.18-.2c-1.16,0-2.19-.81-2.44-1.98-.29-1.35.58-2.68,1.93-2.96l.52,2.45-.47-2.46c1.34-.31,2.69.52,3,1.86.31,1.34-.52,2.69-1.86,3-.02,0-.13.03-.15.03-.17.04-.35.05-.52.05Zm-491.6-1.42c-.19,0-.39-.02-.58-.07,0,0-.1-.02-.11-.03-1.34-.33-2.17-1.68-1.84-3.02.33-1.34,1.68-2.17,3.02-1.84l-.59,2.43.68-2.41c1.34.32,2.17,1.67,1.85,3.01-.27,1.15-1.3,1.92-2.43,1.92Zm499.03-.17c-1.16,0-2.19-.81-2.44-1.98-.29-1.35.58-2.68,1.93-2.96l.52,2.45-.47-2.46c1.34-.32,2.69.52,3,1.86.31,1.34-.52,2.69-1.86,3-.02,0-.13.03-.15.03-.17.04-.35.06-.52.06Zm7.43-1.61c-1.16,0-2.19-.81-2.44-1.98-.29-1.35.58-2.68,1.93-2.96l.52,2.45-.47-2.46c1.34-.32,2.69.52,3,1.86.31,1.34-.52,2.69-1.86,3-.02,0-.13.03-.15.03-.17.04-.35.06-.52.06Zm-513.77-.32c-.27,0-.54-.04-.81-.14-.02,0-.14-.05-.16-.06-1.29-.48-1.95-1.93-1.46-3.22s1.92-1.95,3.22-1.46l-.88,2.34.91-2.33c1.29.46,1.98,1.89,1.53,3.19-.36,1.03-1.32,1.68-2.35,1.68Zm521.19-1.3c-1.16,0-2.19-.81-2.44-1.98-.29-1.35.58-2.68,1.93-2.96l.52,2.45-.47-2.46c1.34-.32,2.69.52,3,1.86.31,1.34-.52,2.69-1.86,3-.02,0-.13.03-.15.03-.17.04-.35.06-.52.06Zm7.53-1.6c-1.17,0-2.24-.8-2.49-1.98-.28-1.35.53-2.66,1.88-2.95,0,0,.11-.02.11-.02,1.35-.28,2.67.59,2.95,1.94.28,1.35-.59,2.67-1.94,2.95-.17.04-.34.05-.51.05Zm-535.73-.03c-.37,0-.74-.08-1.09-.25-1.26-.57-1.83-2.06-1.27-3.31.57-1.26,2.03-1.83,3.29-1.26l.15.07c1.24.6,1.76,2.1,1.16,3.34-.43.89-1.32,1.41-2.25,1.41Zm543.17-1.5c-1.18,0-2.26-.82-2.5-2.01-.26-1.34.55-2.63,1.89-2.91.03,0,.15-.03.18-.04,1.36-.24,2.66.67,2.9,2.03.24,1.36-.67,2.66-2.03,2.9-.15.03-.3.04-.44.04Zm7.34-1.55c-1.16,0-2.19-.81-2.44-1.98-.29-1.35.58-2.68,1.93-2.96l.52,2.45-.47-2.46c1.34-.31,2.69.52,3,1.86.31,1.34-.52,2.69-1.86,3-.02,0-.13.03-.15.03-.17.04-.35.06-.52.06Zm-557.35-.3c-.39,0-.78-.09-1.14-.28l-.09-.05c-1.22-.64-1.69-2.15-1.05-3.38.64-1.22,2.15-1.69,3.38-1.05,0,0,.05.03.05.03,1.22.64,1.71,2.17,1.06,3.39-.45.85-1.31,1.34-2.21,1.34Zm564.77-1.34c-1.16,0-2.19-.81-2.44-1.98-.29-1.35.58-2.68,1.93-2.96l.52,2.45-.47-2.46c1.34-.32,2.69.52,3,1.86.31,1.34-.52,2.69-1.86,3-.02,0-.13.03-.15.03-.17.04-.35.06-.52.06Zm7.42-1.69c-1.13,0-2.16-.77-2.43-1.91-.33-1.34.49-2.69,1.83-3.02l.18-.04c1.35-.28,2.67.59,2.95,1.94.28,1.35-.59,2.67-1.94,2.95-.2.05-.4.07-.59.07Zm-578.81-.68c-.45,0-.91-.12-1.32-.38-1.17-.73-1.57-2.28-.85-3.45s2.21-1.57,3.39-.86l-1.29,2.14,1.31-2.13s.07.04.09.05c1.17.73,1.53,2.27.81,3.44-.47.76-1.29,1.18-2.13,1.18Zm586.19-1.07c-1.13,0-2.15-.77-2.43-1.91-.33-1.34.5-2.69,1.84-3.02l.59,2.43-.56-2.44c1.33-.35,2.7.45,3.05,1.78.35,1.33-.42,2.69-1.74,3.05-.02,0-.14.04-.17.04-.2.05-.4.07-.59.07Zm7.45-1.92c-1.12,0-2.17-.74-2.46-1.87-.34-1.32.4-2.66,1.71-3.02.02,0,.14-.04.17-.04,1.34-.32,2.69.5,3.02,1.84.33,1.34-.5,2.69-1.84,3.02-.2.05-.4.07-.6.07Zm-600.08-1.06c-.45,0-.91-.12-1.33-.39-.02-.01-.12-.08-.14-.09-1.15-.77-1.46-2.32-.69-3.47.77-1.15,2.32-1.46,3.47-.69l-1.39,2.08,1.42-2.06c1.16.75,1.5,2.29.76,3.45-.48.75-1.28,1.16-2.11,1.16Zm607.4-1c-1.09,0-2.12-.7-2.43-1.79-.38-1.32.31-2.68,1.63-3.08.02,0,.13-.04.14-.04,1.33-.38,2.71.4,3.08,1.73.37,1.33-.4,2.71-1.73,3.08-.23.06-.46.1-.69.1Zm7.18-2.21c-1.07,0-2.06-.7-2.39-1.78-.4-1.32.35-2.72,1.67-3.12l.72,2.39-.7-2.4c1.31-.41,2.72.3,3.15,1.59.43,1.3-.25,2.7-1.54,3.14l-.18.06c-.24.07-.49.11-.73.11Zm-620.86-1.05c-.5,0-1.01-.15-1.45-.47-1.11-.8-1.42-2.37-.64-3.49s2.28-1.44,3.41-.67c.02.01.12.08.13.09,1.12.8,1.38,2.36.58,3.49-.49.68-1.26,1.05-2.04,1.05Zm628.17-1.33c-1.06,0-2.07-.66-2.41-1.72-.42-1.3.23-2.67,1.52-3.12.03,0,.15-.05.18-.06,1.32-.4,2.72.35,3.12,1.67.4,1.32-.35,2.72-1.67,3.12-.24.07-.49.11-.74.11Zm7.1-2.47c-1.01,0-1.96-.62-2.34-1.62-.48-1.29.17-2.73,1.46-3.22l.09-.04c1.29-.48,2.73.17,3.22,1.46.48,1.29-.17,2.73-1.46,3.22l-.09.04c-.29.11-.59.16-.88.16Zm-641.47-.61c-.54,0-1.08-.17-1.53-.53-1.08-.84-1.32-2.42-.5-3.51.82-1.09,2.32-1.35,3.43-.55.02.02.12.09.14.11,1.09.85,1.29,2.42.44,3.51-.49.63-1.23.96-1.98.96Zm648.63-2.16c-1,0-1.96-.59-2.35-1.56-.51-1.28.06-2.7,1.34-3.22.01,0,.12-.05.13-.05,1.29-.5,2.74.14,3.23,1.43.5,1.29-.14,2.74-1.43,3.23-.3.12-.61.17-.92.17Zm-654.54-2.61c-.6,0-1.21-.22-1.69-.66-1.03-.92-1.13-2.53-.21-3.56.92-1.02,2.48-1.13,3.5-.21l.09.08c1.02.93,1.08,2.52.15,3.53-.49.54-1.17.81-1.84.81Zm661.52-.2c-.99,0-1.92-.59-2.32-1.56-.52-1.28.1-2.74,1.38-3.26l.07-.03c1.27-.53,2.74.07,3.27,1.34.53,1.27-.07,2.74-1.34,3.27l-.12.05c-.31.12-.63.18-.94.18Zm7.05-3.04c-.96,0-1.89-.54-2.3-1.45-.57-1.26-.05-2.72,1.2-3.29l.09-.04c1.26-.57,2.74,0,3.31,1.25.57,1.26,0,2.74-1.25,3.31-.34.15-.7.23-1.05.23Zm-674.03-2.04c-.67,0-1.33-.26-1.82-.79-.94-1-.93-2.59.05-3.54.98-.95,2.51-.98,3.47,0,.02.02.11.11.12.13.95,1.01.9,2.59-.11,3.53-.48.45-1.1.68-1.71.68Zm680.93-1.15c-.94,0-1.85-.52-2.28-1.41-.59-1.24-.11-2.7,1.12-3.3.01,0,.11-.05.12-.06,1.25-.58,2.74-.04,3.32,1.21.58,1.25.04,2.74-1.21,3.32-.35.16-.72.24-1.08.24Zm6.76-3.3c-.92,0-1.8-.51-2.24-1.38-.62-1.24-.12-2.74,1.12-3.35l1.12,2.24-1.06-2.27c1.23-.63,2.73-.15,3.37,1.08.63,1.23.15,2.73-1.08,3.37,0,0-.11.05-.12.06-.36.18-.74.26-1.12.26Zm-692.82-1.16c-.71,0-1.42-.3-1.91-.88-.89-1.05-.79-2.67.26-3.56,1.05-.89,2.6-.8,3.49.25l.06.08c.89,1.05.76,2.63-.29,3.52-.47.4-1.04.59-1.61.59Zm699.56-2.36c-.89,0-1.76-.48-2.21-1.32-.65-1.22-.19-2.73,1.03-3.38l1.18,2.21-1.14-2.22c1.21-.67,2.73-.24,3.4.96.67,1.2.26,2.71-.94,3.39l-.14.08c-.38.2-.78.29-1.17.29Zm6.64-3.69c-.87,0-1.72-.46-2.18-1.27-.68-1.2-.26-2.73.94-3.41l.05-.03c1.19-.7,2.72-.3,3.42.89.7,1.19.3,2.72-.89,3.42l-.12.07c-.39.22-.81.33-1.23.33Zm-710.76-.03c-.82,0-1.63-.41-2.11-1.15,0-.01-.07-.11-.07-.12-.73-1.17-.37-2.71.81-3.44,1.17-.73,2.71-.37,3.44.81l-2.12,1.32,2.16-1.27c.75,1.16.41,2.71-.75,3.45-.42.27-.89.4-1.35.4Zm717.31-3.83c-.84,0-1.65-.42-2.13-1.18-.73-1.17-.37-2.71.81-3.44l.17-.1c1.2-.68,2.73-.26,3.41.94.68,1.2.26,2.73-.94,3.41-.41.25-.87.38-1.32.38Zm-721.09-2.79c-.87,0-1.71-.46-2.17-1.28l-.05-.09c-.67-1.21-.22-2.73.99-3.4,1.21-.67,2.73-.22,3.4.99,0,0,.03.05.03.06.66,1.21.22,2.75-.99,3.41-.39.21-.8.31-1.21.31Zm727.62-1.23c-.84,0-1.66-.41-2.13-1.16-.73-1.17-.41-2.69.76-3.42l.08-.05c1.17-.73,2.71-.37,3.44.81.73,1.17.37,2.71-.81,3.44-.42.26-.89.38-1.35.38Zm6.4-4.08c-.82,0-1.62-.39-2.1-1.12-.76-1.16-.47-2.68.69-3.44l.1-.07c1.16-.75,2.71-.41,3.45.75.75,1.16.41,2.71-.75,3.45-.43.28-.92.42-1.4.42Zm-737.53-1.4c-.91,0-1.78-.49-2.22-1.35-.63-1.23-.18-2.78,1.05-3.41,1.23-.63,2.71-.2,3.35,1.03l.05.09c.63,1.23.15,2.73-1.08,3.37-.37.19-.76.28-1.14.28Zm743.88-2.81c-.81,0-1.61-.38-2.08-1.09-.76-1.14-.5-2.66.63-3.43.01,0,.11-.07.12-.08,1.15-.76,2.7-.43,3.46.72s.43,2.71-.72,3.46c-.43.28-.92.42-1.41.42Zm-747.3-3.98c-.93,0-1.82-.52-2.25-1.41-.6-1.24-.1-2.78,1.14-3.38,1.24-.6,2.72-.12,3.32,1.12,0,0,.04.09.04.09.6,1.24.08,2.74-1.16,3.34-.35.17-.72.25-1.09.25Zm753.54-.25c-.8,0-1.59-.38-2.07-1.1-.78-1.14-.48-2.7.67-3.47l1.4,2.07-1.37-2.09c1.13-.79,2.69-.53,3.49.59.8,1.12.54,2.67-.58,3.48-.02.01-.12.08-.13.09-.43.29-.92.43-1.4.43Zm6.21-4.39c-.79,0-1.57-.38-2.06-1.08-.79-1.13-.5-2.69.63-3.48l1.42,2.06-1.42-2.06c1.12-.8,2.71-.56,3.51.56.8,1.12.57,2.67-.56,3.47,0,0-.1.07-.11.08-.43.3-.93.44-1.42.44Zm-762.94-2.26c-.96,0-1.88-.56-2.29-1.5l-.04-.1c-.55-1.27.03-2.74,1.29-3.29,1.26-.55,2.74.03,3.29,1.29l.04.09c.55,1.26-.02,2.74-1.29,3.29-.33.14-.67.21-1,.21Zm769.05-2.26c-.77,0-1.52-.35-2.01-1.01-.82-1.11-.59-2.68.52-3.5l1.49,2.01-1.42-2.06c1.1-.83,2.67-.61,3.5.5.83,1.1.6,2.67-.5,3.5,0,0-.09.07-.09.07-.45.33-.97.49-1.49.49Zm6.04-4.61c-.78,0-1.55-.36-2.04-1.05-.79-1.11-.55-2.63.53-3.45,0,0,.02-.01.03-.02,1.09-.82,2.67-.63,3.51.45.84,1.08.68,2.61-.39,3.46-.02.01-.08.06-.11.09-.03.02-.05.04-.08.06-.44.31-.95.47-1.45.47Zm-777.93-.18c-1.02,0-1.99-.64-2.35-1.66-.47-1.3.19-2.78,1.49-3.25,1.3-.47,2.71.16,3.18,1.46l.03.09c.47,1.3-.21,2.73-1.51,3.2-.28.1-.56.15-.85.15Zm783.86-4.56c-.71,0-1.42-.3-1.91-.89-.89-1.05-.76-2.63.29-3.52.03-.02.13-.11.16-.13,1.09-.85,2.66-.65,3.51.44.85,1.09.65,2.66-.44,3.51-.47.4-1.04.59-1.61.59Zm-786.01-2.72c-1.16,0-2.2-.81-2.45-2,0,0-.02-.11-.02-.12-.27-1.35.62-2.67,1.97-2.94,1.35-.27,2.67.62,2.94,1.97l-2.45.48,2.47-.41c.28,1.35-.59,2.67-1.94,2.95-.17.04-.34.05-.51.05Zm791.88-2.2c-.71,0-1.41-.29-1.9-.87-.89-1.05-.8-2.6.25-3.49l.08-.06c1.05-.89,2.63-.76,3.52.29.89,1.05.76,2.63-.29,3.52-.48.41-1.07.61-1.66.61Zm5.71-4.93c-.67,0-1.35-.27-1.84-.81-.93-1.02-.87-2.6.15-3.53.03-.02.12-.11.15-.13,1.05-.89,2.63-.76,3.52.29.89,1.05.76,2.63-.29,3.52-.48.44-1.09.66-1.69.66Zm-798.5-.41c-1.3,0-2.4-1-2.49-2.32v-.13c-.09-1.38.96-2.56,2.34-2.64,1.39-.08,2.56.97,2.64,2.35v.07c.1,1.38-.93,2.57-2.31,2.67-.06,0-.12,0-.18,0Zm804.09-4.81c-.66,0-1.31-.25-1.79-.75-.96-1-.96-2.54.04-3.5l.07-.07c1-.96,2.58-.92,3.53.08.96,1,.92,2.58-.08,3.53-.49.47-1.14.71-1.78.71Zm-804.18-2.78s-.07,0-.11,0c-1.38-.06-2.45-1.23-2.39-2.61.06-1.38,1.23-2.46,2.61-2.44,1.38.06,2.45,1.18,2.39,2.56v.1c-.06,1.34-1.17,2.39-2.5,2.39Zm809.54-2.54c-.62,0-1.25-.23-1.73-.7-1-.96-1.03-2.54-.07-3.54l.07-.07c.96-1,2.54-1.03,3.53-.08,1,.96,1.03,2.54.08,3.53l-.07.07c-.49.51-1.15.77-1.8.77ZM3.11,683.65c-.09,0-.17,0-.26-.01-1.37-.14-2.37-1.37-2.23-2.74l.02-.14c.16-1.37,1.4-2.35,2.77-2.19,1.37.16,2.35,1.4,2.19,2.77v.06c-.14,1.29-1.23,2.24-2.49,2.24Zm814.15-.55c-.6,0-1.2-.21-1.67-.64-1.02-.94-1.12-2.48-.18-3.5l.07-.07c.94-1.02,2.52-1.08,3.53-.15,1.02.93,1.08,2.52.15,3.53-.5.55-1.2.83-1.9.83Zm5.05-5.64c-.57,0-1.14-.19-1.6-.58-1.05-.89-1.2-2.45-.31-3.51l.1-.12c.91-1.03,2.5-1.13,3.53-.22,1.03.91,1.13,2.49.22,3.53-.5.59-1.21.9-1.93.9Zm-818.15-1.33c-.14,0-.27-.01-.41-.03-1.36-.23-2.28-1.51-2.05-2.88s1.51-2.33,2.88-2.11c1.36.22,2.29,1.46,2.07,2.82,0,0-.02.11-.02.11-.2,1.22-1.26,2.09-2.46,2.09Zm822.9-4.62c-.51,0-1.03-.16-1.46-.48-1.11-.82-1.37-2.35-.54-3.45,0,0,.07-.09.07-.09.83-1.11,2.39-1.33,3.5-.5,1.1.83,1.33,2.4.5,3.5-.5.67-1.28,1.03-2.06,1.03Zm-821.5-2.85c-.16,0-.31-.01-.47-.04-1.36-.26-2.25-1.57-1.99-2.92,0-.02.03-.13.03-.15.29-1.35,1.62-2.21,2.96-1.93,1.35.29,2.21,1.61,1.93,2.96l-2.45-.52,2.44.57c-.23,1.2-1.28,2.03-2.45,2.03Zm825.88-3.31c-.48,0-.97-.14-1.4-.43-1.14-.78-1.44-2.33-.67-3.47l2.07,1.4-2.04-1.45c.76-1.16,2.31-1.48,3.46-.72,1.16.76,1.48,2.31.72,3.46,0,.01-.07.11-.08.12-.48.71-1.27,1.1-2.07,1.1Zm-824.2-4.1c-.21,0-.42-.03-.63-.08-1.34-.34-2.14-1.71-1.8-3.04l.03-.13c.36-1.33,1.74-2.11,3.07-1.75,1.33.36,2.12,1.74,1.75,3.07l-.02.06c-.29,1.13-1.31,1.88-2.42,1.88Zm828.38-2.24c-.45,0-.91-.12-1.32-.38-1.17-.73-1.53-2.27-.8-3.44.02-.03.09-.14.11-.17.78-1.14,2.33-1.44,3.47-.67,1.14.77,1.44,2.33.67,3.47-.47.76-1.29,1.18-2.12,1.18Zm-825.56-4.8c-.38,0-.76-.09-1.12-.26-1.23-.62-1.74-2.12-1.12-3.35.6-1.24,2.11-1.8,3.35-1.19,1.24.6,1.78,2.07,1.18,3.31l-.06.12c-.44.88-1.32,1.38-2.24,1.38Zm829.49-1.74c-.41,0-.83-.1-1.21-.32-1.2-.68-1.64-2.18-.96-3.38l.07-.12c.7-1.19,2.23-1.59,3.42-.89,1.19.7,1.59,2.23.89,3.42-.46.82-1.33,1.29-2.21,1.29Zm-825.8-4.9c-.47,0-.95-.13-1.37-.41-1.15-.76-1.48-2.31-.72-3.46,0-.01.07-.11.08-.12.78-1.14,2.33-1.44,3.47-.67s1.44,2.33.67,3.47l-2.07-1.4,2.04,1.45c-.48.73-1.28,1.13-2.09,1.13Zm829.43-1.74c-.4,0-.8-.09-1.17-.29-1.22-.65-1.68-2.16-1.03-3.38l2.21,1.18-2.19-1.2c.63-1.21,2.13-1.71,3.35-1.1,1.22.61,1.74,2.07,1.14,3.3l-.09.18c-.45.84-1.31,1.32-2.21,1.32Zm-824.54-4.06c-.63,0-1.26-.24-1.75-.71-.99-.97-1-2.55-.04-3.54.96-.98,2.56-1.04,3.55-.09.99.95,1.06,2.48.12,3.48-.01.01-.09.1-.1.11-.49.5-1.14.75-1.79.75Zm827.86-2.79c-.34,0-.69-.07-1.02-.22-1.26-.57-1.82-2.03-1.26-3.29l.07-.15c.6-1.24,2.1-1.76,3.34-1.16,1.24.6,1.76,2.1,1.16,3.34-.42.93-1.34,1.48-2.3,1.48Zm-822.29-2.37c-.76,0-1.51-.34-2-1-.83-1.1-.6-2.67.5-3.5l.11-.08c1.12-.81,2.68-.57,3.49.55.81,1.12.56,2.68-.55,3.49l-.05.04c-.45.34-.98.5-1.5.5Zm28.53-1.47c-.46,0-.93-.13-1.35-.42l-.08-.06c-1.15-.77-1.45-2.32-.68-3.47.77-1.15,2.32-1.45,3.47-.68,1.15.77,1.49,2.35.73,3.5-.49.73-1.27,1.13-2.07,1.13Zm-21.74-1.95c-1,0-1.94-.59-2.33-1.56-.51-1.27.08-2.71,1.35-3.23l.17-.07c1.29-.48,2.73.17,3.22,1.46s-.17,2.73-1.46,3.22l-.88-2.34.85,2.35c-.3.12-.61.17-.91.17Zm818.63-1.11c-.34,0-.69-.07-1.03-.22-1.26-.57-1.82-2.05-1.25-3.31l2.28,1.03-2.27-1.05c.55-1.25,2.01-1.85,3.27-1.32,1.26.53,1.87,1.95,1.35,3.22l-.08.18c-.42.92-1.33,1.47-2.28,1.47Zm-803.67,0c-.14,0-.29-.01-.44-.04-.02,0-.15-.03-.17-.03-1.35-.28-2.22-1.61-1.94-2.96.28-1.35,1.61-2.22,2.96-1.94,1.34.28,2.25,1.59,1.99,2.93-.23,1.19-1.24,2.03-2.41,2.03Zm-7.65-.68c-1.31,0-2.42-1.02-2.49-2.35-.08-1.38.97-2.56,2.35-2.64,1.37-.08,2.61.97,2.69,2.35s-.92,2.56-2.3,2.64h-.1s-.1,0-.15,0Zm814.18-6.35c-.29,0-.59-.05-.88-.16-1.29-.48-1.95-1.93-1.46-3.22l2.34.88-2.33-.9c.47-1.29,1.89-1.98,3.18-1.53,1.29.45,1.99,1.83,1.56,3.13l-.07.18c-.38,1-1.33,1.62-2.34,1.62Zm2.33-7.28c-.23,0-.45-.03-.68-.1-1.31-.38-2.08-1.69-1.72-3.01,0-.03.04-.15.05-.18.41-1.32,1.81-2.05,3.13-1.64,1.32.41,2.05,1.81,1.64,3.13-.34,1.08-1.34,1.8-2.42,1.8Zm1.88-7.36c-.17,0-.35-.02-.53-.06-1.34-.3-2.19-1.57-1.91-2.91,0-.02.03-.13.03-.15.32-1.34,1.66-2.18,3.01-1.86,1.34.32,2.18,1.66,1.86,3.01-.27,1.16-1.32,1.97-2.46,1.97Zm1.49-7.4c-.14,0-.29-.01-.44-.04-1.36-.24-2.27-1.54-2.03-2.9l2.46.43-2.46-.48c.22-1.36,1.5-2.3,2.86-2.08,1.36.21,2.29,1.47,2.09,2.84l-.03.16c-.21,1.21-1.27,2.07-2.46,2.07Zm1.17-7.51c-.12,0-.24,0-.37-.03-1.37-.2-2.31-1.47-2.11-2.84v-.1c.21-1.37,1.49-2.3,2.85-2.11,1.37.2,2.31,1.47,2.11,2.84v.1c-.2,1.24-1.27,2.14-2.49,2.14Zm.97-7.54c-.1,0-.2,0-.29-.02-1.37-.16-2.35-1.4-2.19-2.77v-.1c.17-1.37,1.42-2.36,2.79-2.19,1.37.16,2.35,1.4,2.19,2.77v.1c-.16,1.27-1.24,2.21-2.49,2.21Zm.79-7.57c-.07,0-.15,0-.22,0-1.38-.12-2.39-1.32-2.27-2.7l.02-.17c.16-1.37,1.41-2.35,2.77-2.19,1.37.16,2.35,1.4,2.19,2.77-.11,1.3-1.21,2.29-2.49,2.29Zm.41-7.62s-.05,0-.07,0c-1.38-.04-2.47-1.14-2.43-2.52v-.1c.04-1.38,1.19-2.46,2.58-2.43,1.38.04,2.47,1.19,2.43,2.57-.04,1.36-1.15,2.48-2.5,2.48Zm.12-7.55c-1.38,0-2.5-1.12-2.5-2.5v-.1c0-1.38,1.12-2.5,2.5-2.5s2.5,1.12,2.5,2.5v.1c0,1.38-1.12,2.5-2.5,2.5Zm-.09-7.6c-1.35,0-2.46-1.07-2.5-2.43l2.5-.07-2.5.04c-.06-1.37,1-2.55,2.37-2.62,1.33-.05,2.54.97,2.62,2.34v.17c.05,1.38-1.04,2.53-2.42,2.57-.02,0-.05,0-.07,0Zm-.67-7.57c-1.22,0-2.29-.89-2.47-2.14l2.47-.36-2.49.28c-.21-1.37.73-2.64,2.1-2.85,1.36-.21,2.64.73,2.85,2.1,0,0,.02.11.02.11.2,1.37-.74,2.64-2.11,2.84-.12.02-.25.03-.37.03Zm-1.4-7.47c-1.16,0-2.19-.81-2.44-1.98l2.45-.52-2.46.47c-.31-1.34.52-2.69,1.86-3,1.35-.31,2.69.52,3,1.86,0,.02.03.13.03.15.29,1.35-.58,2.68-1.93,2.96-.17.04-.35.06-.52.06Zm-1.86-7.37c-1.1,0-2.11-.73-2.41-1.84l.08-.02,2.31-.73,2.41-.68s.03.11.03.11c.36,1.33-.42,2.71-1.75,3.07-.22.06-.44.09-.66.09Zm-2.46-7.19c-.99,0-1.92-.59-2.32-1.56l-.03-.07c-.53-1.27.07-2.74,1.34-3.27,1.27-.53,2.74.07,3.27,1.34l.05.12c.52,1.28-.1,2.74-1.38,3.26-.31.12-.63.18-.94.18Zm-3.32-6.83c-.87,0-1.72-.46-2.18-1.27l-.03-.05c-.7-1.19-.3-2.72.89-3.42,1.19-.7,2.72-.3,3.42.89l.07.12c.68,1.2.26,2.73-.94,3.41-.39.22-.81.33-1.23.33Zm-4.22-6.31c-.75,0-1.48-.33-1.98-.96l-.06-.08c-.85-1.09-.65-2.66.44-3.51s2.66-.65,3.51.44l.06.08c.85,1.09.65,2.66-.44,3.51-.46.35-1,.53-1.53.53Zm-4.98-5.78c-.66,0-1.32-.27-1.81-.8l-.1-.11c-.92-1.03-.82-2.61.22-3.53,1.03-.92,2.62-.82,3.53.22.94,1.02.89,2.62-.13,3.55-.48.45-1.09.67-1.7.67Zm-5.22-5.56c-.64,0-1.27-.25-1.75-.75l-.07-.07c-.96-1-.92-2.58.08-3.53,1-.96,2.58-.92,3.53.08.96,1,.96,2.61-.04,3.57-.49.47-1.12.71-1.75.71Zm-5.29-5.39c-.62,0-1.25-.23-1.73-.7,0,0-.05-.05-.05-.05-.98-.96-1.02-2.56-.06-3.54.96-.99,2.51-1.03,3.51-.08l.07.07c1,.96,1.03,2.54.07,3.54-.49.51-1.15.77-1.8.77Zm-5.65-5.08c-.55,0-1.11-.18-1.58-.56,0,0-.05-.04-.05-.04-1.06-.88-1.23-2.46-.36-3.52.87-1.07,2.42-1.24,3.49-.38,0,0,.08.07.08.07,1.07.87,1.23,2.45.36,3.52-.49.61-1.21.92-1.94.92Zm-6.45-3.96c-.37,0-.74-.08-1.09-.25l1.09-2.25-1.12,2.23c-1.25-.58-1.8-2.06-1.23-3.31.57-1.25,2.04-1.81,3.29-1.24l.15.07c1.24.6,1.76,2.1,1.16,3.34-.43.89-1.32,1.41-2.25,1.41Z"/>
      </g>
      <g id="uuid-7412e20a-5f6d-445e-a2e4-83a63f512062" data-name="STROKE 1a290ef7-e639-4af7-b149-728136de4fa5">
        <path class="uuid-4d72eeea-a997-4231-89a1-cf2add5be086" d="m807.37,517.83c-1.18,0-2.23-.83-2.45-2.03,0-.03-.03-.15-.03-.18-.2-1.37.74-2.64,2.11-2.84,1.36-.19,2.64.74,2.84,2.11l-2.47.36,2.48-.33c.22,1.35-.69,2.65-2.04,2.88-.14.03-.29.04-.43.04Zm-1.2-7.5c-1.18,0-2.23-.83-2.45-2.03,0-.03-.03-.15-.03-.18-.2-1.37.74-2.64,2.11-2.84,1.36-.19,2.64.74,2.84,2.11l-2.47.36,2.48-.33c.22,1.35-.69,2.65-2.04,2.88-.14.03-.29.04-.43.04Zm-1.21-7.5c-1.18,0-2.23-.83-2.45-2.03,0-.03-.03-.15-.03-.18-.2-1.37.74-2.64,2.11-2.84,1.36-.2,2.64.74,2.84,2.11l-2.47.36,2.48-.33c.22,1.35-.69,2.65-2.04,2.88-.14.03-.29.04-.43.04Zm-1.22-7.48c-1.22,0-2.28-.89-2.47-2.12-.24-1.36.66-2.68,2.02-2.92,1.35-.24,2.65.65,2.89,2.01l.03.16c.21,1.37-.73,2.64-2.1,2.85-.13.02-.25.03-.38.03Zm-1.47-7.45c-1.09,0-2.09-.72-2.4-1.82l-.03-.1c-.38-1.33.4-2.71,1.72-3.09,1.33-.38,2.71.4,3.09,1.72l.03.1c.38,1.33-.4,2.71-1.72,3.09-.23.06-.46.1-.68.1Z"/>
      </g>
      <g id="uuid-7b78d224-3020-4b7d-bdd0-8846f1bc89c9" data-name="STROKE a38721e8-835c-41d4-a733-48e97a4ba245">
        <path class="uuid-4d72eeea-a997-4231-89a1-cf2add5be086" d="m800.49,474.69c-.6,0-1.21-.22-1.69-.66-1.02-.93-1.08-2.52-.15-3.53l1.84,1.69-1.82-1.71c.91-1.01,2.49-1.12,3.52-.23,1.03.9,1.16,2.44.28,3.48-.02.03-.11.13-.13.15-.49.54-1.17.81-1.84.81Zm5.24-5.46c-.75,0-1.48-.33-1.98-.96-.85-1.09-.65-2.66.44-3.51l1.54,1.97-1.49-2.01c1.08-.87,2.65-.7,3.52.37.87,1.07.7,2.65-.37,3.52-.01,0-.1.08-.11.09-.46.35-1,.53-1.53.53Zm6.15-4.47c-.8,0-1.59-.38-2.07-1.1-.78-1.14-.48-2.7.67-3.47l1.4,2.07-1.37-2.09c1.13-.79,2.69-.53,3.49.59.8,1.12.54,2.67-.58,3.48-.02.01-.12.08-.13.09-.43.29-.92.43-1.4.43Zm6.33-4.32c-.81,0-1.61-.38-2.08-1.09-.76-1.14-.5-2.66.63-3.43.01,0,.1-.07.12-.08,1.15-.76,2.7-.44,3.46.72.76,1.16.43,2.71-.72,3.46-.43.28-.92.42-1.41.42Zm6.34-4.17c-.82,0-1.62-.39-2.1-1.12-.76-1.16-.47-2.68.69-3.44l.1-.07c1.16-.75,2.71-.41,3.45.75.75,1.16.41,2.71-.75,3.45-.43.28-.92.42-1.4.42Z"/>
      </g>
    </g>
  </g>
</svg>